<svg xmlns="http://www.w3.org/2000/svg" xmlns:xlink="http://www.w3.org/1999/xlink" width="22.393" height="18.902" viewBox="0 0 22.393 18.902">
  <defs>
    <linearGradient id="linear-gradient" x1="0.5" x2="0.5" y2="1" gradientUnits="objectBoundingBox">
      <stop offset="0" stop-color="#1d84c7"/>
      <stop offset="1" stop-color="#95dbe9"/>
    </linearGradient>
  </defs>
  <g id="Group_12283" data-name="Group 12283" transform="translate(-193.973 -1435.241)">
    <path id="Path_19268" data-name="Path 19268" d="M375.2,1497.438a.7.7,0,0,0-.764-.757h-2.662a.7.7,0,0,0-.775.773q0,2.763,0,5.525t0,5.539a.7.7,0,0,0,.755.75h2.676a.7.7,0,0,0,.77-.766Q375.2,1502.97,375.2,1497.438Z" transform="translate(-158.834 -55.126)" fill="url(#linear-gradient)"/>
    <path id="Path_19269" data-name="Path 19269" d="M213.146,1439.129a2.1,2.1,0,0,0,3.211-1.621,2.1,2.1,0,0,0-3.428-1.769,2.054,2.054,0,0,0-.671,2.217.155.155,0,0,1-.081.207q-1.208.832-2.413,1.669l-.185.126a2.124,2.124,0,0,0-3.131.431l-1.933-.669c-.259-.09-.259-.09-.275-.358,0-.038-.007-.076-.012-.114a2.02,2.02,0,0,0-1.358-1.756,1.977,1.977,0,0,0-2.162.436,2.007,2.007,0,0,0-.573,2.13.158.158,0,0,1-.074.208q-1.23.851-2.453,1.712a.194.194,0,0,1-.28-.005,2.08,2.08,0,0,0-2.375-.094,2.1,2.1,0,1,0,3.137,1.189.149.149,0,0,1,.07-.2q1.26-.871,2.515-1.75c.034-.024.071-.044.1-.065a2.11,2.11,0,0,0,3.115-.437l1.961.681c.236.082.236.082.247.32,0,.053.009.1.014.157a2.095,2.095,0,0,0,4.178-.191,7.131,7.131,0,0,0-.087-.779l1.328-.919,1.354-.937C212.981,1439.014,213.061,1439.075,213.146,1439.129Zm1.122-2.824a1.048,1.048,0,1,1-1.047,1.025A1.051,1.051,0,0,1,214.267,1436.306Zm-18.194,8.393a1.048,1.048,0,1,1,1.047-1.037A1.046,1.046,0,0,1,196.074,1444.7Zm6.057-4.2a1.048,1.048,0,1,1,1.057-1.032A1.062,1.062,0,0,1,202.13,1440.5Zm6.067,2.1a1.048,1.048,0,0,1,.01-2.1,1.048,1.048,0,1,1-.01,2.1Z" fill="url(#linear-gradient)"/>
    <path id="Path_19270" data-name="Path 19270" d="M256.409,1517.065q-1.309,0-2.619,0a.7.7,0,0,0-.758.763q0,2.238,0,4.475,0,2.259,0,4.519a.689.689,0,0,0,.738.736h2.691a.7.7,0,0,0,.769-.766q0-4.454,0-8.907A.721.721,0,0,0,256.409,1517.065Z" transform="translate(-52.99 -73.415)" fill="url(#linear-gradient)"/>
    <path id="Path_19271" data-name="Path 19271" d="M315.454,1537.456q-1.367-.006-2.733,0a.7.7,0,0,0-.74.757q0,3.445,0,6.89a.7.7,0,0,0,.744.748h2.7a.692.692,0,0,0,.749-.753q0-1.726,0-3.452t0-3.452A.693.693,0,0,0,315.454,1537.456Z" transform="translate(-105.881 -91.709)" fill="url(#linear-gradient)"/>
    <path id="Path_19272" data-name="Path 19272" d="M197.438,1557.912h-2.69a.7.7,0,0,0-.755.754q0,2.4,0,4.805a.692.692,0,0,0,.74.736h2.7a.7.7,0,0,0,.754-.751q0-1.2,0-2.4t0-2.388A.7.7,0,0,0,197.438,1557.912Z" transform="translate(-0.016 -110.065)" fill="url(#linear-gradient)"/>
  </g>
</svg>
