<svg xmlns="http://www.w3.org/2000/svg" xmlns:xlink="http://www.w3.org/1999/xlink" width="41.125" height="33.441" viewBox="0 0 41.125 33.441">
  <defs>
    <clipPath id="clip-path">
      <ellipse id="Ellipse_786" data-name="Ellipse 786" cx="15.268" cy="2.246" rx="15.268" ry="2.246" fill="none"/>
    </clipPath>
    <linearGradient id="linear-gradient" x1="0.5" x2="0.5" y2="1" gradientUnits="objectBoundingBox">
      <stop offset="0" stop-color="#f8ff94"/>
      <stop offset="0.225" stop-color="#e9c200"/>
      <stop offset="0.607" stop-color="#dd8e00"/>
      <stop offset="1" stop-color="#aa6300"/>
    </linearGradient>
    <linearGradient id="linear-gradient-2" x1="0.5" x2="0.5" y2="1" gradientUnits="objectBoundingBox">
      <stop offset="0" stop-color="#f8ff94"/>
      <stop offset="0.319" stop-color="#ffe000"/>
      <stop offset="0.702" stop-color="#ffa400"/>
      <stop offset="1" stop-color="#d4a900"/>
    </linearGradient>
  </defs>
  <g id="Group_12381" data-name="Group 12381" transform="translate(-24.842 -139.649)">
    <g id="Group_12370" data-name="Group 12370" transform="translate(27.299 136.841)">
      <g id="Group_12312" data-name="Group 12312" transform="translate(2.543 31.757)" opacity="0.5" style="mix-blend-mode: multiply;isolation: isolate">
        <g id="Group_12311" data-name="Group 12311">
          <g id="Group_12310" data-name="Group 12310" clip-path="url(#clip-path)">
            <rect id="Rectangle_4010" data-name="Rectangle 4010" width="30.536" height="4.491" transform="translate(0 0)" fill="#fff"/>
            <ellipse id="Ellipse_691" data-name="Ellipse 691" cx="13.67" cy="1.835" rx="13.67" ry="1.835" transform="translate(1.551 0.582) rotate(-0.323)" fill="#fff"/>
            <ellipse id="Ellipse_692" data-name="Ellipse 692" cx="13.617" cy="1.828" rx="13.617" ry="1.828" transform="translate(1.558 0.589) rotate(-0.323)" fill="#fff"/>
            <ellipse id="Ellipse_693" data-name="Ellipse 693" cx="13.563" cy="1.821" rx="13.563" ry="1.821" transform="translate(1.565 0.596) rotate(-0.323)" fill="#fff"/>
            <ellipse id="Ellipse_694" data-name="Ellipse 694" cx="13.509" cy="1.814" rx="13.509" ry="1.814" transform="translate(1.572 0.603) rotate(-0.323)" fill="#fff"/>
            <ellipse id="Ellipse_695" data-name="Ellipse 695" cx="13.456" cy="1.806" rx="13.456" ry="1.806" transform="translate(1.579 0.61) rotate(-0.323)" fill="#fff"/>
            <ellipse id="Ellipse_696" data-name="Ellipse 696" cx="13.402" cy="1.799" rx="13.402" ry="1.799" transform="translate(1.585 0.617) rotate(-0.323)" fill="#feffff"/>
            <ellipse id="Ellipse_697" data-name="Ellipse 697" cx="13.349" cy="1.792" rx="13.349" ry="1.792" transform="translate(1.592 0.624) rotate(-0.323)" fill="#feffff"/>
            <ellipse id="Ellipse_698" data-name="Ellipse 698" cx="13.295" cy="1.785" rx="13.295" ry="1.785" transform="matrix(1, -0.006, 0.006, 1, 1.599, 0.632)" fill="#fefeff"/>
            <ellipse id="Ellipse_699" data-name="Ellipse 699" cx="13.241" cy="1.778" rx="13.241" ry="1.778" transform="translate(1.606 0.639) rotate(-0.323)" fill="#fefeff"/>
            <ellipse id="Ellipse_700" data-name="Ellipse 700" cx="13.188" cy="1.77" rx="13.188" ry="1.77" transform="translate(1.613 0.646) rotate(-0.323)" fill="#fefeff"/>
            <ellipse id="Ellipse_701" data-name="Ellipse 701" cx="13.134" cy="1.763" rx="13.134" ry="1.763" transform="translate(1.62 0.653) rotate(-0.323)" fill="#fdfeff"/>
            <ellipse id="Ellipse_702" data-name="Ellipse 702" cx="13.081" cy="1.756" rx="13.081" ry="1.756" transform="translate(1.627 0.66) rotate(-0.323)" fill="#fdfefe"/>
            <ellipse id="Ellipse_703" data-name="Ellipse 703" cx="13.027" cy="1.749" rx="13.027" ry="1.749" transform="translate(1.633 0.667) rotate(-0.323)" fill="#fdfefe"/>
            <ellipse id="Ellipse_704" data-name="Ellipse 704" cx="12.973" cy="1.742" rx="12.973" ry="1.742" transform="translate(1.64 0.674) rotate(-0.323)" fill="#fdfefe"/>
            <ellipse id="Ellipse_705" data-name="Ellipse 705" cx="12.92" cy="1.734" rx="12.92" ry="1.734" transform="translate(1.647 0.681) rotate(-0.323)" fill="#fcfdfe"/>
            <ellipse id="Ellipse_706" data-name="Ellipse 706" cx="12.866" cy="1.727" rx="12.866" ry="1.727" transform="matrix(1, -0.006, 0.006, 1, 1.654, 0.689)" fill="#fcfdfe"/>
            <ellipse id="Ellipse_707" data-name="Ellipse 707" cx="12.813" cy="1.72" rx="12.813" ry="1.72" transform="translate(1.661 0.696) rotate(-0.323)" fill="#fcfdfe"/>
            <ellipse id="Ellipse_708" data-name="Ellipse 708" cx="12.759" cy="1.713" rx="12.759" ry="1.713" transform="translate(1.668 0.703) rotate(-0.323)" fill="#fbfdfe"/>
            <path id="Path_19317" data-name="Path 19317" d="M771.411,269.6c.005.942-5.679,1.738-12.7,1.777s-12.71-.692-12.715-1.634,5.679-1.738,12.7-1.777S771.406,268.658,771.411,269.6Z" transform="translate(-744.317 -267.328)" fill="#fbfdfe"/>
            <ellipse id="Ellipse_709" data-name="Ellipse 709" cx="12.652" cy="1.699" rx="12.652" ry="1.699" transform="translate(1.681 0.717) rotate(-0.323)" fill="#fbfcfe"/>
            <ellipse id="Ellipse_710" data-name="Ellipse 710" cx="12.598" cy="1.691" rx="12.598" ry="1.691" transform="matrix(1, -0.006, 0.006, 1, 1.688, 0.724)" fill="#fafcfe"/>
            <ellipse id="Ellipse_711" data-name="Ellipse 711" cx="12.544" cy="1.684" rx="12.544" ry="1.684" transform="matrix(1, -0.006, 0.006, 1, 1.695, 0.731)" fill="#fafcfd"/>
            <ellipse id="Ellipse_712" data-name="Ellipse 712" cx="12.491" cy="1.677" rx="12.491" ry="1.677" transform="translate(1.702 0.738) rotate(-0.323)" fill="#fafcfd"/>
            <ellipse id="Ellipse_713" data-name="Ellipse 713" cx="12.437" cy="1.67" rx="12.437" ry="1.67" transform="matrix(1, -0.006, 0.006, 1, 1.709, 0.746)" fill="#f9fcfd"/>
            <ellipse id="Ellipse_714" data-name="Ellipse 714" cx="12.384" cy="1.663" rx="12.384" ry="1.663" transform="translate(1.715 0.753) rotate(-0.323)" fill="#f9fbfd"/>
            <ellipse id="Ellipse_715" data-name="Ellipse 715" cx="12.33" cy="1.655" rx="12.33" ry="1.655" transform="matrix(1, -0.006, 0.006, 1, 1.722, 0.76)" fill="#f8fbfd"/>
            <ellipse id="Ellipse_716" data-name="Ellipse 716" cx="12.276" cy="1.648" rx="12.276" ry="1.648" transform="translate(1.729 0.767) rotate(-0.323)" fill="#f8fbfd"/>
            <ellipse id="Ellipse_717" data-name="Ellipse 717" cx="12.223" cy="1.641" rx="12.223" ry="1.641" transform="translate(1.736 0.774) rotate(-0.323)" fill="#f8fafd"/>
            <path id="Path_19318" data-name="Path 19318" d="M770.585,269.8c.005.9-5.439,1.665-12.16,1.7s-12.173-.663-12.178-1.565,5.439-1.664,12.16-1.7S770.58,268.9,770.585,269.8Z" transform="translate(-744.495 -267.523)" fill="#f7fafc"/>
            <ellipse id="Ellipse_718" data-name="Ellipse 718" cx="12.116" cy="1.627" rx="12.116" ry="1.627" transform="translate(1.75 0.788) rotate(-0.323)" fill="#f7fafc"/>
            <ellipse id="Ellipse_719" data-name="Ellipse 719" cx="12.062" cy="1.619" rx="12.062" ry="1.619" transform="translate(1.756 0.796) rotate(-0.323)" fill="#f6fafc"/>
            <path id="Path_19319" data-name="Path 19319" d="M770.337,269.86c.005.89-5.367,1.642-12,1.68s-12.012-.654-12.017-1.544,5.367-1.642,12-1.68S770.332,268.969,770.337,269.86Z" transform="translate(-744.549 -267.58)" fill="#f6f9fc"/>
            <ellipse id="Ellipse_720" data-name="Ellipse 720" cx="11.955" cy="1.605" rx="11.955" ry="1.605" transform="matrix(1, -0.006, 0.006, 1, 1.77, 0.81)" fill="#f5f9fc"/>
            <ellipse id="Ellipse_721" data-name="Ellipse 721" cx="11.901" cy="1.598" rx="11.901" ry="1.598" transform="translate(1.777 0.817) rotate(-0.323)" fill="#f5f9fc"/>
            <ellipse id="Ellipse_722" data-name="Ellipse 722" cx="11.848" cy="1.591" rx="11.848" ry="1.591" transform="translate(1.784 0.824) rotate(-0.323)" fill="#f4f9fc"/>
            <ellipse id="Ellipse_723" data-name="Ellipse 723" cx="11.794" cy="1.583" rx="11.794" ry="1.583" transform="matrix(1, -0.006, 0.006, 1, 1.791, 0.831)" fill="#f4f8fb"/>
            <ellipse id="Ellipse_724" data-name="Ellipse 724" cx="11.74" cy="1.576" rx="11.74" ry="1.576" transform="matrix(1, -0.006, 0.006, 1, 1.798, 0.838)" fill="#f3f8fb"/>
            <ellipse id="Ellipse_725" data-name="Ellipse 725" cx="11.687" cy="1.569" rx="11.687" ry="1.569" transform="translate(1.804 0.845) rotate(-0.323)" fill="#f3f8fb"/>
            <ellipse id="Ellipse_726" data-name="Ellipse 726" cx="11.633" cy="1.562" rx="11.633" ry="1.562" transform="translate(1.811 0.853) rotate(-0.323)" fill="#f2f7fb"/>
            <ellipse id="Ellipse_727" data-name="Ellipse 727" cx="11.58" cy="1.555" rx="11.58" ry="1.555" transform="matrix(1, -0.006, 0.006, 1, 1.818, 0.86)" fill="#f2f7fb"/>
            <path id="Path_19320" data-name="Path 19320" d="M769.594,270.04c0,.854-5.152,1.576-11.517,1.612s-11.53-.628-11.534-1.482,5.152-1.577,11.517-1.613S769.589,269.185,769.594,270.04Z" transform="translate(-744.708 -267.756)" fill="#f1f7fb"/>
            <ellipse id="Ellipse_728" data-name="Ellipse 728" cx="11.472" cy="1.54" rx="11.472" ry="1.54" transform="matrix(1, -0.006, 0.006, 1, 1.832, 0.874)" fill="#f1f6fa"/>
            <ellipse id="Ellipse_729" data-name="Ellipse 729" cx="11.419" cy="1.533" rx="11.419" ry="1.533" transform="translate(1.839 0.881) rotate(-0.323)" fill="#f0f6fa"/>
            <path id="Path_19321" data-name="Path 19321" d="M769.346,270.1c0,.843-5.08,1.554-11.357,1.59s-11.369-.619-11.373-1.462,5.079-1.555,11.356-1.59S769.341,269.257,769.346,270.1Z" transform="translate(-744.762 -267.814)" fill="#f0f6fa"/>
            <path id="Path_19322" data-name="Path 19322" d="M769.263,270.12c0,.839-5.056,1.547-11.3,1.582s-11.315-.616-11.32-1.455,5.056-1.547,11.3-1.582S769.258,269.282,769.263,270.12Z" transform="translate(-744.779 -267.834)" fill="#eff5fa"/>
            <path id="Path_19323" data-name="Path 19323" d="M769.18,270.14c0,.835-5.032,1.54-11.249,1.575s-11.261-.613-11.266-1.448,5.031-1.54,11.249-1.575S769.176,269.306,769.18,270.14Z" transform="translate(-744.797 -267.853)" fill="#eef5fa"/>
            <path id="Path_19324" data-name="Path 19324" d="M769.1,270.16c0,.831-5.008,1.533-11.2,1.567s-11.208-.61-11.212-1.441,5.007-1.532,11.2-1.567S769.093,269.33,769.1,270.16Z" transform="translate(-744.816 -267.873)" fill="#eef5fa"/>
            <ellipse id="Ellipse_730" data-name="Ellipse 730" cx="11.151" cy="1.497" rx="11.151" ry="1.497" transform="matrix(1, -0.006, 0.006, 1, 1.873, 0.917)" fill="#edf4f9"/>
            <path id="Path_19325" data-name="Path 19325" d="M768.933,270.2c0,.823-4.96,1.518-11.089,1.553s-11.1-.6-11.105-1.427,4.96-1.518,11.089-1.552S768.928,269.377,768.933,270.2Z" transform="translate(-744.851 -267.911)" fill="#edf4f9"/>
            <ellipse id="Ellipse_731" data-name="Ellipse 731" cx="11.043" cy="1.483" rx="11.043" ry="1.483" transform="translate(1.886 0.931) rotate(-0.323)" fill="#ecf3f9"/>
            <ellipse id="Ellipse_732" data-name="Ellipse 732" cx="10.99" cy="1.475" rx="10.99" ry="1.475" transform="matrix(1, -0.006, 0.006, 1, 1.893, 0.938)" fill="#ebf3f9"/>
            <path id="Path_19326" data-name="Path 19326" d="M768.684,270.26c0,.811-4.888,1.5-10.928,1.53s-10.94-.6-10.944-1.406,4.888-1.5,10.928-1.53S768.68,269.449,768.684,270.26Z" transform="translate(-744.904 -267.97)" fill="#ebf3f9"/>
            <path id="Path_19327" data-name="Path 19327" d="M768.6,270.28c0,.807-4.864,1.488-10.874,1.522s-10.886-.593-10.891-1.4,4.864-1.488,10.874-1.522S768.6,269.473,768.6,270.28Z" transform="translate(-744.922 -267.989)" fill="#eaf2f8"/>
            <ellipse id="Ellipse_733" data-name="Ellipse 733" cx="10.829" cy="1.454" rx="10.829" ry="1.454" transform="translate(1.914 0.96) rotate(-0.323)" fill="#eaf2f8"/>
            <ellipse id="Ellipse_734" data-name="Ellipse 734" cx="10.775" cy="1.447" rx="10.775" ry="1.447" transform="translate(1.921 0.967) rotate(-0.323)" fill="#e9f2f8"/>
            <path id="Path_19328" data-name="Path 19328" d="M768.354,270.34c0,.795-4.792,1.467-10.713,1.5s-10.725-.584-10.73-1.379,4.792-1.467,10.714-1.5S768.35,269.546,768.354,270.34Z" transform="translate(-744.975 -268.048)" fill="#e8f1f8"/>
            <path id="Path_19329" data-name="Path 19329" d="M768.271,270.361c0,.791-4.768,1.459-10.66,1.492s-10.672-.581-10.676-1.372,4.768-1.459,10.66-1.492S768.267,269.57,768.271,270.361Z" transform="translate(-744.993 -268.068)" fill="#e8f1f7"/>
            <ellipse id="Ellipse_735" data-name="Ellipse 735" cx="10.615" cy="1.425" rx="10.615" ry="1.425" transform="translate(1.941 0.988) rotate(-0.323)" fill="#e7f0f7"/>
            <ellipse id="Ellipse_736" data-name="Ellipse 736" cx="10.561" cy="1.418" rx="10.561" ry="1.418" transform="translate(1.948 0.995) rotate(-0.323)" fill="#e6f0f7"/>
            <ellipse id="Ellipse_737" data-name="Ellipse 737" cx="10.507" cy="1.411" rx="10.507" ry="1.411" transform="translate(1.955 1.002) rotate(-0.323)" fill="#e6eff7"/>
            <ellipse id="Ellipse_738" data-name="Ellipse 738" cx="10.454" cy="1.403" rx="10.454" ry="1.403" transform="translate(1.962 1.01) rotate(-0.323)" fill="#e5eff7"/>
            <ellipse id="Ellipse_739" data-name="Ellipse 739" cx="10.4" cy="1.396" rx="10.4" ry="1.396" transform="translate(1.969 1.017) rotate(-0.323)" fill="#e4eff6"/>
            <ellipse id="Ellipse_740" data-name="Ellipse 740" cx="10.347" cy="1.389" rx="10.347" ry="1.389" transform="translate(1.975 1.024) rotate(-0.323)" fill="#e4eef6"/>
            <path id="Path_19330" data-name="Path 19330" d="M767.693,270.5c0,.763-4.6,1.408-10.285,1.44s-10.3-.561-10.3-1.324,4.6-1.408,10.285-1.44S767.688,269.737,767.693,270.5Z" transform="translate(-745.117 -268.204)" fill="#e3eef6"/>
            <path id="Path_19331" data-name="Path 19331" d="M767.611,270.521c0,.759-4.577,1.4-10.232,1.432s-10.243-.558-10.247-1.317,4.577-1.4,10.231-1.432S767.606,269.761,767.611,270.521Z" transform="translate(-745.135 -268.223)" fill="#e2edf6"/>
            <ellipse id="Ellipse_741" data-name="Ellipse 741" cx="10.186" cy="1.367" rx="10.186" ry="1.367" transform="translate(1.996 1.045) rotate(-0.323)" fill="#e1edf6"/>
            <path id="Path_19332" data-name="Path 19332" d="M767.445,270.56c0,.751-4.528,1.386-10.124,1.418s-10.136-.552-10.14-1.3,4.528-1.386,10.124-1.418S767.441,269.809,767.445,270.56Z" transform="translate(-745.171 -268.262)" fill="#e1ecf5"/>
            <path id="Path_19333" data-name="Path 19333" d="M767.363,270.58c0,.747-4.5,1.379-10.071,1.41s-10.082-.549-10.086-1.3,4.5-1.378,10.071-1.41S767.358,269.833,767.363,270.58Z" transform="translate(-745.189 -268.281)" fill="#e0ecf5"/>
            <path id="Path_19334" data-name="Path 19334" d="M767.279,270.6c0,.743-4.481,1.371-10.017,1.4s-10.028-.546-10.032-1.289,4.48-1.371,10.017-1.4S767.275,269.857,767.279,270.6Z" transform="translate(-745.206 -268.301)" fill="#dfecf5"/>
            <path id="Path_19335" data-name="Path 19335" d="M767.2,270.62c0,.739-4.457,1.364-9.964,1.395s-9.974-.543-9.979-1.282,4.457-1.364,9.964-1.395S767.193,269.881,767.2,270.62Z" transform="translate(-745.224 -268.32)" fill="#dfebf5"/>
            <ellipse id="Ellipse_742" data-name="Ellipse 742" cx="9.918" cy="1.331" rx="9.918" ry="1.331" transform="translate(2.03 1.081) rotate(-0.323)" fill="#deebf4"/>
            <ellipse id="Ellipse_743" data-name="Ellipse 743" cx="9.864" cy="1.324" rx="9.864" ry="1.324" transform="translate(2.037 1.088) rotate(-0.323)" fill="#ddeaf4"/>
            <path id="Path_19336" data-name="Path 19336" d="M766.949,270.68c0,.727-4.385,1.342-9.8,1.372s-9.814-.534-9.818-1.262,4.385-1.342,9.8-1.372S766.945,269.953,766.949,270.68Z" transform="translate(-745.278 -268.379)" fill="#dceaf4"/>
            <ellipse id="Ellipse_744" data-name="Ellipse 744" cx="9.757" cy="1.31" rx="9.757" ry="1.31" transform="matrix(1, -0.006, 0.006, 1, 2.051, 1.102)" fill="#dce9f4"/>
            <ellipse id="Ellipse_745" data-name="Ellipse 745" cx="9.703" cy="1.303" rx="9.703" ry="1.303" transform="matrix(1, -0.006, 0.006, 1, 2.057, 1.109)" fill="#dbe9f3"/>
            <path id="Path_19337" data-name="Path 19337" d="M766.7,270.74c0,.716-4.313,1.32-9.642,1.35s-9.653-.526-9.657-1.241,4.313-1.32,9.642-1.35S766.7,270.025,766.7,270.74Z" transform="translate(-745.331 -268.437)" fill="#dae8f3"/>
            <path id="Path_19338" data-name="Path 19338" d="M766.619,270.76c0,.711-4.289,1.313-9.588,1.342s-9.6-.522-9.6-1.234,4.289-1.312,9.589-1.342S766.615,270.049,766.619,270.76Z" transform="translate(-745.349 -268.457)" fill="#d9e8f3"/>
            <ellipse id="Ellipse_746" data-name="Ellipse 746" cx="9.542" cy="1.281" rx="9.542" ry="1.281" transform="translate(2.078 1.131) rotate(-0.323)" fill="#d8e7f3"/>
            <ellipse id="Ellipse_747" data-name="Ellipse 747" cx="9.489" cy="1.274" rx="9.489" ry="1.274" transform="matrix(1, -0.006, 0.006, 1, 2.085, 1.138)" fill="#d8e7f2"/>
            <path id="Path_19339" data-name="Path 19339" d="M766.371,270.821c0,.7-4.217,1.29-9.428,1.32s-9.438-.514-9.442-1.213,4.217-1.291,9.428-1.32S766.367,270.121,766.371,270.821Z" transform="translate(-745.402 -268.515)" fill="#d7e6f2"/>
            <path id="Path_19340" data-name="Path 19340" d="M766.288,270.841c0,.7-4.193,1.283-9.374,1.312s-9.385-.511-9.389-1.207,4.193-1.283,9.374-1.312S766.284,270.145,766.288,270.841Z" transform="translate(-745.42 -268.535)" fill="#d6e6f2"/>
            <ellipse id="Ellipse_748" data-name="Ellipse 748" cx="9.328" cy="1.252" rx="9.328" ry="1.252" transform="translate(2.105 1.159) rotate(-0.323)" fill="#d5e5f2"/>
            <path id="Path_19341" data-name="Path 19341" d="M766.123,270.88c0,.688-4.145,1.268-9.267,1.3s-9.277-.505-9.281-1.193,4.146-1.268,9.267-1.3S766.119,270.193,766.123,270.88Z" transform="translate(-745.455 -268.573)" fill="#d4e5f1"/>
            <path id="Path_19342" data-name="Path 19342" d="M766.04,270.9c0,.683-4.121,1.261-9.214,1.29s-9.224-.5-9.228-1.186,4.121-1.261,9.214-1.29S766.036,270.216,766.04,270.9Z" transform="translate(-745.473 -268.593)" fill="#d4e4f1"/>
            <ellipse id="Ellipse_749" data-name="Ellipse 749" cx="9.167" cy="1.231" rx="9.167" ry="1.231" transform="translate(2.126 1.181) rotate(-0.323)" fill="#d3e4f1"/>
            <ellipse id="Ellipse_750" data-name="Ellipse 750" cx="9.114" cy="1.224" rx="9.114" ry="1.224" transform="translate(2.133 1.188) rotate(-0.323)" fill="#d2e3f0"/>
            <ellipse id="Ellipse_751" data-name="Ellipse 751" cx="9.06" cy="1.216" rx="9.06" ry="1.216" transform="translate(2.14 1.195) rotate(-0.323)" fill="#d1e3f0"/>
            <ellipse id="Ellipse_752" data-name="Ellipse 752" cx="9.006" cy="1.209" rx="9.006" ry="1.209" transform="translate(2.146 1.202) rotate(-0.323)" fill="#d0e2f0"/>
            <path id="Path_19343" data-name="Path 19343" d="M765.627,271c0,.664-4,1.225-8.946,1.252s-8.956-.488-8.959-1.151,4-1.225,8.946-1.252S765.623,270.337,765.627,271Z" transform="translate(-745.562 -268.69)" fill="#cfe2f0"/>
            <ellipse id="Ellipse_753" data-name="Ellipse 753" cx="8.899" cy="1.195" rx="8.899" ry="1.195" transform="translate(2.16 1.216) rotate(-0.323)" fill="#cee1ef"/>
            <path id="Path_19344" data-name="Path 19344" d="M765.462,271.04c0,.656-3.953,1.21-8.839,1.238s-8.848-.482-8.852-1.138,3.953-1.21,8.839-1.237S765.458,270.384,765.462,271.04Z" transform="translate(-745.597 -268.729)" fill="#cee1ef"/>
            <ellipse id="Ellipse_754" data-name="Ellipse 754" cx="8.792" cy="1.18" rx="8.792" ry="1.18" transform="translate(2.174 1.231) rotate(-0.323)" fill="#cde0ef"/>
            <ellipse id="Ellipse_755" data-name="Ellipse 755" cx="8.738" cy="1.173" rx="8.738" ry="1.173" transform="matrix(1, -0.006, 0.006, 1, 2.181, 1.238)" fill="#cce0ef"/>
            <ellipse id="Ellipse_756" data-name="Ellipse 756" cx="8.685" cy="1.166" rx="8.685" ry="1.166" transform="matrix(1, -0.006, 0.006, 1, 2.187, 1.245)" fill="#cbdfee"/>
            <ellipse id="Ellipse_757" data-name="Ellipse 757" cx="8.631" cy="1.159" rx="8.631" ry="1.159" transform="translate(2.194 1.252) rotate(-0.323)" fill="#cadfee"/>
            <path id="Path_19345" data-name="Path 19345" d="M765.049,271.14c0,.636-3.834,1.173-8.571,1.2s-8.58-.467-8.584-1.1,3.834-1.173,8.571-1.2S765.045,270.5,765.049,271.14Z" transform="translate(-745.686 -268.826)" fill="#c9deee"/>
            <path id="Path_19346" data-name="Path 19346" d="M764.966,271.161c0,.632-3.81,1.166-8.517,1.192s-8.527-.464-8.53-1.1,3.81-1.166,8.517-1.192S764.963,270.528,764.966,271.161Z" transform="translate(-745.705 -268.846)" fill="#c8deed"/>
            <ellipse id="Ellipse_758" data-name="Ellipse 758" cx="8.47" cy="1.137" rx="8.47" ry="1.137" transform="translate(2.215 1.273) rotate(-0.323)" fill="#c7dded"/>
            <ellipse id="Ellipse_759" data-name="Ellipse 759" cx="8.417" cy="1.13" rx="8.417" ry="1.13" transform="translate(2.222 1.281) rotate(-0.323)" fill="#c6dced"/>
            <path id="Path_19347" data-name="Path 19347" d="M764.718,271.22c0,.62-3.738,1.144-8.356,1.17s-8.366-.456-8.369-1.076,3.738-1.144,8.357-1.17S764.714,270.6,764.718,271.22Z" transform="translate(-745.757 -268.904)" fill="#c6dced"/>
            <path id="Path_19348" data-name="Path 19348" d="M764.636,271.24c0,.616-3.714,1.136-8.3,1.162s-8.312-.453-8.316-1.069,3.714-1.137,8.3-1.163S764.632,270.624,764.636,271.24Z" transform="translate(-745.776 -268.924)" fill="#c5dbec"/>
            <ellipse id="Ellipse_760" data-name="Ellipse 760" cx="8.256" cy="1.108" rx="8.256" ry="1.108" transform="translate(2.242 1.302) rotate(-0.323)" fill="#c4dbec"/>
            <path id="Path_19349" data-name="Path 19349" d="M764.47,271.28c0,.608-3.666,1.122-8.2,1.147s-8.2-.447-8.208-1.055,3.666-1.122,8.2-1.147S764.466,270.672,764.47,271.28Z" transform="translate(-745.811 -268.963)" fill="#c3daec"/>
            <path id="Path_19350" data-name="Path 19350" d="M764.388,271.3c0,.6-3.642,1.114-8.142,1.14s-8.151-.444-8.154-1.048,3.642-1.114,8.142-1.14S764.384,270.7,764.388,271.3Z" transform="translate(-745.829 -268.982)" fill="#c2daeb"/>
            <ellipse id="Ellipse_761" data-name="Ellipse 761" cx="8.095" cy="1.087" rx="8.095" ry="1.087" transform="matrix(1, -0.006, 0.006, 1, 2.263, 1.323)" fill="#c1d9eb"/>
            <ellipse id="Ellipse_762" data-name="Ellipse 762" cx="8.041" cy="1.08" rx="8.041" ry="1.08" transform="matrix(1, -0.006, 0.006, 1, 2.269, 1.331)" fill="#c0d8eb"/>
            <path id="Path_19351" data-name="Path 19351" d="M764.14,271.361c0,.592-3.57,1.092-7.982,1.117s-7.99-.435-7.994-1.027,3.57-1.092,7.982-1.117S764.136,270.768,764.14,271.361Z" transform="translate(-745.882 -269.041)" fill="#bfd8ea"/>
            <ellipse id="Ellipse_763" data-name="Ellipse 763" cx="7.934" cy="1.065" rx="7.934" ry="1.065" transform="translate(2.283 1.345) rotate(-0.323)" fill="#bed7ea"/>
            <path id="Path_19352" data-name="Path 19352" d="M763.975,271.4c0,.584-3.522,1.078-7.874,1.1s-7.883-.429-7.886-1.013,3.522-1.078,7.874-1.1S763.972,270.816,763.975,271.4Z" transform="translate(-745.918 -269.079)" fill="#bdd7ea"/>
            <ellipse id="Ellipse_764" data-name="Ellipse 764" cx="7.827" cy="1.051" rx="7.827" ry="1.051" transform="matrix(1, -0.006, 0.006, 1, 2.297, 1.359)" fill="#bcd6e9"/>
            <path id="Path_19353" data-name="Path 19353" d="M763.809,271.44c0,.576-3.474,1.063-7.767,1.088s-7.776-.423-7.779-1,3.474-1.063,7.767-1.087S763.806,270.864,763.809,271.44Z" transform="translate(-745.954 -269.118)" fill="#bbd5e9"/>
            <path id="Path_19354" data-name="Path 19354" d="M763.726,271.46c0,.573-3.45,1.056-7.714,1.08s-7.722-.42-7.725-.993,3.45-1.056,7.714-1.08S763.723,270.888,763.726,271.46Z" transform="translate(-745.971 -269.138)" fill="#bad5e9"/>
            <ellipse id="Ellipse_765" data-name="Ellipse 765" cx="7.666" cy="1.029" rx="7.666" ry="1.029" transform="translate(2.317 1.38) rotate(-0.323)" fill="#b9d4e9"/>
            <ellipse id="Ellipse_766" data-name="Ellipse 766" cx="7.612" cy="1.022" rx="7.612" ry="1.022" transform="translate(2.324 1.388) rotate(-0.323)" fill="#b8d4e8"/>
            <path id="Path_19355" data-name="Path 19355" d="M763.479,271.521c0,.56-3.378,1.034-7.553,1.057s-7.561-.412-7.564-.972,3.378-1.034,7.553-1.057S763.475,270.96,763.479,271.521Z" transform="translate(-746.024 -269.196)" fill="#b7d3e8"/>
            <path id="Path_19356" data-name="Path 19356" d="M763.4,271.54c0,.557-3.354,1.026-7.5,1.05s-7.508-.409-7.511-.965,3.354-1.027,7.5-1.05S763.393,270.983,763.4,271.54Z" transform="translate(-746.042 -269.215)" fill="#b6d2e8"/>
            <ellipse id="Ellipse_767" data-name="Ellipse 767" cx="7.452" cy="1" rx="7.452" ry="1" transform="matrix(1, -0.006, 0.006, 1, 2.345, 1.409)" fill="#b5d2e7"/>
            <path id="Path_19357" data-name="Path 19357" d="M763.231,271.58c0,.548-3.307,1.012-7.392,1.035s-7.4-.4-7.4-.951,3.306-1.012,7.392-1.035S763.228,271.032,763.231,271.58Z" transform="translate(-746.078 -269.254)" fill="#b4d1e7"/>
            <ellipse id="Ellipse_768" data-name="Ellipse 768" cx="7.344" cy="0.986" rx="7.344" ry="0.986" transform="translate(2.358 1.423) rotate(-0.323)" fill="#b3d1e7"/>
            <path id="Path_19358" data-name="Path 19358" d="M763.065,271.62c0,.54-3.259,1-7.285,1.02s-7.293-.4-7.3-.938,3.259-1,7.285-1.02S763.063,271.08,763.065,271.62Z" transform="translate(-746.114 -269.293)" fill="#b2d0e6"/>
            <path id="Path_19359" data-name="Path 19359" d="M762.982,271.64c0,.537-3.235.99-7.232,1.012s-7.24-.394-7.243-.931,3.235-.99,7.232-1.012S762.979,271.1,762.982,271.64Z" transform="translate(-746.131 -269.313)" fill="#b1cfe6"/>
            <path id="Path_19360" data-name="Path 19360" d="M762.9,271.661c0,.533-3.211.982-7.178,1s-7.186-.391-7.189-.924,3.211-.982,7.178-1S762.9,271.128,762.9,271.661Z" transform="translate(-746.149 -269.333)" fill="#b0cfe6"/>
            <path id="Path_19361" data-name="Path 19361" d="M762.818,271.681c0,.529-3.187.975-7.125,1s-7.132-.388-7.135-.917,3.187-.975,7.124-1S762.815,271.152,762.818,271.681Z" transform="translate(-746.167 -269.352)" fill="#afcee5"/>
            <path id="Path_19362" data-name="Path 19362" d="M762.735,271.7c0,.525-3.163.968-7.071.99s-7.079-.386-7.082-.91,3.163-.968,7.071-.99S762.732,271.176,762.735,271.7Z" transform="translate(-746.184 -269.372)" fill="#aecde5"/>
            <path id="Path_19363" data-name="Path 19363" d="M762.652,271.72c0,.521-3.139.96-7.017.982s-7.025-.383-7.028-.9,3.139-.961,7.017-.982S762.649,271.2,762.652,271.72Z" transform="translate(-746.202 -269.39)" fill="#adcde5"/>
            <ellipse id="Ellipse_769" data-name="Ellipse 769" cx="6.969" cy="0.936" rx="6.969" ry="0.936" transform="matrix(1, -0.006, 0.006, 1, 2.406, 1.473)" fill="#accce4"/>
            <path id="Path_19364" data-name="Path 19364" d="M762.487,271.76c0,.513-3.091.946-6.91.967s-6.918-.376-6.921-.889,3.091-.946,6.91-.967S762.484,271.248,762.487,271.76Z" transform="translate(-746.238 -269.43)" fill="#abcce4"/>
            <path id="Path_19365" data-name="Path 19365" d="M762.4,271.78c0,.509-3.067.939-6.857.96s-6.864-.374-6.867-.882,3.067-.939,6.856-.96S762.4,271.272,762.4,271.78Z" transform="translate(-746.256 -269.449)" fill="#aacbe4"/>
            <path id="Path_19366" data-name="Path 19366" d="M762.322,271.8c0,.5-3.043.931-6.8.952s-6.811-.371-6.813-.876,3.043-.931,6.8-.952S762.319,271.3,762.322,271.8Z" transform="translate(-746.273 -269.469)" fill="#a9cae3"/>
            <ellipse id="Ellipse_770" data-name="Ellipse 770" cx="6.755" cy="0.907" rx="6.755" ry="0.907" transform="translate(2.434 1.502) rotate(-0.323)" fill="#a8cae3"/>
            <path id="Path_19367" data-name="Path 19367" d="M762.156,271.84c0,.5-3,.917-6.7.938s-6.7-.365-6.706-.862,3-.917,6.7-.937S762.153,271.344,762.156,271.84Z" transform="translate(-746.309 -269.508)" fill="#a7c9e3"/>
            <path id="Path_19368" data-name="Path 19368" d="M762.074,271.861c0,.493-2.971.909-6.642.93s-6.65-.362-6.653-.855,2.971-.909,6.642-.93S762.071,271.368,762.074,271.861Z" transform="translate(-746.327 -269.527)" fill="#a6c8e2"/>
            <path id="Path_19369" data-name="Path 19369" d="M761.991,271.88c0,.489-2.947.9-6.589.922s-6.6-.359-6.6-.848,2.947-.9,6.589-.922S761.988,271.391,761.991,271.88Z" transform="translate(-746.344 -269.546)" fill="#a4c8e2"/>
            <path id="Path_19370" data-name="Path 19370" d="M761.908,271.9c0,.485-2.923.894-6.535.915s-6.542-.356-6.545-.841,2.923-.895,6.535-.915S761.906,271.415,761.908,271.9Z" transform="translate(-746.362 -269.566)" fill="#a3c7e2"/>
            <path id="Path_19371" data-name="Path 19371" d="M761.826,271.92c0,.481-2.9.887-6.481.908s-6.489-.353-6.491-.834,2.9-.887,6.481-.908S761.823,271.439,761.826,271.92Z" transform="translate(-746.38 -269.585)" fill="#a2c6e1"/>
            <path id="Path_19372" data-name="Path 19372" d="M761.743,271.94c0,.477-2.875.88-6.428.9s-6.435-.35-6.438-.827,2.875-.88,6.428-.9S761.741,271.464,761.743,271.94Z" transform="translate(-746.398 -269.605)" fill="#a1c6e1"/>
            <ellipse id="Ellipse_771" data-name="Ellipse 771" cx="6.379" cy="0.856" rx="6.379" ry="0.856" transform="translate(2.481 1.552) rotate(-0.323)" fill="#a0c5e0"/>
            <path id="Path_19373" data-name="Path 19373" d="M761.578,271.98c0,.469-2.827.865-6.321.885s-6.328-.345-6.331-.814,2.828-.865,6.321-.885S761.575,271.511,761.578,271.98Z" transform="translate(-746.433 -269.644)" fill="#9fc4e0"/>
            <path id="Path_19374" data-name="Path 19374" d="M761.5,272c0,.465-2.8.858-6.268.877s-6.274-.342-6.277-.807,2.8-.858,6.267-.877S761.493,271.536,761.5,272Z" transform="translate(-746.451 -269.663)" fill="#9ec4e0"/>
            <path id="Path_19375" data-name="Path 19375" d="M761.412,272.021c0,.461-2.779.851-6.214.87s-6.221-.339-6.223-.8,2.779-.851,6.214-.87S761.41,271.56,761.412,272.021Z" transform="translate(-746.469 -269.683)" fill="#9dc3df"/>
            <path id="Path_19376" data-name="Path 19376" d="M761.33,272.04c0,.457-2.755.843-6.16.862S749,272.567,749,272.11s2.756-.843,6.16-.862S761.328,271.583,761.33,272.04Z" transform="translate(-746.487 -269.702)" fill="#9cc2df"/>
            <ellipse id="Ellipse_772" data-name="Ellipse 772" cx="6.111" cy="0.82" rx="6.111" ry="0.82" transform="translate(2.516 1.587) rotate(-0.323)" fill="#9ac2df"/>
            <path id="Path_19377" data-name="Path 19377" d="M761.165,272.08c0,.449-2.708.828-6.053.848s-6.06-.33-6.062-.779,2.708-.829,6.053-.847S761.162,271.631,761.165,272.08Z" transform="translate(-746.522 -269.741)" fill="#99c1de"/>
            <path id="Path_19378" data-name="Path 19378" d="M761.082,272.1c0,.445-2.684.821-6,.84s-6.006-.327-6.009-.772,2.683-.821,6-.84S761.08,271.655,761.082,272.1Z" transform="translate(-746.54 -269.76)" fill="#98c0de"/>
            <path id="Path_19379" data-name="Path 19379" d="M761,272.121c0,.441-2.66.814-5.946.832s-5.953-.324-5.955-.765,2.66-.814,5.946-.833S761,271.679,761,272.121Z" transform="translate(-746.557 -269.78)" fill="#97bfde"/>
            <ellipse id="Ellipse_773" data-name="Ellipse 773" cx="5.897" cy="0.792" rx="5.897" ry="0.792" transform="translate(2.543 1.616) rotate(-0.323)" fill="#96bfdd"/>
            <path id="Path_19380" data-name="Path 19380" d="M760.835,272.161c0,.433-2.612.8-5.839.817s-5.845-.318-5.848-.752,2.612-.8,5.839-.817S760.832,271.727,760.835,272.161Z" transform="translate(-746.594 -269.819)" fill="#95bedd"/>
            <path id="Path_19381" data-name="Path 19381" d="M760.752,272.181c0,.429-2.588.792-5.785.81s-5.792-.315-5.794-.745,2.588-.792,5.785-.81S760.749,271.751,760.752,272.181Z" transform="translate(-746.611 -269.839)" fill="#94bddc"/>
            <path id="Path_19382" data-name="Path 19382" d="M760.669,272.2c0,.425-2.564.784-5.732.8s-5.738-.313-5.74-.738,2.564-.785,5.732-.8S760.667,271.775,760.669,272.2Z" transform="translate(-746.629 -269.858)" fill="#92bddc"/>
            <path id="Path_19383" data-name="Path 19383" d="M760.586,272.22c0,.421-2.54.777-5.678.795s-5.684-.31-5.687-.731,2.54-.777,5.678-.795S760.584,271.8,760.586,272.22Z" transform="translate(-746.647 -269.877)" fill="#91bcdc"/>
            <path id="Path_19384" data-name="Path 19384" d="M760.5,272.24c0,.417-2.516.77-5.625.787s-5.631-.306-5.633-.724,2.516-.77,5.625-.787S760.5,271.823,760.5,272.24Z" transform="translate(-746.664 -269.897)" fill="#90bbdb"/>
            <path id="Path_19385" data-name="Path 19385" d="M760.422,272.26c0,.413-2.492.763-5.571.78s-5.577-.3-5.579-.717,2.492-.763,5.571-.78S760.419,271.847,760.422,272.26Z" transform="translate(-746.683 -269.916)" fill="#8fbadb"/>
            <path id="Path_19386" data-name="Path 19386" d="M760.339,272.28c0,.41-2.468.755-5.518.772s-5.524-.3-5.526-.71,2.468-.755,5.518-.772S760.336,271.871,760.339,272.28Z" transform="translate(-746.7 -269.936)" fill="#8ebadb"/>
            <path id="Path_19387" data-name="Path 19387" d="M760.256,272.3c0,.405-2.444.748-5.464.765s-5.47-.3-5.472-.7,2.444-.748,5.464-.765S760.254,271.9,760.256,272.3Z" transform="translate(-746.718 -269.955)" fill="#8db9da"/>
            <path id="Path_19388" data-name="Path 19388" d="M760.173,272.321c0,.4-2.42.741-5.41.758s-5.416-.295-5.419-.7,2.42-.74,5.41-.757S760.171,271.919,760.173,272.321Z" transform="translate(-746.735 -269.975)" fill="#8bb8da"/>
            <path id="Path_19389" data-name="Path 19389" d="M760.09,272.341c0,.4-2.4.733-5.357.75s-5.363-.292-5.365-.69,2.4-.733,5.356-.75S760.088,271.943,760.09,272.341Z" transform="translate(-746.753 -269.994)" fill="#8ab8d9"/>
            <ellipse id="Ellipse_774" data-name="Ellipse 774" cx="5.307" cy="0.713" rx="5.307" ry="0.713" transform="translate(2.618 1.694) rotate(-0.323)" fill="#89b7d9"/>
            <path id="Path_19390" data-name="Path 19390" d="M759.925,272.38c0,.39-2.348.719-5.25.735s-5.255-.286-5.258-.675,2.348-.719,5.25-.735S759.923,271.991,759.925,272.38Z" transform="translate(-746.789 -270.033)" fill="#88b6d9"/>
            <ellipse id="Ellipse_775" data-name="Ellipse 775" cx="5.2" cy="0.698" rx="5.2" ry="0.698" transform="translate(2.632 1.709) rotate(-0.323)" fill="#87b5d8"/>
            <path id="Path_19391" data-name="Path 19391" d="M759.76,272.42c0,.382-2.3.7-5.142.72s-5.148-.28-5.15-.662,2.3-.7,5.142-.72S759.758,272.039,759.76,272.42Z" transform="translate(-746.825 -270.072)" fill="#85b5d8"/>
            <path id="Path_19392" data-name="Path 19392" d="M759.677,272.44c0,.378-2.276.7-5.089.713s-5.095-.277-5.1-.655,2.276-.7,5.089-.712S759.675,272.063,759.677,272.44Z" transform="translate(-746.843 -270.091)" fill="#84b4d8"/>
            <path id="Path_19393" data-name="Path 19393" d="M759.594,272.46c0,.374-2.252.689-5.035.705s-5.041-.275-5.043-.648,2.252-.689,5.035-.705S759.592,272.087,759.594,272.46Z" transform="translate(-746.86 -270.111)" fill="#83b3d7"/>
            <path id="Path_19394" data-name="Path 19394" d="M759.512,272.481c0,.37-2.228.682-4.982.7s-4.987-.272-4.989-.641,2.228-.682,4.982-.7S759.51,272.111,759.512,272.481Z" transform="translate(-746.878 -270.13)" fill="#82b2d7"/>
            <path id="Path_19395" data-name="Path 19395" d="M759.429,272.5c0,.366-2.2.675-4.928.69s-4.934-.269-4.936-.634,2.2-.675,4.928-.69S759.427,272.135,759.429,272.5Z" transform="translate(-746.895 -270.15)" fill="#81b2d6"/>
            <path id="Path_19396" data-name="Path 19396" d="M759.347,272.521c0,.362-2.18.667-4.875.682s-4.88-.265-4.882-.627,2.18-.667,4.875-.682S759.345,272.159,759.347,272.521Z" transform="translate(-746.913 -270.17)" fill="#7fb1d6"/>
            <path id="Path_19397" data-name="Path 19397" d="M759.264,272.541c0,.358-2.156.66-4.821.675s-4.826-.263-4.828-.62,2.156-.66,4.821-.675S759.263,272.183,759.264,272.541Z" transform="translate(-746.932 -270.189)" fill="#7eb0d6"/>
            <path id="Path_19398" data-name="Path 19398" d="M759.181,272.56c0,.354-2.132.652-4.767.667s-4.773-.26-4.775-.614,2.132-.652,4.768-.667S759.179,272.207,759.181,272.56Z" transform="translate(-746.949 -270.208)" fill="#7dafd5"/>
            <path id="Path_19399" data-name="Path 19399" d="M759.1,272.58c0,.35-2.109.645-4.714.66s-4.719-.257-4.721-.607,2.109-.645,4.714-.66S759.1,272.23,759.1,272.58Z" transform="translate(-746.967 -270.228)" fill="#7cafd5"/>
            <path id="Path_19400" data-name="Path 19400" d="M759.016,272.6c0,.346-2.085.638-4.66.652s-4.666-.254-4.668-.6,2.085-.638,4.66-.652S759.014,272.255,759.016,272.6Z" transform="translate(-746.984 -270.247)" fill="#7aaed4"/>
            <ellipse id="Ellipse_776" data-name="Ellipse 776" cx="4.61" cy="0.619" rx="4.61" ry="0.619" transform="translate(2.707 1.787) rotate(-0.323)" fill="#79add4"/>
            <path id="Path_19401" data-name="Path 19401" d="M758.851,272.641c0,.338-2.037.623-4.553.637s-4.558-.248-4.56-.586,2.037-.623,4.553-.638S758.849,272.3,758.851,272.641Z" transform="translate(-747.02 -270.286)" fill="#78acd4"/>
            <path id="Path_19402" data-name="Path 19402" d="M758.768,272.661c0,.334-2.013.616-4.5.63s-4.5-.245-4.507-.579,2.013-.616,4.5-.63S758.766,272.327,758.768,272.661Z" transform="translate(-747.038 -270.306)" fill="#77acd3"/>
            <ellipse id="Ellipse_777" data-name="Ellipse 777" cx="4.45" cy="0.597" rx="4.45" ry="0.597" transform="translate(2.728 1.808) rotate(-0.323)" fill="#75abd3"/>
            <path id="Path_19403" data-name="Path 19403" d="M758.6,272.7c0,.326-1.965.6-4.393.615s-4.4-.239-4.4-.565,1.965-.6,4.393-.615S758.6,272.375,758.6,272.7Z" transform="translate(-747.073 -270.345)" fill="#74aad2"/>
            <path id="Path_19404" data-name="Path 19404" d="M758.521,272.72c0,.322-1.941.594-4.339.608s-4.344-.237-4.346-.558,1.941-.594,4.339-.608S758.519,272.4,758.521,272.72Z" transform="translate(-747.091 -270.364)" fill="#73a9d2"/>
            <path id="Path_19405" data-name="Path 19405" d="M758.438,272.74c0,.318-1.917.587-4.286.6s-4.29-.233-4.292-.552,1.917-.586,4.286-.6S758.436,272.422,758.438,272.74Z" transform="translate(-747.109 -270.383)" fill="#72a8d2"/>
            <path id="Path_19406" data-name="Path 19406" d="M758.355,272.76c0,.314-1.893.579-4.232.592s-4.237-.231-4.238-.545,1.893-.579,4.232-.592S758.354,272.446,758.355,272.76Z" transform="translate(-747.127 -270.403)" fill="#70a8d1"/>
            <path id="Path_19407" data-name="Path 19407" d="M758.273,272.78c0,.31-1.869.572-4.178.585s-4.183-.228-4.184-.538,1.869-.572,4.178-.585S758.271,272.47,758.273,272.78Z" transform="translate(-747.145 -270.422)" fill="#6fa7d1"/>
            <ellipse id="Ellipse_778" data-name="Ellipse 778" cx="4.128" cy="0.554" rx="4.128" ry="0.554" transform="translate(2.769 1.851) rotate(-0.323)" fill="#6ea6d0"/>
            <path id="Path_19408" data-name="Path 19408" d="M758.107,272.821c0,.3-1.821.557-4.071.57s-4.076-.222-4.078-.524,1.821-.557,4.071-.57S758.106,272.519,758.107,272.821Z" transform="translate(-747.18 -270.461)" fill="#6ca5d0"/>
            <path id="Path_19409" data-name="Path 19409" d="M758.024,272.841c0,.3-1.8.55-4.018.563s-4.022-.219-4.024-.517,1.8-.55,4.018-.562S758.023,272.543,758.024,272.841Z" transform="translate(-747.198 -270.481)" fill="#6ba5cf"/>
            <path id="Path_19410" data-name="Path 19410" d="M757.942,272.861c0,.294-1.773.543-3.964.555s-3.968-.216-3.97-.51,1.773-.543,3.964-.555S757.94,272.567,757.942,272.861Z" transform="translate(-747.216 -270.5)" fill="#6aa4cf"/>
            <path id="Path_19411" data-name="Path 19411" d="M757.859,272.88c0,.29-1.749.535-3.91.547s-3.915-.213-3.917-.5,1.749-.535,3.911-.548S757.857,272.59,757.859,272.88Z" transform="translate(-747.233 -270.519)" fill="#68a3cf"/>
            <path id="Path_19412" data-name="Path 19412" d="M757.777,272.9c0,.286-1.725.528-3.857.54s-3.861-.21-3.863-.5,1.725-.528,3.857-.54S757.775,272.614,757.777,272.9Z" transform="translate(-747.251 -270.539)" fill="#67a2ce"/>
            <path id="Path_19413" data-name="Path 19413" d="M757.694,272.92c0,.282-1.7.521-3.8.532s-3.808-.207-3.809-.49,1.7-.521,3.8-.532S757.693,272.638,757.694,272.92Z" transform="translate(-747.269 -270.558)" fill="#66a1ce"/>
            <path id="Path_19414" data-name="Path 19414" d="M757.611,272.94c0,.278-1.677.513-3.75.525s-3.754-.2-3.755-.483,1.677-.513,3.75-.525S757.61,272.662,757.611,272.94Z" transform="translate(-747.287 -270.578)" fill="#65a1cd"/>
            <path id="Path_19415" data-name="Path 19415" d="M757.529,272.961c0,.274-1.653.506-3.7.518s-3.7-.2-3.7-.476,1.653-.506,3.7-.517S757.527,272.686,757.529,272.961Z" transform="translate(-747.305 -270.598)" fill="#63a0cd"/>
            <path id="Path_19416" data-name="Path 19416" d="M757.446,272.981c0,.27-1.63.5-3.643.51s-3.647-.2-3.648-.469,1.63-.5,3.643-.51S757.444,272.711,757.446,272.981Z" transform="translate(-747.322 -270.617)" fill="#629fcc"/>
            <path id="Path_19417" data-name="Path 19417" d="M757.363,273c0,.266-1.605.491-3.589.5s-3.593-.2-3.594-.462,1.605-.491,3.589-.5S757.362,272.734,757.363,273Z" transform="translate(-747.34 -270.636)" fill="#619ecc"/>
            <ellipse id="Ellipse_779" data-name="Ellipse 779" cx="3.538" cy="0.475" rx="3.538" ry="0.475" transform="translate(2.844 1.93) rotate(-0.323)" fill="#5f9dcc"/>
            <path id="Path_19418" data-name="Path 19418" d="M757.2,273.041c0,.258-1.558.477-3.482.487s-3.486-.19-3.487-.448,1.558-.477,3.482-.487S757.2,272.783,757.2,273.041Z" transform="translate(-747.376 -270.676)" fill="#5e9ccb"/>
            <path id="Path_19419" data-name="Path 19419" d="M757.116,273.06c0,.254-1.534.469-3.428.48s-3.432-.187-3.434-.441,1.534-.469,3.428-.48S757.115,272.806,757.116,273.06Z" transform="translate(-747.394 -270.694)" fill="#5d9ccb"/>
            <path id="Path_19420" data-name="Path 19420" d="M757.033,273.08c0,.25-1.51.462-3.375.472s-3.379-.184-3.38-.435,1.51-.462,3.375-.472S757.032,272.83,757.033,273.08Z" transform="translate(-747.411 -270.714)" fill="#5b9bca"/>
            <path id="Path_19421" data-name="Path 19421" d="M756.951,273.1c0,.246-1.486.454-3.322.465s-3.325-.181-3.326-.428,1.486-.454,3.321-.465S756.949,272.854,756.951,273.1Z" transform="translate(-747.429 -270.734)" fill="#5a9aca"/>
            <path id="Path_19422" data-name="Path 19422" d="M756.868,273.121c0,.242-1.462.447-3.268.457s-3.271-.178-3.273-.42,1.462-.447,3.268-.457S756.866,272.878,756.868,273.121Z" transform="translate(-747.447 -270.753)" fill="#5899c9"/>
            <path id="Path_19423" data-name="Path 19423" d="M756.785,273.141c0,.238-1.438.44-3.214.45s-3.218-.175-3.219-.414,1.438-.44,3.214-.45S756.784,272.9,756.785,273.141Z" transform="translate(-747.464 -270.773)" fill="#5798c9"/>
            <ellipse id="Ellipse_780" data-name="Ellipse 780" cx="3.163" cy="0.425" rx="3.163" ry="0.425" transform="translate(2.892 1.98) rotate(-0.323)" fill="#5697c9"/>
            <path id="Path_19424" data-name="Path 19424" d="M756.62,273.181c0,.231-1.39.425-3.107.435s-3.11-.169-3.112-.4,1.39-.425,3.107-.435S756.618,272.95,756.62,273.181Z" transform="translate(-747.5 -270.812)" fill="#5497c8"/>
            <path id="Path_19425" data-name="Path 19425" d="M756.537,273.2c0,.227-1.365.418-3.053.428s-3.057-.167-3.058-.393,1.366-.418,3.053-.427S756.536,272.974,756.537,273.2Z" transform="translate(-747.518 -270.831)" fill="#5396c8"/>
            <path id="Path_19426" data-name="Path 19426" d="M756.454,273.22c0,.223-1.342.411-3,.42s-3-.164-3-.386,1.342-.411,3-.42S756.453,273,756.454,273.22Z" transform="translate(-747.536 -270.85)" fill="#5295c7"/>
            <path id="Path_19427" data-name="Path 19427" d="M756.372,273.24c0,.219-1.318.4-2.946.412s-2.95-.16-2.951-.379,1.318-.4,2.946-.413S756.371,273.022,756.372,273.24Z" transform="translate(-747.554 -270.87)" fill="#5094c7"/>
            <path id="Path_19428" data-name="Path 19428" d="M756.289,273.26c0,.215-1.294.4-2.893.4s-2.9-.158-2.9-.372,1.294-.4,2.893-.4S756.288,273.046,756.289,273.26Z" transform="translate(-747.571 -270.889)" fill="#4f93c6"/>
            <path id="Path_19429" data-name="Path 19429" d="M756.206,273.28c0,.211-1.27.389-2.839.4s-2.842-.155-2.844-.365,1.27-.389,2.839-.4S756.205,273.07,756.206,273.28Z" transform="translate(-747.589 -270.909)" fill="#4e92c6"/>
            <path id="Path_19430" data-name="Path 19430" d="M756.124,273.3c0,.207-1.246.381-2.785.39s-2.789-.152-2.79-.358,1.246-.381,2.785-.39S756.123,273.094,756.124,273.3Z" transform="translate(-747.607 -270.928)" fill="#4c92c5"/>
            <path id="Path_19431" data-name="Path 19431" d="M756.041,273.321c0,.2-1.222.374-2.732.383s-2.735-.149-2.736-.352,1.222-.374,2.732-.383S756.04,273.118,756.041,273.321Z" transform="translate(-747.625 -270.948)" fill="#4b91c5"/>
            <path id="Path_19432" data-name="Path 19432" d="M755.959,273.341c0,.2-1.2.367-2.678.375s-2.681-.146-2.682-.345,1.2-.367,2.678-.375S755.958,273.142,755.959,273.341Z" transform="translate(-747.643 -270.968)" fill="#4990c5"/>
            <path id="Path_19433" data-name="Path 19433" d="M755.876,273.361c0,.195-1.174.359-2.625.368s-2.628-.143-2.629-.338,1.174-.359,2.625-.367S755.875,273.166,755.876,273.361Z" transform="translate(-747.66 -270.987)" fill="#488fc4"/>
            <ellipse id="Ellipse_781" data-name="Ellipse 781" cx="2.573" cy="0.345" rx="2.573" ry="0.345" transform="matrix(1, -0.006, 0.006, 1, 2.967, 2.058)" fill="#478ec4"/>
            <path id="Path_19434" data-name="Path 19434" d="M755.711,273.4c0,.187-1.126.345-2.518.352s-2.521-.137-2.521-.324,1.126-.345,2.518-.353S755.71,273.213,755.711,273.4Z" transform="translate(-747.696 -271.025)" fill="#458dc3"/>
            <path id="Path_19435" data-name="Path 19435" d="M755.628,273.421c0,.183-1.1.337-2.464.345s-2.467-.134-2.468-.317,1.1-.337,2.464-.345S755.627,273.238,755.628,273.421Z" transform="translate(-747.713 -271.045)" fill="#448cc3"/>
            <path id="Path_19436" data-name="Path 19436" d="M755.546,273.441c0,.179-1.078.33-2.411.337s-2.413-.131-2.414-.31,1.078-.33,2.411-.337S755.545,273.262,755.546,273.441Z" transform="translate(-747.732 -271.064)" fill="#428cc2"/>
            <path id="Path_19437" data-name="Path 19437" d="M755.463,273.461c0,.175-1.054.322-2.357.33s-2.36-.129-2.361-.3,1.054-.323,2.357-.33S755.462,273.286,755.463,273.461Z" transform="translate(-747.749 -271.084)" fill="#418bc2"/>
            <path id="Path_19438" data-name="Path 19438" d="M755.38,273.481c0,.171-1.03.315-2.3.323s-2.306-.126-2.307-.3,1.03-.315,2.3-.323S755.379,273.31,755.38,273.481Z" transform="translate(-747.767 -271.104)" fill="#3f8ac1"/>
            <path id="Path_19439" data-name="Path 19439" d="M755.3,273.5c0,.167-1.006.308-2.25.315s-2.252-.123-2.253-.289,1.006-.308,2.25-.315S755.3,273.334,755.3,273.5Z" transform="translate(-747.784 -271.123)" fill="#3e89c1"/>
            <path id="Path_19440" data-name="Path 19440" d="M755.215,273.521c0,.163-.982.3-2.2.307s-2.2-.12-2.2-.283.983-.3,2.2-.307S755.214,273.358,755.215,273.521Z" transform="translate(-747.802 -271.143)" fill="#3d88c0"/>
            <path id="Path_19441" data-name="Path 19441" d="M755.133,273.541c0,.159-.958.293-2.143.3s-2.145-.117-2.146-.276.958-.293,2.143-.3S755.132,273.382,755.133,273.541Z" transform="translate(-747.82 -271.162)" fill="#3b87c0"/>
            <ellipse id="Ellipse_782" data-name="Ellipse 782" cx="2.091" cy="0.281" rx="2.091" ry="0.281" transform="matrix(1, -0.006, 0.006, 1, 3.029, 2.122)" fill="#3a86c0"/>
            <path id="Path_19442" data-name="Path 19442" d="M754.967,273.58c0,.151-.911.279-2.036.285s-2.038-.111-2.039-.262.911-.279,2.036-.285S754.966,273.429,754.967,273.58Z" transform="translate(-747.856 -271.201)" fill="#3885bf"/>
            <ellipse id="Ellipse_783" data-name="Ellipse 783" cx="1.984" cy="0.266" rx="1.984" ry="0.266" transform="matrix(1, -0.006, 0.006, 1, 3.042, 2.136)" fill="#3784bf"/>
            <ellipse id="Ellipse_784" data-name="Ellipse 784" cx="1.93" cy="0.259" rx="1.93" ry="0.259" transform="translate(3.049 2.144) rotate(-0.323)" fill="#3584be"/>
            <path id="Path_19443" data-name="Path 19443" d="M754.719,273.641c0,.139-.838.257-1.875.263s-1.877-.1-1.877-.241.838-.257,1.875-.262S754.719,273.5,754.719,273.641Z" transform="translate(-747.91 -271.259)" fill="#3483be"/>
            <path id="Path_19444" data-name="Path 19444" d="M754.636,273.661c0,.135-.815.25-1.821.255s-1.823-.1-1.824-.234.814-.249,1.822-.255S754.636,273.526,754.636,273.661Z" transform="translate(-747.927 -271.279)" fill="#3282bd"/>
            <path id="Path_19445" data-name="Path 19445" d="M754.554,273.681c0,.131-.791.242-1.768.248s-1.77-.1-1.77-.228.791-.242,1.768-.247S754.553,273.55,754.554,273.681Z" transform="translate(-747.945 -271.298)" fill="#3181bd"/>
            <path id="Path_19446" data-name="Path 19446" d="M754.471,273.7c0,.127-.767.235-1.714.24s-1.716-.093-1.717-.221.767-.234,1.714-.24S754.47,273.574,754.471,273.7Z" transform="translate(-747.962 -271.318)" fill="#2f80bc"/>
            <path id="Path_19447" data-name="Path 19447" d="M754.389,273.72c0,.123-.743.227-1.661.233s-1.662-.091-1.663-.214.743-.227,1.661-.233S754.388,273.6,754.389,273.72Z" transform="translate(-747.98 -271.337)" fill="#2e7fbc"/>
            <path id="Path_19448" data-name="Path 19448" d="M754.306,273.74c0,.119-.719.22-1.607.225s-1.609-.088-1.609-.207.719-.22,1.607-.225S754.3,273.621,754.306,273.74Z" transform="translate(-747.998 -271.356)" fill="#2c7ebb"/>
            <path id="Path_19449" data-name="Path 19449" d="M754.223,273.761c0,.115-.695.213-1.553.217s-1.555-.085-1.556-.2.695-.213,1.553-.218S754.223,273.645,754.223,273.761Z" transform="translate(-748.016 -271.376)" fill="#2b7dbb"/>
            <ellipse id="Ellipse_785" data-name="Ellipse 785" cx="1.501" cy="0.202" rx="1.501" ry="0.202" transform="translate(3.104 2.201) rotate(-0.323)" fill="#2a7cba"/>
            <path id="Path_19450" data-name="Path 19450" d="M754.058,273.8c0,.107-.647.2-1.446.2s-1.448-.079-1.448-.186.647-.2,1.446-.2S754.057,273.693,754.058,273.8Z" transform="translate(-748.051 -271.415)" fill="#287bba"/>
            <path id="Path_19451" data-name="Path 19451" d="M753.976,273.821c0,.1-.623.191-1.393.2s-1.394-.076-1.395-.179.623-.191,1.393-.2S753.975,273.717,753.976,273.821Z" transform="translate(-748.069 -271.434)" fill="#277bb9"/>
            <path id="Path_19452" data-name="Path 19452" d="M753.893,273.841c0,.1-.6.183-1.339.188s-1.341-.073-1.341-.172.6-.183,1.339-.187S753.892,273.742,753.893,273.841Z" transform="translate(-748.087 -271.454)" fill="#257ab9"/>
            <path id="Path_19453" data-name="Path 19453" d="M753.81,273.861c0,.1-.575.176-1.286.18s-1.287-.07-1.288-.166.575-.176,1.286-.18S753.81,273.766,753.81,273.861Z" transform="translate(-748.105 -271.474)" fill="#2479b8"/>
            <path id="Path_19454" data-name="Path 19454" d="M753.727,273.881c0,.091-.551.169-1.232.172s-1.234-.067-1.234-.159.551-.169,1.232-.172S753.727,273.79,753.727,273.881Z" transform="translate(-748.122 -271.493)" fill="#2278b8"/>
            <path id="Path_19455" data-name="Path 19455" d="M753.645,273.9c0,.087-.527.161-1.179.165s-1.18-.064-1.18-.152.527-.161,1.178-.165S753.644,273.813,753.645,273.9Z" transform="translate(-748.14 -271.512)" fill="#2177b7"/>
            <path id="Path_19456" data-name="Path 19456" d="M753.563,273.921c0,.083-.5.154-1.125.157s-1.126-.061-1.127-.145.5-.154,1.125-.158S753.562,273.837,753.563,273.921Z" transform="translate(-748.158 -271.532)" fill="#1f76b7"/>
            <path id="Path_19457" data-name="Path 19457" d="M753.48,273.941c0,.079-.479.147-1.072.15s-1.072-.058-1.073-.138.479-.147,1.072-.15S753.479,273.861,753.48,273.941Z" transform="translate(-748.176 -271.551)" fill="#1e75b6"/>
            <path id="Path_19458" data-name="Path 19458" d="M753.4,273.961c0,.076-.455.139-1.018.142s-1.019-.056-1.019-.131.455-.139,1.018-.142S753.4,273.885,753.4,273.961Z" transform="translate(-748.194 -271.571)" fill="#1c74b6"/>
            <path id="Path_19459" data-name="Path 19459" d="M753.314,273.981c0,.071-.432.132-.964.135s-.965-.053-.966-.124.431-.132.964-.135S753.314,273.909,753.314,273.981Z" transform="translate(-748.211 -271.59)" fill="#1a73b6"/>
            <path id="Path_19460" data-name="Path 19460" d="M753.232,274c0,.067-.408.124-.911.127s-.912-.049-.912-.117.407-.125.911-.128S753.231,273.933,753.232,274Z" transform="translate(-748.229 -271.61)" fill="#1972b5"/>
            <path id="Path_19461" data-name="Path 19461" d="M753.15,274.021c0,.063-.383.117-.857.12s-.858-.047-.858-.11.383-.118.857-.12S753.149,273.958,753.15,274.021Z" transform="translate(-748.247 -271.629)" fill="#1771b5"/>
            <path id="Path_19462" data-name="Path 19462" d="M753.066,274.041c0,.06-.36.11-.8.113s-.8-.044-.8-.1.36-.11.8-.112S753.066,273.981,753.066,274.041Z" transform="translate(-748.265 -271.649)" fill="#1670b4"/>
            <path id="Path_19463" data-name="Path 19463" d="M752.984,274.06c0,.056-.336.1-.75.105s-.75-.041-.751-.1.335-.1.75-.105S752.984,274,752.984,274.06Z" transform="translate(-748.283 -271.668)" fill="#146fb4"/>
            <path id="Path_19464" data-name="Path 19464" d="M752.9,274.08c0,.052-.311.1-.7.1s-.7-.038-.7-.09.311-.1.7-.1S752.9,274.029,752.9,274.08Z" transform="translate(-748.3 -271.687)" fill="#136eb3"/>
            <path id="Path_19465" data-name="Path 19465" d="M752.819,274.1c0,.048-.287.088-.643.09s-.643-.035-.644-.083.287-.088.643-.09S752.818,274.053,752.819,274.1Z" transform="translate(-748.318 -271.707)" fill="#116eb3"/>
            <path id="Path_19466" data-name="Path 19466" d="M752.736,274.121c0,.044-.264.081-.589.082s-.59-.032-.59-.076.264-.08.589-.082S752.735,274.077,752.736,274.121Z" transform="translate(-748.336 -271.726)" fill="#106db2"/>
            <path id="Path_19467" data-name="Path 19467" d="M752.653,274.141c0,.04-.24.073-.536.075s-.536-.029-.537-.069.24-.073.536-.075S752.653,274.1,752.653,274.141Z" transform="translate(-748.354 -271.746)" fill="#0e6cb2"/>
            <path id="Path_19468" data-name="Path 19468" d="M752.571,274.161c0,.036-.215.066-.482.067s-.483-.026-.483-.062.215-.066.482-.067S752.571,274.125,752.571,274.161Z" transform="translate(-748.372 -271.765)" fill="#0d6bb1"/>
            <path id="Path_19469" data-name="Path 19469" d="M752.488,274.181c0,.032-.192.059-.428.06s-.429-.023-.429-.055.192-.059.429-.06S752.488,274.149,752.488,274.181Z" transform="translate(-748.389 -271.785)" fill="#0b6ab1"/>
            <path id="Path_19470" data-name="Path 19470" d="M752.406,274.2c0,.028-.168.051-.375.052s-.376-.02-.376-.048.168-.051.375-.052S752.406,274.173,752.406,274.2Z" transform="translate(-748.407 -271.804)" fill="#0969b0"/>
            <path id="Path_19471" data-name="Path 19471" d="M752.323,274.22c0,.024-.144.044-.321.045s-.322-.018-.322-.042.144-.044.321-.045S752.323,274.2,752.323,274.22Z" transform="translate(-748.425 -271.823)" fill="#0868b0"/>
            <path id="Path_19472" data-name="Path 19472" d="M752.24,274.241c0,.02-.12.037-.268.038s-.268-.015-.268-.035.12-.037.268-.038S752.24,274.221,752.24,274.241Z" transform="translate(-748.443 -271.843)" fill="#0667af"/>
            <path id="Path_19473" data-name="Path 19473" d="M752.158,274.261c0,.016-.1.029-.214.03s-.214-.012-.214-.027.1-.029.214-.03S752.158,274.245,752.158,274.261Z" transform="translate(-748.461 -271.862)" fill="#0566af"/>
            <path id="Path_19474" data-name="Path 19474" d="M752.075,274.281c0,.012-.072.022-.161.022s-.161-.009-.161-.021.072-.022.161-.022S752.075,274.269,752.075,274.281Z" transform="translate(-748.478 -271.882)" fill="#0365ae"/>
            <path id="Path_19475" data-name="Path 19475" d="M751.992,274.3c0,.008-.048.015-.107.015s-.107-.006-.107-.014.048-.015.107-.015S751.992,274.293,751.992,274.3Z" transform="translate(-748.496 -271.902)" fill="#0264ae"/>
            <path id="Path_19476" data-name="Path 19476" d="M751.909,274.321s-.024.007-.054.008-.054,0-.054-.007.024-.007.054-.007S751.909,274.317,751.909,274.321Z" transform="translate(-748.514 -271.921)" fill="#0063ad"/>
          </g>
        </g>
      </g>
    </g>
    <g id="Group_12380" data-name="Group 12380" transform="translate(-104.493 -698.97)">
      <g id="Group_12373" data-name="Group 12373" transform="translate(140.611 853.193)">
        <path id="Path_19487" data-name="Path 19487" d="M251.482,979.5a1.636,1.636,0,0,0-1.318-1.3,4.189,4.189,0,0,0-.694-.028c-.865,0-1.732,0-2.643,0a10.536,10.536,0,0,0,.591-4.36,1.643,1.643,0,0,0-1.667-1.616,1.612,1.612,0,0,0-1.6,1.715,3.537,3.537,0,0,1-1.457,3.006,11.363,11.363,0,0,1-4.366,1.987,1.4,1.4,0,0,0-1.367-.739c-1.227.022-2.456,0-3.683.008-.465,0-.592.121-.594.573q0,4.748,0,9.5c0,.44.128.571.552.573,1.309,0,2.619,0,3.929,0a1.106,1.106,0,0,0,.982-.49c.152-.236.307-.2.514-.153a11.921,11.921,0,0,0,2.152.474c2.26.1,4.522.156,6.784.143a1.6,1.6,0,0,0,1.363-2.157c-.044-.122-.095-.241-.145-.367a1.483,1.483,0,0,0,.956-1.035,8.749,8.749,0,0,0,0-1.483c.916-.551,1.123-1.17.7-2.391.1-.061.209-.118.31-.186A1.64,1.64,0,0,0,251.482,979.5ZM237.6,987.467c0,.326-.128.528-.474.529-1.185,0-2.37,0-3.6,0v-9h2.129c.464,0,.927.006,1.391,0,.372-.008.555.152.554.535Q237.593,983.5,237.6,987.467Zm13.039-7.378a.775.775,0,0,1-.75.536c-.627.012-1.255.009-1.882,0-.3,0-.578.057-.573.419s.289.41.588.4c.34-.007.682-.011,1.022,0a.814.814,0,1,1,.009,1.628c-.627.015-1.255.008-1.882,0-.289,0-.548.061-.555.395-.009.361.259.433.564.428q.491-.01.982,0a.819.819,0,1,1,.015,1.632c-.614.009-1.227.005-1.842,0-.292,0-.54.078-.539.412s.249.415.541.41c.355-.005.709-.011,1.064,0a.817.817,0,0,1,.835.825.8.8,0,0,1-.814.8c-2.017-.013-4.039.012-6.052-.1a20.719,20.719,0,0,1-2.942-.575v-7.568c.477-.145.958-.28,1.431-.44a10.341,10.341,0,0,0,3.413-1.808,4.255,4.255,0,0,0,1.7-3.552.818.818,0,0,1,.806-.933c.481,0,.8.352.828.921a9.824,9.824,0,0,1-.515,3.867c-.095.264-.215.408-.523.373-.27-.031-.546,0-.818-.008-.3-.006-.585.039-.589.4,0,.392.3.422.611.422,1.65,0,3.3-.013,4.95.01a1.33,1.33,0,0,1,.736.262A.678.678,0,0,1,250.637,980.089Z" transform="translate(-232.685 -972.198)"/>
        <path id="Path_19488" data-name="Path 19488" d="M297.52,986.79a.775.775,0,0,1-.75.536c-.627.012-1.255.009-1.882,0-.3,0-.578.057-.573.419s.289.41.588.4c.34-.007.682-.011,1.022,0a.814.814,0,1,1,.009,1.628c-.627.015-1.255.008-1.882,0-.289,0-.548.061-.555.395-.009.361.259.433.564.428q.491-.01.982,0a.819.819,0,1,1,.015,1.632c-.614.009-1.227.005-1.842,0-.292,0-.54.078-.539.412s.249.415.541.41c.355-.005.709-.011,1.064,0a.817.817,0,0,1,.835.825.8.8,0,0,1-.814.8c-2.017-.013-4.039.012-6.052-.1a20.716,20.716,0,0,1-2.941-.575v-7.568c.477-.145.958-.28,1.431-.44a10.341,10.341,0,0,0,3.413-1.808,4.255,4.255,0,0,0,1.7-3.552.818.818,0,0,1,.806-.933c.481,0,.8.352.828.921a9.824,9.824,0,0,1-.515,3.867c-.095.264-.215.408-.523.373-.27-.031-.546,0-.818-.008-.3-.006-.585.039-.589.4,0,.392.3.422.611.422,1.65,0,3.3-.013,4.95.01a1.33,1.33,0,0,1,.737.262A.678.678,0,0,1,297.52,986.79Z" transform="translate(-279.568 -978.899)" fill="#ffbfab"/>
        <path id="Path_19489" data-name="Path 19489" d="M244.444,1035c0-.383-.182-.542-.554-.535-.464.008-.927,0-1.391,0H240.37v9c1.231,0,2.416,0,3.6,0,.346,0,.474-.2.474-.529Q244.441,1038.972,244.444,1035Zm-1.213,1.136c.1-.02.357.229.363.367.008.155-.185.32-.292.48l-.176-.008c-.1-.151-.313-.321-.289-.446A.605.605,0,0,1,243.231,1036.138Zm.395,3.652c0,.505,0,1.009,0,1.514,0,.3-.1.532-.431.52-.306-.012-.392-.241-.391-.52q0-1.514,0-3.029c0-.279.085-.508.391-.519.331-.012.433.219.431.519C243.622,1038.781,243.626,1039.285,243.626,1039.79Z" transform="translate(-239.532 -1027.674)" fill="#7bd8e8"/>
        <path id="Path_19490" data-name="Path 19490" d="M263.512,1068.155c0,.3-.1.532-.431.52-.305-.012-.392-.241-.391-.52q0-1.514,0-3.029c0-.279.085-.509.391-.519.331-.012.433.219.431.519,0,.505,0,1.009,0,1.514S263.507,1067.649,263.512,1068.155Z" transform="translate(-259.416 -1054.524)"/>
        <path id="Path_19491" data-name="Path 19491" d="M263.722,1050.138c.008.155-.185.32-.292.48l-.176-.008c-.1-.151-.313-.321-.289-.446a.605.605,0,0,1,.394-.393C263.46,1049.751,263.715,1050,263.722,1050.138Z" transform="translate(-259.659 -1041.307)"/>
      </g>
      <g id="Group_12375" data-name="Group 12375" transform="translate(158.139 845.274)">
        <path id="Path_19492" data-name="Path 19492" d="M397.118,902.709s2.1-6.952,4.822,0c7.233.168,1.682,4.682,1.682,4.682s2.271,7.653-3.981,3.168c-6.306,4.205-4.345-3.056-4.345-3.056C390,902.737,397.118,902.709,397.118,902.709Z" transform="translate(-393.335 -899.619)" fill="#b0cfff" opacity="0.5"/>
        <path id="Path_19493" data-name="Path 19493" d="M399.97,905.605s1.989-6.576,4.561,0c6.841.159,1.591,4.428,1.591,4.428s2.148,7.239-3.765,3c-5.964,3.977-4.11-2.89-4.11-2.89C393.235,905.632,399.97,905.605,399.97,905.605Z" transform="translate(-396.059 -902.349)" fill="#b8e6ff" opacity="0.5"/>
        <path id="Path_19494" data-name="Path 19494" d="M401.153,909.629s1.941-6.1,4.452,0c6.679.148,1.553,4.109,1.553,4.109s2.1,6.717-3.676,2.78c-5.823,3.69-4.012-2.682-4.012-2.682C394.578,909.654,401.153,909.629,401.153,909.629Z" transform="translate(-397.189 -906.121)" fill="#cef2ff" opacity="0.5"/>
        <g id="Group_12374" data-name="Group 12374" transform="translate(0.473 0.798)" opacity="0.2">
          <path id="Path_19495" data-name="Path 19495" d="M433.442,907.161c-1.379-.956-2.407,1.306-2.737,2.165C431.673,908.537,432.638,907.77,433.442,907.161Z" transform="translate(-427.101 -906.93)" fill="#fff"/>
          <path id="Path_19496" data-name="Path 19496" d="M420.057,927.228a9.871,9.871,0,0,0-1.841-.187c-.085-.207-.17-.4-.254-.579a12.679,12.679,0,0,0-2.806,1.866c-.713.735-2.059,2.126-3.158,3.261a5.321,5.321,0,0,0-.021,2.625,16.545,16.545,0,0,0,8.08-6.986Z" transform="translate(-410.272 -924.331)" fill="#fff"/>
          <path id="Path_19497" data-name="Path 19497" d="M462.544,938.2c-.215.253-.4.475-.514.627-.487.65-1.6,3.044-2.391,4.337a8.569,8.569,0,0,1-1.5,1.717c4.8,2.814,2.9-3.274,2.9-3.274S463.929,939.374,462.544,938.2Z" transform="translate(-451.544 -934.787)" fill="#fff"/>
          <path id="Path_19498" data-name="Path 19498" d="M400.88,931.863c-.983.052-4.116.383-2.951,2.47C398.746,933.632,399.8,932.746,400.88,931.863Z" transform="translate(-397.673 -929.143)" fill="#fff"/>
        </g>
        <path id="Path_19499" data-name="Path 19499" d="M405.051,908.634a6.011,6.011,0,0,1,2.633-.521,4.941,4.941,0,0,1,1.48-2.616,5.72,5.72,0,0,0-1.442,2.757A9.617,9.617,0,0,0,405.051,908.634Z" transform="translate(-403.773 -904.856)" fill="#fff"/>
        <path id="Path_19500" data-name="Path 19500" d="M420.886,992.982s-2.58,1.789-3.688.9c1.255.488,3.688-1.138,3.688-1.138Z" transform="translate(-414.594 -982.584)" fill="#fff" opacity="0.3"/>
        <path id="Path_19501" data-name="Path 19501" d="M455.062,913.416c.158.408.054.829-.232.94s-.647-.13-.8-.538-.054-.829.232-.94S454.9,913.007,455.062,913.416Z" transform="translate(-447.337 -911.407)" fill="#fff"/>
        <path id="Path_19502" data-name="Path 19502" d="M464.2,928.46a.309.309,0,1,1-.309-.309A.309.309,0,0,1,464.2,928.46Z" transform="translate(-455.92 -925.038)" fill="#fff"/>
      </g>
      <g id="Group_12377" data-name="Group 12377" transform="translate(143.846 838.619)">
        <path id="Path_19503" data-name="Path 19503" d="M266.118,841.709s2.1-6.952,4.822,0c7.233.168,1.682,4.682,1.682,4.682s2.271,7.653-3.981,3.168c-6.305,4.205-4.345-3.056-4.345-3.056C259,841.737,266.118,841.709,266.118,841.709Z" transform="translate(-262.335 -838.619)" fill="url(#linear-gradient)"/>
        <path id="Path_19504" data-name="Path 19504" d="M268.97,844.606s1.989-6.576,4.561,0c6.841.159,1.591,4.428,1.591,4.428s2.148,7.239-3.765,3c-5.964,3.977-4.11-2.89-4.11-2.89C262.235,844.632,268.97,844.606,268.97,844.606Z" transform="translate(-265.059 -841.349)" fill="#fff688"/>
        <path id="Path_19505" data-name="Path 19505" d="M270.153,848.629s1.941-6.1,4.452,0c6.679.148,1.553,4.109,1.553,4.109s2.1,6.717-3.676,2.78c-5.823,3.69-4.012-2.682-4.012-2.682C263.578,848.654,270.153,848.629,270.153,848.629Z" transform="translate(-266.189 -845.121)" fill="url(#linear-gradient-2)"/>
        <g id="Group_12376" data-name="Group 12376" transform="translate(0.473 0.798)" opacity="0.2">
          <path id="Path_19506" data-name="Path 19506" d="M302.442,846.161c-1.379-.956-2.407,1.305-2.737,2.165C300.673,847.537,301.638,846.77,302.442,846.161Z" transform="translate(-296.101 -845.93)" fill="#fff688"/>
          <path id="Path_19507" data-name="Path 19507" d="M289.057,866.228a9.872,9.872,0,0,0-1.841-.187c-.085-.207-.17-.4-.254-.579a12.681,12.681,0,0,0-2.806,1.866c-.713.735-2.059,2.126-3.158,3.261a5.322,5.322,0,0,0-.021,2.625,16.546,16.546,0,0,0,8.08-6.986Z" transform="translate(-279.272 -863.331)" fill="#fff688"/>
          <path id="Path_19508" data-name="Path 19508" d="M331.544,877.2c-.215.253-.4.475-.514.627-.487.65-1.6,3.044-2.391,4.337a8.565,8.565,0,0,1-1.5,1.717c4.8,2.814,2.9-3.274,2.9-3.274S332.929,878.374,331.544,877.2Z" transform="translate(-320.544 -873.787)" fill="#fff688"/>
          <path id="Path_19509" data-name="Path 19509" d="M269.88,870.863c-.983.052-4.116.383-2.951,2.47C267.746,872.632,268.8,871.746,269.88,870.863Z" transform="translate(-266.673 -868.143)" fill="#fff688"/>
        </g>
        <path id="Path_19510" data-name="Path 19510" d="M274.051,847.634a6.013,6.013,0,0,1,2.633-.521,4.941,4.941,0,0,1,1.48-2.616,5.721,5.721,0,0,0-1.442,2.757A9.617,9.617,0,0,0,274.051,847.634Z" transform="translate(-272.773 -843.856)" fill="#fff"/>
        <path id="Path_19511" data-name="Path 19511" d="M289.886,931.982s-2.58,1.789-3.688.9c1.255.489,3.688-1.138,3.688-1.138Z" transform="translate(-283.594 -921.584)" fill="#fff" opacity="0.3"/>
        <path id="Path_19512" data-name="Path 19512" d="M324.062,852.415c.158.408.054.829-.232.94s-.647-.13-.8-.538-.054-.829.232-.94S323.9,852.007,324.062,852.415Z" transform="translate(-316.337 -850.407)" fill="#fff"/>
        <path id="Path_19513" data-name="Path 19513" d="M333.2,867.46a.309.309,0,1,1-.309-.309A.309.309,0,0,1,333.2,867.46Z" transform="translate(-324.92 -864.038)" fill="#fff"/>
      </g>
      <g id="Group_12379" data-name="Group 12379" transform="translate(129.335 845.274)">
        <path id="Path_19514" data-name="Path 19514" d="M133.118,902.709s2.1-6.952,4.822,0c7.233.168,1.682,4.682,1.682,4.682s2.271,7.653-3.981,3.168c-6.305,4.205-4.345-3.056-4.345-3.056C126,902.737,133.118,902.709,133.118,902.709Z" transform="translate(-129.335 -899.619)" fill="url(#linear-gradient)"/>
        <path id="Path_19515" data-name="Path 19515" d="M135.97,905.605s1.989-6.576,4.561,0c6.841.159,1.591,4.428,1.591,4.428s2.148,7.239-3.765,3c-5.964,3.977-4.11-2.89-4.11-2.89C129.235,905.632,135.97,905.605,135.97,905.605Z" transform="translate(-132.059 -902.349)" fill="#fff688"/>
        <path id="Path_19516" data-name="Path 19516" d="M137.153,909.629s1.941-6.1,4.452,0c6.679.148,1.553,4.109,1.553,4.109s2.1,6.717-3.676,2.78c-5.823,3.69-4.012-2.682-4.012-2.682C130.578,909.654,137.153,909.629,137.153,909.629Z" transform="translate(-133.189 -906.121)" fill="url(#linear-gradient-2)"/>
        <g id="Group_12378" data-name="Group 12378" transform="translate(0.473 0.798)" opacity="0.2">
          <path id="Path_19517" data-name="Path 19517" d="M169.442,907.161c-1.379-.956-2.407,1.306-2.737,2.165C167.674,908.537,168.638,907.77,169.442,907.161Z" transform="translate(-163.101 -906.93)" fill="#fff688"/>
          <path id="Path_19518" data-name="Path 19518" d="M156.057,927.228a9.872,9.872,0,0,0-1.841-.187c-.085-.207-.17-.4-.254-.579a12.681,12.681,0,0,0-2.806,1.866c-.713.735-2.059,2.126-3.158,3.261a5.321,5.321,0,0,0-.021,2.625,25.206,25.206,0,0,0,3.982-2.3A25.307,25.307,0,0,0,156.057,927.228Z" transform="translate(-146.272 -924.331)" fill="#fff688"/>
          <path id="Path_19519" data-name="Path 19519" d="M198.544,938.2c-.215.253-.4.475-.514.627-.487.65-1.6,3.044-2.391,4.337a8.568,8.568,0,0,1-1.5,1.717c4.8,2.814,2.9-3.274,2.9-3.274S199.929,939.374,198.544,938.2Z" transform="translate(-187.544 -934.787)" fill="#fff688"/>
          <path id="Path_19520" data-name="Path 19520" d="M136.88,931.863c-.983.052-4.116.383-2.951,2.47C134.746,933.632,135.8,932.746,136.88,931.863Z" transform="translate(-133.673 -929.143)" fill="#fff688"/>
        </g>
        <path id="Path_19521" data-name="Path 19521" d="M141.051,908.634a6.011,6.011,0,0,1,2.633-.521,4.941,4.941,0,0,1,1.48-2.616,5.72,5.72,0,0,0-1.442,2.757A9.617,9.617,0,0,0,141.051,908.634Z" transform="translate(-139.773 -904.856)" fill="#fff"/>
        <path id="Path_19522" data-name="Path 19522" d="M156.886,992.982s-2.58,1.789-3.688.9c1.255.488,3.688-1.138,3.688-1.138Z" transform="translate(-150.594 -982.584)" fill="#fff" opacity="0.3"/>
        <path id="Path_19523" data-name="Path 19523" d="M191.062,913.416c.158.408.054.829-.232.94s-.647-.13-.8-.538-.054-.829.232-.94S190.9,913.007,191.062,913.416Z" transform="translate(-183.337 -911.407)" fill="#fff"/>
        <path id="Path_19524" data-name="Path 19524" d="M200.2,928.46a.309.309,0,1,1-.309-.309A.309.309,0,0,1,200.2,928.46Z" transform="translate(-191.92 -925.038)" fill="#fff"/>
      </g>
    </g>
  </g>
</svg>
