<svg xmlns="http://www.w3.org/2000/svg" xmlns:xlink="http://www.w3.org/1999/xlink" width="20.844" height="34.22" viewBox="0 0 20.844 34.22">
  <defs>
    <filter id="Path_19315" x="0" y="0" width="20.844" height="34.22" filterUnits="userSpaceOnUse">
      <feOffset dy="1" input="SourceAlpha"/>
      <feGaussianBlur result="blur"/>
      <feFlood flood-color="#d68800"/>
      <feComposite operator="in" in2="blur"/>
      <feComposite in="SourceGraphic"/>
    </filter>
  </defs>
  <g transform="matrix(1, 0, 0, 1, 0, 0)" filter="url(#Path_19315)">
    <path id="Path_19315-2" data-name="Path 19315" d="M5516.525,2077.737q-1.852-1.807-6.26-2.687l-2.9-.587a7.573,7.573,0,0,1-2.861-1.016,1.956,1.956,0,0,1-.787-1.656,2.247,2.247,0,0,1,1.17-2.09,7.506,7.506,0,0,1,3.608-.67,16.8,16.8,0,0,1,3.912.5,24.24,24.24,0,0,1,4.249,1.469v-5.59a40.751,40.751,0,0,0-4.764-.987c-.462-.064-.916-.1-1.369-.147v-3.082h-5.11v3.014a9.783,9.783,0,0,0-5.323,2.012,7.449,7.449,0,0,0-2.546,6.069,6.822,6.822,0,0,0,1.832,5.01,11.342,11.342,0,0,0,5.795,2.708l2.635.584a8.222,8.222,0,0,1,3.215,1.2,2.57,2.57,0,0,1-.383,4.031,6.423,6.423,0,0,1-3.411.745,16.3,16.3,0,0,1-4.561-.68,25.587,25.587,0,0,1-4.894-2.024v5.751a31.428,31.428,0,0,0,5.063,1.413,25.823,25.823,0,0,0,2.578.36v3.026h5.11v-3.062a10.091,10.091,0,0,0,5.272-1.976q2.594-2.136,2.592-6.5A6.82,6.82,0,0,0,5516.525,2077.737Z" transform="translate(-5497.54 -2061.19)" fill="#272a34"/>
  </g>
</svg>
