<svg xmlns="http://www.w3.org/2000/svg" width="66" height="66" viewBox="0 0 66 66">
  <g id="Group_14243" data-name="Group 14243" transform="translate(0 -0.33)">
    <rect id="Rectangle_4082" data-name="Rectangle 4082" width="66" height="66" rx="22" transform="translate(0 0.33)" fill="#fcb479"/>
    <g id="Group_12909" data-name="Group 12909" transform="translate(22.001 14.719)">
      <path id="Path_19586" data-name="Path 19586" d="M411.888,1038.123c-.075-.211-.563-.365-.875-.384-.835-.053-1.676-.018-2.512-.018h-4.748c.2-.345.333-.581.477-.808,2.291-3.623,4.588-7.243,6.861-10.876a1.219,1.219,0,0,0,.167-.953c-.085-.2-.542-.333-.835-.335-3.274-.022-6.55-.028-9.824.01a1.269,1.269,0,0,0-.951.548q-4.823,9.535-9.576,19.108c-.343.693-.071,1.1.749,1.113,1.828.02,3.656.008,5.482.008h.892c-.077.262-.11.433-.175.589q-1.5,3.58-3,7.155c-1.3,3.109-2.618,6.215-3.885,9.339-.114.276.071.674.118,1.016a6.757,6.757,0,0,0,.993-.3c.167-.075.268-.295.4-.451l10.691-12.7q4.658-5.532,9.3-11.077A1.216,1.216,0,0,0,411.888,1038.123Zm-2.506,1.651q-5.566,6.6-11.032,13.082-2.6,3.077-5.185,6.148c-.034-.02-.069-.041-.1-.059.116-.3.223-.6.347-.9q2.6-6.206,5.193-12.411c.02-.047.039-.094.055-.136s.035-.085.049-.128.028-.079.041-.118c.268-.814,0-1.024-1.074-1.026-1.2,0-2.4,0-3.623,0h-2.388c.148-.329.252-.579.372-.821q4.165-8.329,8.317-16.664a1.085,1.085,0,0,1,1.152-.719q1.079.018,2.157.02c.816,0,1.631,0,2.447,0,.209,0,.42,0,.63,0q.96,0,1.919,0h.859s0,0,0,0c-.213.359-.353.617-.512.865-2.275,3.571-4.56,7.135-6.818,10.716-.185.292-.386.818-.256,1a1.439,1.439,0,0,0,1.034.4c.475.006.953.012,1.43.014,1.812.012,3.65,0,5.616,0Z" transform="translate(-389.926 -1024.731)"/>
      <path id="Path_19587" data-name="Path 19587" d="M408.3,1031.108q1.078.018,2.157.02a1.118,1.118,0,0,0-.9.737q-4.329,8.738-8.707,17.446H398.46c.148-.329.252-.579.372-.821q4.165-8.329,8.317-16.664A1.085,1.085,0,0,1,408.3,1031.108Z" transform="translate(-396.727 -1029.812)" fill="#ffdd09"/>
      <path id="Path_19588" data-name="Path 19588" d="M475.458,1031.189s0,0,0,0c-.926,0-1.85,0-2.776,0q.96,0,1.919,0Z" transform="translate(-455.873 -1029.877)" fill="#ffdd09"/>
      <g id="Group_12896" data-name="Group 12896" transform="translate(1.733 1.295)">
        <path id="Path_19589" data-name="Path 19589" d="M475.458,1031.189s0,0,0,0c-.926,0-1.85,0-2.776,0q.96,0,1.919,0Z" transform="translate(-457.606 -1031.172)" fill="#fff"/>
        <path id="Path_19590" data-name="Path 19590" d="M418.352,1042.79c-.185.292-.386.818-.256,1a1.438,1.438,0,0,0,1.034.4c.475.006.953.012,1.43.014,1.133.008,2.277.006,3.455,0l-12.889,15.312q1.825-4.356,3.648-8.715c.02-.047.039-.094.055-.136s.035-.087.049-.128.028-.079.041-.118c.268-.814,0-1.024-1.074-1.026-1.2,0-2.4,0-3.623,0q4.36-8.719,8.707-17.446a1.117,1.117,0,0,1,.9-.737c.816,0,1.631,0,2.447,0,.209,0,.42,0,.63,0,.926,0,1.85,0,2.776,0-.213.359-.353.617-.512.865C422.9,1035.645,420.611,1039.209,418.352,1042.79Z" transform="translate(-407.832 -1031.188)" fill="#ffd76a"/>
        <path id="Path_19591" data-name="Path 19591" d="M410.463,1031.126a.008.008,0,0,0-.006,0,1.118,1.118,0,0,0-.9.737q-4.329,8.738-8.707,17.446H398.46c.148-.329.252-.579.372-.821q4.165-8.329,8.317-16.664a1.085,1.085,0,0,1,1.152-.719Q409.382,1031.123,410.463,1031.126Z" transform="translate(-398.46 -1031.107)" fill="#fff"/>
      </g>
      <path id="Path_19592" data-name="Path 19592" d="M422.3,1095.179l-.621.735q-5.566,6.6-11.032,13.082-2.6,3.077-5.185,6.148c-.035-.02-.069-.041-.1-.059.116-.3.223-.6.347-.9q.774-1.849,1.546-3.7l12.889-15.312Z" transform="translate(-402.225 -1080.871)" fill="#fd5c08"/>
    </g>
  </g>
</svg>
