<svg xmlns="http://www.w3.org/2000/svg" width="66" height="66" viewBox="0 0 66 66">
  <g id="Group_14244" data-name="Group 14244" transform="translate(0 0.34)">
    <rect id="Rectangle_4084" data-name="Rectangle 4084" width="66" height="66" rx="22" transform="translate(0 -0.34)" fill="#9ce3fa"/>
    <g id="Group_12911" data-name="Group 12911" transform="translate(14.024 14.024)">
      <path id="Path_19560" data-name="Path 19560" d="M804.826,714.349a10.136,10.136,0,1,1-20.247-.478,9.526,9.526,0,0,1,1.943-5.3c2.464-3.2,4.963-6.367,7.457-9.54.529-.673.956-.674,1.473-.01,2.48,3.185,4.971,6.361,7.415,9.573A9.611,9.611,0,0,1,804.826,714.349Zm-10.067-13.818a1.294,1.294,0,0,0-.211.163c-2.308,2.947-4.665,5.857-6.906,8.855a8.525,8.525,0,0,0-.13,9.848,8.653,8.653,0,1,0,14.12-10c-1.694-2.276-3.469-4.492-5.208-6.734C795.874,701.955,795.319,701.248,794.759,700.531Z" transform="translate(-774.764 -694.289)"/>
      <path id="Path_19561" data-name="Path 19561" d="M765.423,678.141c.39-.324.672-.74.976-.757.276-.016.633.358.854.64a11.581,11.581,0,0,1,.747,1.261.818.818,0,0,1-.355,1.284c-.468.265-.935.534-1.4.81-.425.254-.845.338-1.156-.136s-.061-.827.35-1.1c.1-.066.192-.14.347-.254a15.908,15.908,0,0,0-8.015-1.3c-7.643.85-12.721,4.99-15.245,12.234a15.776,15.776,0,0,0-.753,6.087c.01.2.092.433.01.577-.152.268-.406.675-.606.669-.273-.008-.561-.325-.791-.56-.1-.1-.07-.326-.081-.5a18.83,18.83,0,0,1,25.114-18.953Z" transform="translate(-739.157 -677.016)"/>
      <path id="Path_19562" data-name="Path 19562" d="M798.072,778.45c-.618,1.025-1.094,1.04-1.693.113-.266-.411-.52-.829-.783-1.242a.8.8,0,0,1,.265-1.252c.453-.291.909-.578,1.362-.868.431-.275.882-.423,1.219.091s.018.867-.412,1.144a.823.823,0,0,0-.332.411c1.143.252,2.275.588,3.431.743a17.332,17.332,0,0,0,19.424-14.782,35.257,35.257,0,0,0,.081-4.244c0-.266-.078-.6.051-.781.153-.218.564-.482.729-.412a1.11,1.11,0,0,1,.627.748,29.75,29.75,0,0,1-.014,4.755,18.782,18.782,0,0,1-23.954,15.575Z" transform="translate(-783.486 -741.595)"/>
      <path id="Path_19563" data-name="Path 19563" d="M797.3,721.462a8.49,8.49,0,0,0-.641,8.995,8.691,8.691,0,0,1-3.178-2.833,8.527,8.527,0,0,1,.131-9.849c2.239-3,4.6-5.907,6.9-8.854a1.221,1.221,0,0,1,.212-.163c.56.717,1.115,1.422,1.665,2.132q.785,1.011,1.575,2.018C801.736,715.753,799.464,718.567,797.3,721.462Z" transform="translate(-780.734 -702.516)" fill="#fff"/>
      <path id="Path_19564" data-name="Path 19564" d="M850.709,771.628a1.117,1.117,0,0,0-.864.529,6.016,6.016,0,0,1-3.319,3.871c-.421.194-.67.535-.445,1.007.243.505.666.5,1.121.29a6.51,6.51,0,0,0,2.933-2.451c.486-.774.831-1.636,1.285-2.551C851.142,772.036,850.915,771.619,850.709,771.628Zm-.045-2.986a.589.589,0,0,0-.654.754c.065.288.384.517.59.774.1,0,.208-.006.312-.01.17-.3.5-.617.464-.893A1,1,0,0,0,850.664,768.643Zm-.065,1.528c.1,0,.208-.006.312-.01.17-.3.5-.617.464-.893a1,1,0,0,0-.711-.625.589.589,0,0,0-.654.754C850.074,769.685,850.394,769.914,850.6,770.171Zm.11,1.458a1.117,1.117,0,0,0-.864.529,6.016,6.016,0,0,1-3.319,3.871c-.421.194-.67.535-.445,1.007.243.505.666.5,1.121.29a6.51,6.51,0,0,0,2.933-2.451c.486-.774.831-1.636,1.285-2.551C851.142,772.036,850.915,771.619,850.709,771.628Z" transform="translate(-824.166 -750.662)" fill="#fff"/>
      <path id="Path_19565" data-name="Path 19565" d="M822.736,734.657c-1.183-1.593-2.408-3.154-3.632-4.718-2.234,2.845-4.506,5.658-6.669,8.554a8.49,8.49,0,0,0-.641,8.995,8.651,8.651,0,0,0,10.942-12.831Zm-.37,2.87a1,1,0,0,1,.711.625c.033.276-.294.594-.464.893-.1,0-.208.008-.312.01-.206-.257-.525-.486-.59-.774A.589.589,0,0,1,822.365,737.527Zm-.529,6.232a6.51,6.51,0,0,1-2.933,2.451c-.455.206-.878.216-1.121-.29-.225-.472.024-.813.445-1.007a6.015,6.015,0,0,0,3.319-3.871,1.117,1.117,0,0,1,.864-.529c.206-.01.433.408.711.7C822.667,742.123,822.322,742.985,821.836,743.759Z" transform="translate(-795.868 -719.547)" fill="#82e2ff"/>
      <path id="Path_19566" data-name="Path 19566" d="M851.421,784.607c-.454.915-.8,1.777-1.285,2.55a6.509,6.509,0,0,1-2.933,2.452c-.454.2-.878.215-1.12-.291-.225-.471.023-.812.444-1.007a6.013,6.013,0,0,0,3.319-3.872,1.118,1.118,0,0,1,.866-.528C850.917,783.9,851.143,784.318,851.421,784.607Z" transform="translate(-824.167 -762.945)"/>
      <path id="Path_19567" data-name="Path 19567" d="M866.992,770.171c-.206-.256-.525-.487-.59-.775a.589.589,0,0,1,.656-.753,1,1,0,0,1,.712.625c.031.277-.295.594-.465.894Z" transform="translate(-840.559 -750.662)"/>
      <g id="Group_12877" data-name="Group 12877" transform="translate(27.525)">
        <path id="Path_19568" data-name="Path 19568" d="M886.676,696.894a.64.64,0,0,1-.515-.552,4.189,4.189,0,0,1-.131-5c.666-.95,1.373-1.871,2.1-2.811-.411-.537-.831-1.083-1.256-1.648-1.172,1.544-2.322,2.966-3.368,4.459a4.2,4.2,0,0,0,.676,5.584,4.037,4.037,0,0,0,3.938.811,4.05,4.05,0,0,1-1.415-.811Z" transform="translate(-881.237 -684.923)" fill="#fff"/>
        <g id="Group_12876" data-name="Group 12876" transform="translate(0 0)">
          <path id="Path_19569" data-name="Path 19569" d="M880.684,691.39a5.69,5.69,0,0,1-4.538-8.956c1.221-1.741,2.562-3.4,3.868-5.081.472-.608.911-.613,1.374-.012,1.313,1.706,2.667,3.386,3.885,5.159a5.688,5.688,0,0,1-4.59,8.889Zm.02-12.54c-1.173,1.544-2.321,2.967-3.369,4.46a4.2,4.2,0,0,0,.676,5.583,4.042,4.042,0,0,0,5.36,0,4.2,4.2,0,0,0,.668-5.584C883.006,681.824,881.878,680.41,880.7,678.85Z" transform="translate(-875.067 -676.894)"/>
          <path id="Path_19570" data-name="Path 19570" d="M899.9,703.68a1.642,1.642,0,0,1-2.835,0l-.029-.027a1.411,1.411,0,0,0,.4.026,3.233,3.233,0,0,0,2.917-3.258c-.114-.118-.325-.515-.629-.609-.484-.149-.762.229-.817.7a1.763,1.763,0,0,1-1.675,1.726c-.484.061-.793.323-.721.827l.006.035a4.189,4.189,0,0,1-.131-5c.666-.95,1.373-1.871,2.1-2.811.723.946,1.42,1.863,2.079,2.808A4.2,4.2,0,0,1,899.9,703.68Z" transform="translate(-891.595 -691.685)" fill="#bef7f0"/>
          <path id="Path_19571" data-name="Path 19571" d="M901.052,722.121a1.413,1.413,0,0,1-.4-.025,4.022,4.022,0,0,1-.515-.552l-.006-.035c-.073-.5.237-.766.721-.827a1.763,1.763,0,0,0,1.675-1.726c.055-.472.333-.85.817-.7.3.094.515.492.629.609A3.233,3.233,0,0,1,901.052,722.121Z" transform="translate(-895.209 -710.124)" fill="#fff"/>
          <path id="Path_19572" data-name="Path 19572" d="M903.97,718.865a3.231,3.231,0,0,1-2.917,3.257c-.478.032-.852-.115-.925-.613s.237-.766.72-.827a1.762,1.762,0,0,0,1.675-1.726c.054-.472.332-.85.817-.7C903.646,718.349,903.856,718.746,903.97,718.865Z" transform="translate(-895.21 -710.125)"/>
        </g>
      </g>
      <g id="Group_12879" data-name="Group 12879" transform="translate(0 21.674)">
        <path id="Path_19573" data-name="Path 19573" d="M746.181,807.521a.64.64,0,0,1-.515-.552,4.189,4.189,0,0,1-.131-5c.666-.95,1.373-1.871,2.1-2.811-.411-.537-.831-1.083-1.256-1.648-1.172,1.544-2.322,2.966-3.368,4.459a4.2,4.2,0,0,0,.676,5.584,4.038,4.038,0,0,0,3.938.811,4.048,4.048,0,0,1-1.415-.811Z" transform="translate(-740.742 -795.55)" fill="#fff"/>
        <g id="Group_12878" data-name="Group 12878" transform="translate(0 0)">
          <path id="Path_19574" data-name="Path 19574" d="M740.19,802.016a5.69,5.69,0,0,1-4.538-8.955c1.222-1.741,2.562-3.4,3.868-5.081.472-.608.911-.614,1.374-.012,1.314,1.706,2.668,3.386,3.885,5.159a5.687,5.687,0,0,1-4.59,8.889Zm.02-12.54c-1.172,1.544-2.321,2.967-3.368,4.46a4.2,4.2,0,0,0,.676,5.583,4.042,4.042,0,0,0,5.359,0,4.2,4.2,0,0,0,.668-5.584C742.511,792.451,741.383,791.037,740.209,789.476Z" transform="translate(-734.572 -787.521)"/>
          <path id="Path_19575" data-name="Path 19575" d="M759.4,814.307a1.642,1.642,0,0,1-2.835,0l-.029-.027a1.411,1.411,0,0,0,.4.026,3.233,3.233,0,0,0,2.917-3.258c-.113-.118-.325-.515-.629-.609-.484-.149-.762.229-.817.7a1.763,1.763,0,0,1-1.675,1.726c-.484.061-.793.323-.721.827l.006.035a4.189,4.189,0,0,1-.131-5c.666-.95,1.373-1.871,2.1-2.811.723.946,1.42,1.863,2.079,2.807A4.2,4.2,0,0,1,759.4,814.307Z" transform="translate(-751.1 -802.312)" fill="#bef7f0"/>
          <path id="Path_19576" data-name="Path 19576" d="M760.557,832.748a1.411,1.411,0,0,1-.4-.025,3.989,3.989,0,0,1-.515-.552l-.006-.035c-.073-.5.237-.766.721-.827a1.763,1.763,0,0,0,1.675-1.726c.055-.472.333-.85.817-.7.3.094.515.492.629.609A3.233,3.233,0,0,1,760.557,832.748Z" transform="translate(-754.714 -820.751)" fill="#fff"/>
          <path id="Path_19577" data-name="Path 19577" d="M763.476,829.491a3.231,3.231,0,0,1-2.917,3.257c-.478.032-.852-.114-.925-.613s.237-.766.72-.827a1.761,1.761,0,0,0,1.675-1.726c.054-.472.332-.85.817-.7C763.151,828.976,763.362,829.373,763.476,829.491Z" transform="translate(-754.716 -820.751)"/>
        </g>
      </g>
    </g>
  </g>
</svg>
