<svg xmlns="http://www.w3.org/2000/svg" width="37.924" height="37.717" viewBox="0 0 37.924 37.717">
  <g id="Group_14257" data-name="Group 14257" transform="translate(-12.494 -13.078)">
    <path id="Subtraction_9" data-name="Subtraction 9" d="M.126,19h0A17.241,17.241,0,0,1,0,16.934,16.7,16.7,0,0,1,5.034,4.96a17.371,17.371,0,0,1,24.308,0,16.771,16.771,0,0,1,4.909,14.032A17.111,17.111,0,0,0,17.188,4.131,17.107,17.107,0,0,0,.126,19Z" transform="translate(16.465 13.078) rotate(9)" fill="#fff"/>
    <g id="Group_14256" data-name="Group 14256" transform="translate(12.494 14.562)">
      <path id="Path_19965" data-name="Path 19965" d="M1761.406,1288.955q-.159.152-.316.308-3.121,3.119-6.238,6.242a.513.513,0,0,1-.4.168q-5.66-.008-11.319-.006a.749.749,0,0,0-.572.237q-1.4,1.406-2.8,2.808a18.2,18.2,0,0,1-3.695-4.317q2.412-2.414,4.824-4.828a.364.364,0,0,1,.281-.122q6.466,0,12.931,0c.055,0,.111,0,.161.007a.124.124,0,0,1,.012.093,2.4,2.4,0,0,1-.463,1.063,1.3,1.3,0,0,1-.758.48,2.137,2.137,0,0,1-.437.045q-2.979,0-5.957,0h-.22v1.14h2.43c1.273,0,2.546,0,3.819,0a2.414,2.414,0,0,0,1.831-.749,3.5,3.5,0,0,0,.9-1.87l.906-.154c-.034.034-.063.073-.083.094l.8.8,4.628-4.627c.047.068.084.117.117.168A2.407,2.407,0,0,1,1761.406,1288.955Z" transform="translate(-1733.394 -1266.807)" fill="#e25564"/>
      <path id="Path_19966" data-name="Path 19966" d="M1757.536,1267.514c.512-.513,1.027-1.022,1.535-1.538a.678.678,0,0,1,.513-.217c1.431,0,2.862,0,4.293,0h.171v1.133h-.212c-1.3,0-2.59,0-3.886,0a.41.41,0,0,0-.324.137c-.415.425-.838.842-1.257,1.262a1.033,1.033,0,0,0-.09.115l-.813-.813A1.011,1.011,0,0,1,1757.536,1267.514Z" transform="translate(-1753.279 -1248.214)" fill="#fff"/>
      <path id="Path_19967" data-name="Path 19967" d="M1866.745,1265.775a6.336,6.336,0,0,1,1.11-.01v1.1h-1.11Z" transform="translate(-1854.823 -1248.2)" fill="#fff"/>
      <path id="Path_19968" data-name="Path 19968" d="M1768.249,1068.486a13.4,13.4,0,0,1,8.024-2.616V1067a12.438,12.438,0,0,0-11.875,8.723l-1.083-.341A13.411,13.411,0,0,1,1768.249,1068.486Z" transform="translate(-1758.715 -1062.474)" fill="#fff"/>
      <path id="Path_19969" data-name="Path 19969" d="M1733.214,1322.888q-2.41,2.415-4.824,4.828-.308-.5-.585-1.025,2.415-2.414,4.826-4.83a.74.74,0,0,1,.559-.232q6.983,0,13.967,0a.973.973,0,0,1,.218.019.528.528,0,0,1,.433.5,3.813,3.813,0,0,1-.965,2.7,2.414,2.414,0,0,1-1.831.749c-1.273,0-2.546,0-3.819,0h-2.43v-1.14h.22q2.979,0,5.957,0a2.161,2.161,0,0,0,.437-.045,1.3,1.3,0,0,0,.758-.48,2.4,2.4,0,0,0,.463-1.063.222.222,0,0,0,0-.05.216.216,0,0,0-.015-.043c-.05,0-.106-.007-.161-.007q-6.466,0-12.931,0A.364.364,0,0,0,1733.214,1322.888Z" transform="translate(-1725.719 -1300.128)" fill="#fff"/>
      <path id="Path_19970" data-name="Path 19970" d="M1906.71,1171.088c.031-.031.062-.064.093-.1l-.009-.035h-2.53v-1.122c.057,0,.112-.011.167-.011,1.244,0,2.489.006,3.734,0a.589.589,0,0,1,.621.608c0,1.075,0,2.15,0,3.224a1.137,1.137,0,0,1-.014.122h-1.121v-2.006c-.073.069-.119.108-.161.149q-2.784,2.784-5.565,5.57a.818.818,0,0,1-.631.262c-.832-.009-1.663,0-2.495,0h-.193v-1.133h.206c.735,0,1.471,0,2.206,0a.361.361,0,0,0,.284-.113Q1904,1173.793,1906.71,1171.088Z" transform="translate(-1884.427 -1159.065)" fill="#fff"/>
      <path id="Path_19971" data-name="Path 19971" d="M1803.309,1278.113q-5.669-.006-11.337-.006a.434.434,0,0,0-.34.14q-1.239,1.246-2.483,2.488-.459-.343-.894-.715,1.4-1.4,2.8-2.808a.75.75,0,0,1,.572-.237q5.66.005,11.319.006a.514.514,0,0,0,.4-.168q3.115-3.124,6.238-6.242c.1-.1.21-.207.316-.308a2.407,2.407,0,0,0,.374-3.016c-.032-.052-.069-.1-.117-.168l-4.628,4.627-.8-.8c.02-.021.049-.06.083-.094q2.472-2.472,4.944-4.944a.566.566,0,0,1,.891.005,3.947,3.947,0,0,1,1.133,2.669,3.2,3.2,0,0,1-.453,1.683,4.742,4.742,0,0,1-.774.983q-3.33,3.33-6.659,6.662A.774.774,0,0,1,1803.309,1278.113Z" transform="translate(-1781.89 -1248.116)" fill="#fff"/>
      <path id="Path_19972" data-name="Path 19972" d="M1734.588,1036.016v.085a18.024,18.024,0,0,1-2.51,9.121c-.025.042-.05.084-.075.125l-.035.057a18.067,18.067,0,0,1-2.15,2.862c-.073.08-.147.159-.221.237s-.147.155-.222.231c0,0,0,0,0,0a18.259,18.259,0,0,1-3.135,2.542q-.185.118-.372.231a18,18,0,0,1-8.5,2.6c-.294.014-.59.022-.887.022v-1.125a16.991,16.991,0,0,0,13.444-6.633,16.688,16.688,0,0,0,3.481-11.611,16.953,16.953,0,0,0-16.7-15.723,16.635,16.635,0,0,0-8.572,2.192,16.987,16.987,0,0,0-8.632,14.771c-.39.013-.772.013-1.153,0q0-.455.023-.9h0a18.1,18.1,0,0,1,7.922-14.077c.091-.062.183-.125.276-.185.076-.05.152-.1.229-.148s.181-.114.273-.169l.18-.108,0,0,.011-.006s0,0,0,0c.118-.07.236-.138.356-.205l.017-.009c.045-.026.09-.051.135-.075l.014-.008c.069-.038.137-.075.207-.111l.027-.014c.089-.047.178-.093.268-.138a17.953,17.953,0,0,1,5.576-1.76c.1-.014.194-.028.292-.04a18.136,18.136,0,0,1,2.231-.146h.076a18.081,18.081,0,0,1,4.078.462c.057.013.115.026.171.04l.06.014a18.04,18.04,0,0,1,6.7,3.215c.059.046.12.093.179.14q.556.435,1.072.916.184.168.364.342c.132.127.262.257.389.387a18.044,18.044,0,0,1,5.067,11.5.135.135,0,0,1,0,.03c0,.042,0,.083.007.125s0,.057,0,.085Q1734.588,1035.584,1734.588,1036.016Z" transform="translate(-1698.353 -1017.9)" fill="#fff"/>
      <g id="Group_14255" data-name="Group 14255" transform="translate(0 0)">
        <path id="Path_19973" data-name="Path 19973" d="M1734.569,1036.081v.02c0,.463-.016.925-.055,1.386a17.766,17.766,0,0,1-2.292,7.452q-.081.142-.164.283c-.025.042-.049.084-.075.125l-.034.057q-.2.322-.41.639a19.212,19.212,0,0,1-1.74,2.224c-.073.08-.146.159-.221.237s-.147.155-.222.231c0,0,0,0,0,0a17.5,17.5,0,0,1-3.135,2.542q-.185.118-.372.231a18.922,18.922,0,0,1-3.562,1.655,16.665,16.665,0,0,1-3.495.8c-.46.055-.922.089-1.384.134l-.056.009c-.035.007-.071.016-.106.022h-.781v-1.125a16.991,16.991,0,0,0,13.444-6.633,16.689,16.689,0,0,0,3.481-11.611,16.953,16.953,0,0,0-16.7-15.723,16.635,16.635,0,0,0-8.572,2.192A16.986,16.986,0,0,0,1699.49,1036c-.39.013-.772.013-1.153,0h0v-.781c.007-.04.016-.081.024-.122h0a1.676,1.676,0,0,0,.035-.222,17.814,17.814,0,0,1,5.06-11.452,18.156,18.156,0,0,1,2.827-2.4c.091-.062.183-.125.276-.185.076-.05.152-.1.229-.148s.181-.114.272-.169l.18-.108,0,0,.01-.006s0,0,0,0c.118-.071.236-.14.356-.205l.017-.009c.045-.026.09-.051.135-.075l.014-.008c.069-.038.137-.075.207-.111l.027-.014c.088-.047.178-.093.268-.138a18.427,18.427,0,0,1,4.439-1.553q.565-.122,1.137-.207c.1-.014.194-.028.292-.04a17.167,17.167,0,0,1,2.231-.146q.412,0,.825.02a19.451,19.451,0,0,1,3.329.442l.171.04.06.014a17.422,17.422,0,0,1,6.7,3.215l.179.14q.546.433,1.072.916c.123.112.243.226.364.342s.263.257.389.387a17.749,17.749,0,0,1,4.668,8.625,16.478,16.478,0,0,1,.392,2.733c0,.047.006.095.007.142a.153.153,0,0,1,0,.03c0,.042,0,.083.007.125s0,.057,0,.085C1734.562,1035.465,1734.569,1035.773,1734.569,1036.081Z" transform="translate(-1698.335 -1017.9)"/>
        <path id="Path_19974" data-name="Path 19974" d="M1811.33,1270.226a4.742,4.742,0,0,1-.774.983q-3.33,3.33-6.659,6.662a.774.774,0,0,1-.588.241q-5.669-.006-11.337-.006a.434.434,0,0,0-.34.14q-1.239,1.246-2.483,2.488-.459-.343-.894-.715,1.4-1.4,2.8-2.808a.75.75,0,0,1,.572-.237q5.66.005,11.319.006a.514.514,0,0,0,.4-.168q3.115-3.124,6.238-6.242c.1-.1.21-.207.316-.308a2.407,2.407,0,0,0,.374-3.016c-.032-.052-.069-.1-.117-.168l-4.628,4.627-.8-.8c.02-.021.049-.06.083-.094q2.472-2.472,4.944-4.944a.566.566,0,0,1,.891.005,3.947,3.947,0,0,1,1.133,2.669A3.2,3.2,0,0,1,1811.33,1270.226Z" transform="translate(-1781.89 -1248.116)"/>
        <path id="Path_19975" data-name="Path 19975" d="M1747.808,1322.153a3.813,3.813,0,0,1-.965,2.7,2.414,2.414,0,0,1-1.831.749c-1.273,0-2.546,0-3.819,0h-2.43v-1.14h.22q2.979,0,5.957,0a2.161,2.161,0,0,0,.437-.045,1.3,1.3,0,0,0,.758-.48,2.4,2.4,0,0,0,.463-1.063.222.222,0,0,0,0-.05.216.216,0,0,0-.015-.043c-.05,0-.106-.007-.161-.007q-6.466,0-12.931,0a.364.364,0,0,0-.28.122q-2.41,2.415-4.824,4.828-.308-.5-.585-1.025,2.415-2.414,4.826-4.83a.74.74,0,0,1,.559-.232q6.983,0,13.967,0a.973.973,0,0,1,.218.019A.528.528,0,0,1,1747.808,1322.153Z" transform="translate(-1725.719 -1300.128)"/>
        <path id="Path_19976" data-name="Path 19976" d="M1908.785,1173.652a1.137,1.137,0,0,1-.014.122h-1.121v-2.006c-.073.069-.119.108-.161.149q-2.784,2.784-5.565,5.57a.818.818,0,0,1-.631.262c-.832-.009-1.663,0-2.495,0h-.193v-1.133h.206c.735,0,1.471,0,2.206,0a.361.361,0,0,0,.284-.113q2.7-2.709,5.41-5.413c.031-.031.062-.064.093-.1l-.009-.035h-2.53v-1.122c.057,0,.112-.011.167-.011,1.244,0,2.489.006,3.734,0a.589.589,0,0,1,.621.608C1908.782,1171.5,1908.785,1172.578,1908.785,1173.652Z" transform="translate(-1884.427 -1159.065)"/>
        <path id="Path_19977" data-name="Path 19977" d="M1776.273,1065.87V1067a12.438,12.438,0,0,0-11.875,8.723l-1.083-.341a13.557,13.557,0,0,1,12.959-9.514Z" transform="translate(-1758.715 -1062.474)"/>
        <path id="Path_19978" data-name="Path 19978" d="M1764.047,1265.761v1.133h-.212c-1.3,0-2.59,0-3.886,0a.41.41,0,0,0-.324.137c-.415.425-.838.842-1.257,1.262a1.033,1.033,0,0,0-.09.115l-.813-.813a1.011,1.011,0,0,1,.071-.079c.512-.513,1.027-1.022,1.535-1.538a.678.678,0,0,1,.513-.217c1.431,0,2.862,0,4.293,0Z" transform="translate(-1753.279 -1248.214)"/>
        <path id="Path_19979" data-name="Path 19979" d="M1867.855,1265.765v1.1h-1.11v-1.094A6.336,6.336,0,0,1,1867.855,1265.765Z" transform="translate(-1854.823 -1248.2)"/>
      </g>
    </g>
  </g>
</svg>
