<svg xmlns="http://www.w3.org/2000/svg" width="66" height="66" viewBox="0 0 66 66">
  <g id="Group_14245" data-name="Group 14245" transform="translate(0 0.186)">
    <rect id="Rectangle_4088" data-name="Rectangle 4088" width="66" height="66" rx="22" transform="translate(0 -0.186)" fill="#afa3fd"/>
    <g id="Group_12912" data-name="Group 12912" transform="translate(18.149 11.549)">
      <path id="Path_19545" data-name="Path 19545" d="M1279.374,883.849s-9.367-4.571-7.494,26.3h14.387l2.035-2.248V894.71l-2.035-6.47Z" transform="translate(-1261.703 -873.582)" fill="#ffc66c"/>
      <path id="Path_19546" data-name="Path 19546" d="M1274.854,967.572c-1.262,0-2.525.012-3.788,0-1.04-.014-1.49-.534-1.406-1.574a5.216,5.216,0,0,1,10.406.017c.079,1.03-.378,1.545-1.424,1.557C1277.38,967.583,1276.117,967.572,1274.854,967.572Z" transform="translate(-1260.157 -934.056)" fill="#fff"/>
      <path id="Path_19547" data-name="Path 19547" d="M1287.7,966.119s-4.584-3.6,1.813-7.569l1.151.574s2.245,1.3,2.247,1.824a8.861,8.861,0,0,0,.9,2.155v2.042l-.9.974Z" transform="translate(-1272.99 -932.022)" fill="#4dbaf6"/>
      <path id="Path_19548" data-name="Path 19548" d="M1237.689,875.9c-1.588,0-3.128,0-4.667,0a4.175,4.175,0,0,1-4.5-4.469q-.01-5.493,0-10.986a12.689,12.689,0,0,1,8.834-12.507c.123-.044.237-.113.362-.172a12.749,12.749,0,0,0-1.074-1.282,1.358,1.358,0,0,0-.847-.307c-2.5-.023-5.01-.01-7.515-.015-1.287,0-1.733-.454-1.742-1.74,0-.661-.011-1.322,0-1.982a1.382,1.382,0,0,1,1.586-1.561c2.532-.011,5.065-.018,7.6.007a1.235,1.235,0,0,0,1.146-.582,5.384,5.384,0,0,1,8.762.031,1.164,1.164,0,0,0,1.079.549c2.5-.022,5.01-.014,7.515-.008,1.241,0,1.7.461,1.712,1.687.007.661.009,1.322,0,1.982-.016,1.129-.487,1.61-1.616,1.615-2.395.01-4.79.032-7.184-.013a1.594,1.594,0,0,0-1.7.813,4.448,4.448,0,0,1-.708.786c.219.093.4.183.588.248a12.741,12.741,0,0,1,8.63,11.831c.015.633,0,1.267.009,1.9.008.578-.123,1.1-.806,1.113-.739.011-.824-.546-.858-1.15a24.933,24.933,0,0,0-.332-4.18,11.026,11.026,0,0,0-21.766,2.3c-.079,3.936-.032,7.875-.016,11.812a2.458,2.458,0,0,0,2.573,2.621c1.645.026,3.291.006,4.982.006l.046-.931c-.238-.031-.444-.064-.652-.084a2.878,2.878,0,0,1-2.748-3.259,6.86,6.86,0,0,1,5.489-6.315c.158-.035.313-.084.541-.146V857.16c0-.578,0-1.157,0-1.735s.212-1.006.84-1,.813.465.812,1.025q0,3.635,0,7.269c0,.246,0,.493,0,.78.236.062.442.123.652.171a6.889,6.889,0,0,1,5.387,6.407c.1,1.876-1.018,2.965-3.32,3.205-.022.145-.057.3-.065.457a3.89,3.89,0,0,0,.032.456c1.856,0,3.7.083,5.524-.03a2.31,2.31,0,0,0,2.016-2.366c.033-.8.018-1.6.01-2.4-.006-.564.179-1.031.791-1.052.663-.022.873.453.867,1.056-.009.826.018,1.653-.01,2.478a4.129,4.129,0,0,1-4.046,4c-1.7.036-3.4.007-5.176.007.048,1.433-.073,2.8-1.289,3.617a4.6,4.6,0,0,1-2.264.8C1239.137,880.392,1238.116,879.037,1237.689,875.9Zm3.54-4.32c1.263,0,2.525.011,3.788,0,1.046-.012,1.5-.527,1.424-1.557a5.216,5.216,0,0,0-10.406-.017c-.084,1.039.366,1.56,1.406,1.574C1238.7,871.592,1239.967,871.58,1241.23,871.58Zm.039-24.272a3.791,3.791,0,1,0-3.82-3.76A3.823,3.823,0,0,0,1241.268,847.308Zm-1.829,25.965c0,1.3-.036,2.506.011,3.707a1.771,1.771,0,0,0,1.681,1.715,1.727,1.727,0,0,0,1.876-1.484c.086-1.3.022-2.608.022-3.938Zm-8.07-28.823h4.409v-1.877h-4.409Zm15.32-.005h4.409v-1.869h-4.409Zm-18.443-1.9v1.9h1.359v-1.9Zm24.6.017v1.893h1.385v-1.893Z" transform="translate(-1226.532 -838.063)"/>
      <path id="Path_19549" data-name="Path 19549" d="M1290.861,896.986c.2.332.567.681.537.991-.026.27-.565.735-.771.685a1.193,1.193,0,0,1-.74-.825c-.033-.255.4-.57.632-.858Z" transform="translate(-1275.936 -884.007)"/>
      <path id="Path_19550" data-name="Path 19550" d="M1344.483,962.07c-.218-.313-.612-.632-.6-.936.01-.271.506-.763.721-.729a1.189,1.189,0,0,1,.8.759c.054.242-.36.587-.566.887Z" transform="translate(-1318.045 -933.467)"/>
      <path id="Path_19551" data-name="Path 19551" d="M1279.93,853.2a3.791,3.791,0,1,1,3.76-3.821A3.822,3.822,0,0,1,1279.93,853.2Zm2.607-3.623a2.631,2.631,0,0,0-2.451-2.774c-.335.011-.657.417-.985.641.237.316.418.818.723.91a1.48,1.48,0,0,1,1.132,1.134,1.215,1.215,0,0,0,.914.665C1282.126,850.166,1282.406,849.7,1282.537,849.577Z" transform="translate(-1265.194 -843.955)" fill="#fff"/>
      <path id="Path_19552" data-name="Path 19552" d="M1287.6,1003.274a1.89,1.89,0,0,1-.806.128,1.772,1.772,0,0,1-1.682-1.715c-.046-1.2-.011-2.406-.011-3.708h1.367c0,1.3-.035,2.506.013,3.708A1.749,1.749,0,0,0,1287.6,1003.274Z" transform="translate(-1272.199 -962.77)" fill="#fff"/>
      <path id="Path_19553" data-name="Path 19553" d="M1293.518,1001.918a1.611,1.611,0,0,1-1.07,1.356,1.749,1.749,0,0,1-1.119-1.587c-.048-1.2-.013-2.406-.013-3.708h2.224C1293.54,999.309,1293.6,1000.619,1293.518,1001.918Z" transform="translate(-1277.043 -962.77)" fill="#898998"/>
      <path id="Path_19554" data-name="Path 19554" d="M1248.5,860.424v-1.877h4.409v1.877Z" transform="translate(-1243.664 -854.037)" fill="#fff"/>
      <path id="Path_19555" data-name="Path 19555" d="M1256.421,860.424v-1.877h2.665v1.877Z" transform="translate(-1249.84 -854.037)" fill="#4dbaf6"/>
      <path id="Path_19556" data-name="Path 19556" d="M1318.081,860.425v-1.869h4.409v1.869Z" transform="translate(-1297.925 -854.044)" fill="#4dbaf6"/>
      <path id="Path_19557" data-name="Path 19557" d="M1234.316,858.426h1.359v1.9h-1.359Z" transform="translate(-1232.602 -853.943)" fill="#fff"/>
      <path id="Path_19558" data-name="Path 19558" d="M1346.035,858.5h1.385V860.4h-1.385Z" transform="translate(-1319.724 -854.002)" fill="#4dbaf6"/>
      <path id="Path_19559" data-name="Path 19559" d="M1293.129,853.768c-.13.123-.41.589-.668.577a1.215,1.215,0,0,1-.914-.665,1.48,1.48,0,0,0-1.132-1.134c-.305-.093-.486-.594-.723-.91.328-.224.65-.63.985-.641A2.631,2.631,0,0,1,1293.129,853.768Z" transform="translate(-1275.786 -848.147)"/>
    </g>
  </g>
</svg>
