<?xml version="1.0" encoding="utf-8"?>
<!-- Generator: Adobe Illustrator 25.3.1, SVG Export Plug-In . SVG Version: 6.00 Build 0)  -->
<svg version="1.1" id="Layer_1" xmlns="http://www.w3.org/2000/svg" xmlns:xlink="http://www.w3.org/1999/xlink" x="0px" y="0px"
	 viewBox="0 0 23.7 23.7" style="enable-background:new 0 0 23.7 23.7;" xml:space="preserve">
<style type="text/css">
	.st0{fill:url(#SVGID_1_);}
	.st1{fill:#FFFFFF;}
	.st2{fill:url(#SVGID_2_);}
	.st3{fill:url(#SVGID_3_);}
	.st4{fill:url(#SVGID_4_);}
	.st5{fill:url(#SVGID_5_);}
	.st6{fill:#26304E;}
	.st7{fill:url(#SVGID_6_);}
	.st8{fill:url(#SVGID_7_);}
	.st9{fill:#3E4762;}
	.st10{fill:#D97700;}
	.st11{fill:url(#SVGID_8_);}
	.st12{fill:url(#SVGID_9_);}
	.st13{fill:url(#SVGID_10_);}
	.st14{fill:url(#SVGID_11_);}
	.st15{fill:url(#SVGID_12_);}
	.st16{fill:#C54D07;}
	.st17{fill:url(#SVGID_13_);}
	.st18{fill:url(#SVGID_14_);}
	.st19{fill:url(#SVGID_15_);}
	.st20{fill:url(#SVGID_16_);}
	.st21{fill:#6D8091;}
	.st22{fill:#CE6704;}
	.st23{fill:url(#SVGID_17_);}
</style>
<g>
	<linearGradient id="SVGID_1_" gradientUnits="userSpaceOnUse" x1="11.8525" y1="-0.1013" x2="11.8525" y2="23.6037">
		<stop  offset="0" style="stop-color:#FDE970"/>
		<stop  offset="0.5" style="stop-color:#FDCB56"/>
		<stop  offset="1" style="stop-color:#F8A337"/>
	</linearGradient>
	<circle class="st0" cx="11.9" cy="11.9" r="11.9"/>
	<g>
		<linearGradient id="SVGID_2_" gradientUnits="userSpaceOnUse" x1="11.8525" y1="12.7304" x2="11.8525" y2="20.6321">
			<stop  offset="0" style="stop-color:#512512"/>
			<stop  offset="1" style="stop-color:#8D4C1A"/>
		</linearGradient>
		<path class="st2" d="M19.1,13.7c-0.1,2-1,3.9-2.5,5.1c-1.3,1.1-3,1.8-4.8,1.8S8.3,20,7,18.8c-1.4-1.3-2.4-3.1-2.5-5.1
			c2-0.6,4.5-1,7.3-1S17.2,13.1,19.1,13.7z"/>
		<linearGradient id="SVGID_3_" gradientUnits="userSpaceOnUse" x1="11.8525" y1="17.0034" x2="11.8525" y2="20.6503">
			<stop  offset="0" style="stop-color:#F6486A"/>
			<stop  offset="0.5" style="stop-color:#DE274D"/>
			<stop  offset="1" style="stop-color:#BD192B"/>
		</linearGradient>
		<path class="st3" d="M16.7,18.8c-1.3,1.1-3,1.8-4.8,1.8S8.3,20,7,18.8c1.3-1.1,3-1.8,4.8-1.8S15.4,17.7,16.7,18.8z"/>
	</g>
	<g>
		<path class="st6" d="M5.2,10.9c-0.2,0-0.4-0.1-0.5-0.3C4.5,10.4,4.6,10,4.8,9.8c1.1-0.7,2.4-1.2,3.3-1.6C7.3,7.7,6.2,7.1,5.5,6.6
			C5.2,6.4,5.1,6.1,5.3,5.8c0.2-0.3,0.5-0.4,0.8-0.2c0.3,0.2,3.1,1.9,3.8,2.5C10,8.2,10.1,8.5,10,8.7C9.9,8.9,9.8,9,9.6,9.1
			c0,0-2.4,0.6-4.1,1.7C5.4,10.9,5.3,10.9,5.2,10.9z"/>
		<path class="st6" d="M18.5,10.9c0.2,0,0.4-0.1,0.5-0.3c0.2-0.3,0.1-0.7-0.2-0.8c-1.1-0.7-2.4-1.2-3.3-1.6c0.8-0.5,1.9-1.2,2.6-1.7
			c0.3-0.2,0.4-0.5,0.2-0.8c-0.2-0.3-0.5-0.4-0.8-0.2c-0.3,0.2-3.1,1.9-3.8,2.5c-0.2,0.2-0.2,0.4-0.2,0.6c0.1,0.2,0.2,0.4,0.4,0.4
			c0,0,2.4,0.6,4.1,1.7C18.3,10.9,18.4,10.9,18.5,10.9z"/>
	</g>
</g>
</svg>
