<?xml version="1.0" encoding="utf-8"?>
<!-- Generator: Adobe Illustrator 25.3.1, SVG Export Plug-In . SVG Version: 6.00 Build 0)  -->
<svg version="1.1" id="Layer_1" xmlns="http://www.w3.org/2000/svg" xmlns:xlink="http://www.w3.org/1999/xlink" x="0px" y="0px"
	 viewBox="0 0 23.7 23.7" style="enable-background:new 0 0 23.7 23.7;" xml:space="preserve">
<style type="text/css">
	.st0{fill:url(#SVGID_1_);}
	.st1{fill:#FFFFFF;}
	.st2{fill:url(#SVGID_2_);}
	.st3{fill:url(#SVGID_3_);}
	.st4{fill:url(#SVGID_4_);}
	.st5{fill:url(#SVGID_5_);}
	.st6{fill:#26304E;}
	.st7{fill:url(#SVGID_6_);}
	.st8{fill:url(#SVGID_7_);}
	.st9{fill:#3E4762;}
	.st10{fill:#D97700;}
	.st11{fill:url(#SVGID_8_);}
	.st12{fill:url(#SVGID_9_);}
	.st13{fill:url(#SVGID_10_);}
	.st14{fill:url(#SVGID_11_);}
	.st15{fill:url(#SVGID_12_);}
	.st16{fill:#C54D07;}
	.st17{fill:url(#SVGID_13_);}
	.st18{fill:url(#SVGID_14_);}
	.st19{fill:url(#SVGID_15_);}
	.st20{fill:url(#SVGID_16_);}
	.st21{fill:#6D8091;}
	.st22{fill:#CE6704;}
	.st23{fill:url(#SVGID_17_);}
</style>
<g>
	<linearGradient id="SVGID_1_" gradientUnits="userSpaceOnUse" x1="11.8525" y1="-0.1013" x2="11.8525" y2="23.6037">
		<stop  offset="0" style="stop-color:#32A4FC"/>
		<stop  offset="0.5" style="stop-color:#237DF5"/>
		<stop  offset="1" style="stop-color:#1558ED"/>
	</linearGradient>
	<circle class="st0" cx="11.9" cy="11.9" r="11.9"/>
	<g>
		<path class="st1" d="M7.1,18.2H6.3c-0.8,0-1.4-0.6-1.4-1.4v-5.7c0-0.8,0.6-1.4,1.4-1.4h0.8c0.8,0,1.4,0.6,1.4,1.4v5.7
			C8.5,17.6,7.9,18.2,7.1,18.2z"/>
		<path class="st1" d="M14,9.1h4.3c0,0,0.6,0,0.6,1.2c0,1.2-0.6,1.2-0.6,1.2s0.6,0,0.6,1.2c0,1.2-0.6,1.2-0.6,1.2s0.6,1.2-0.6,1.8
			c0,0,0.6,1.8-1.2,1.8h-4.2c-0.8,0-1.6-0.3-2.2-0.9l0,0c-0.6-0.6-0.9-1.4-0.9-2.2v-2.5c0-0.7,0.3-1.3,0.7-1.8c1-1,2.4-2.9,1.1-4.2
			c0,0,0.2-2.7,2.4-1.2C15.2,6.1,14,9.1,14,9.1z"/>
	</g>
</g>
</svg>
