<svg width="1325" height="1210" viewBox="0 0 1325 1210" fill="none" xmlns="http://www.w3.org/2000/svg">
<path d="M647.175 476.063V532.6L589.27 569.656V783.338L573.738 779.251V448.885L647.175 476.063Z" fill="#1B83C6"/>
<path d="M682.527 0C574.077 0.0165017 467.841 30.6916 376.077 88.486C284.313 146.28 210.76 228.839 163.905 326.636C117.049 424.433 98.8006 533.484 111.265 641.206C123.729 748.928 166.397 850.932 234.347 935.448L236.527 938.036L238.571 940.556C242.249 944.984 245.86 949.343 249.13 952.886H1114.83C1119.09 949.163 1122.97 945.034 1126.42 940.556C1127.16 939.739 1127.85 938.854 1128.53 938.036L1130.64 935.448C1198.61 850.944 1241.3 748.943 1253.79 641.218C1266.27 533.492 1248.03 424.433 1201.18 326.628C1154.32 228.823 1080.77 146.259 988.998 88.4648C897.227 30.6707 790.983 0.0025377 682.527 0ZM700.171 900.095C429.042 796.558 320.59 782.594 198.855 831.365C200.354 829.049 250.969 754.87 407.106 755.619V542.754L573.735 440.579L647.171 473.003V391.263L606.298 379.41V448.208L573.19 432.95L486.81 486.899V424.027L606.298 353.117L647.171 375.323V328.255L867.004 228.191L1047.73 317.288L867.004 239.158V629.672L914.69 606.035L1013.67 644.385L913.668 620.816V875.709C997.01 882.618 1080.92 875.363 1161.84 854.253C1164.5 854.253 971.368 1003.63 700.171 900.095ZM712.024 825.167C726.466 830.888 741.249 836.951 756.372 843.49C767.871 847.801 779.581 851.529 791.455 854.661V666.999L844.728 640.638V590.368L711.956 529.744L712.024 825.167Z" fill="white"/>
<path d="M1324.99 1001.32V1164.8C1325.16 1176.42 1320.7 1187.63 1312.6 1195.97C1304.51 1204.31 1293.43 1209.1 1281.8 1209.28H43.1272C37.3747 1209.19 31.696 1207.97 26.4155 1205.69C21.135 1203.4 16.3561 1200.1 12.3517 1195.97C8.34735 1191.84 5.19598 1186.96 3.07757 1181.61C0.95917 1176.26 -0.0847642 1170.55 0.0053947 1164.8V1001.32C-0.176798 989.695 4.26227 978.475 12.3476 970.122C20.4329 961.769 31.5033 956.967 43.1272 956.77H1281.8C1287.57 956.858 1293.25 958.081 1298.54 960.368C1303.83 962.655 1308.62 965.961 1312.63 970.098C1316.64 974.235 1319.8 979.121 1321.92 984.478C1324.04 989.835 1325.08 995.557 1324.99 1001.32Z" fill="#204180"/>
<path d="M579.049 246.716C579.062 271.592 571.696 295.913 557.884 316.601C544.071 337.29 524.431 353.418 501.45 362.943C478.468 372.469 453.177 374.965 428.777 370.115C404.377 365.266 381.963 353.288 364.372 335.699C346.781 318.109 334.802 295.697 329.952 271.299C325.102 246.901 327.598 221.613 337.125 198.633C346.651 175.654 362.78 156.016 383.471 142.204C404.161 128.393 428.484 121.028 453.362 121.041C486.691 121.059 518.649 134.306 542.216 157.87C565.783 181.435 579.031 213.391 579.049 246.716Z" fill="#F48120"/>
<path d="M913.668 875.707V620.815L1013.67 644.383L914.758 606.238L867.072 629.874V239.156L1047.73 317.286L867.004 228.189L647.172 328.253V375.322L606.298 353.116L486.811 424.025V486.897L573.463 432.948L606.298 448.207V379.409L647.172 391.465V473.205L573.735 440.918L407.107 543.093V755.958C250.969 755.209 200.354 829.388 198.855 831.704C320.591 782.932 429.043 796.896 700.171 900.434C971.3 1003.97 1164.5 854.591 1161.84 854.591C1080.9 875.588 996.991 882.727 913.668 875.707ZM647.172 532.603L589.267 569.659V783.341L573.735 779.254V448.888L647.036 476.135L647.172 532.603ZM712.161 825.029V529.742L844.728 590.366V640.637L791.388 666.998V854.523C779.513 851.391 767.804 847.663 756.305 843.352C741.249 836.813 726.467 831.023 712.025 825.029H712.161Z" fill="#1B83C6"/>
<path d="M83.7288 1107.31H35.4297V996.96H78.3471C84.901 996.815 91.435 997.736 97.694 999.685C102.324 1000.97 106.531 1003.47 109.888 1006.91C114.683 1012.18 117.332 1019.05 117.313 1026.18C117.59 1029.83 116.978 1033.49 115.53 1036.84C114.083 1040.2 111.843 1043.16 109.002 1045.46C107.772 1046.49 106.449 1047.4 105.051 1048.18C104.37 1048.59 103.008 1049.21 101.168 1050.02C107.469 1051.19 113.199 1054.43 117.45 1059.22C121.587 1064.07 123.772 1070.28 123.581 1076.66C123.647 1084.23 120.821 1091.54 115.678 1097.09C109.502 1103.95 98.852 1107.35 83.7288 1107.31ZM60.022 1041.64H71.671C76.8498 1041.89 82.0283 1041.15 86.9306 1039.47C88.6476 1038.57 90.0467 1037.17 90.9368 1035.45C91.8269 1033.73 92.1645 1031.78 91.9035 1029.86C92.1605 1027.98 91.866 1026.06 91.0558 1024.35C90.2456 1022.63 88.9546 1021.19 87.3393 1020.19C82.4169 1018.29 77.1417 1017.47 71.8754 1017.8H60.022V1041.64ZM60.022 1086.47H76.9165C82.3313 1086.74 87.7429 1085.86 92.7891 1083.88C94.5861 1082.88 96.0446 1081.37 96.9788 1079.53C97.913 1077.7 98.2805 1075.63 98.0346 1073.59C98.2866 1071.54 97.8819 1069.45 96.8785 1067.64C95.8751 1065.83 94.3244 1064.39 92.4485 1063.51C86.6875 1061.56 80.6061 1060.73 74.5322 1061.06H60.022V1086.47ZM173.378 1078.84C175.337 1081.33 177.859 1083.32 180.737 1084.64C183.615 1085.97 186.766 1086.59 189.932 1086.47C193.089 1086.6 196.233 1085.98 199.101 1084.65C201.968 1083.32 204.477 1081.33 206.418 1078.84C210.793 1072.77 212.957 1065.39 212.549 1057.92V996.96H237.141V1058.67C237.542 1065.42 236.538 1072.18 234.193 1078.53C231.847 1084.87 228.212 1090.66 223.517 1095.53C218.997 1099.85 213.65 1103.22 207.798 1105.43C201.945 1107.64 195.707 1108.65 189.455 1108.4C183.2 1108.64 176.961 1107.61 171.109 1105.39C165.258 1103.17 159.913 1099.79 155.394 1095.46C150.693 1090.61 147.054 1084.83 144.709 1078.5C142.363 1072.17 141.362 1065.41 141.769 1058.67V996.96H166.362V1057.92C166.208 1065.5 168.688 1072.89 173.378 1078.84ZM262.687 997.096H287.348V1107.45H262.687V997.096ZM314.461 1107.45V997.096H339.121V1085.65H386.126V1107.58L314.461 1107.45ZM488.447 1011.4C493.823 1016.56 498.018 1022.83 500.746 1029.77C503.474 1036.7 504.67 1044.15 504.251 1051.59C504.642 1059.1 503.476 1066.6 500.827 1073.63C498.177 1080.67 494.102 1087.08 488.855 1092.46C478.546 1102.45 462.878 1107.45 441.851 1107.45H404.179V997.096H443.145C462.81 997.006 477.91 1001.77 488.447 1011.4ZM470.394 1077C473.566 1073.74 476.013 1069.84 477.574 1065.57C479.136 1061.3 479.776 1056.74 479.454 1052.2C479.754 1047.64 479.104 1043.06 477.545 1038.75C475.985 1034.45 473.55 1030.52 470.394 1027.2C462.678 1020.82 452.791 1017.67 442.804 1018.42H429.18V1085.51H444.848C454.139 1086.05 463.281 1083 470.394 1077ZM525.574 996.96H550.166V1107.31H525.574V996.96ZM654.53 996.96H679.122V1107.31H654.53L601.939 1038.17V1107.31H577.347V996.96H600.372L654.871 1068.01L654.53 996.96ZM777.969 1051.11H802.765V1090.28C796.978 1096.47 789.905 1101.32 782.044 1104.49C774.182 1107.65 765.722 1109.06 757.259 1108.6C749.711 1108.8 742.2 1107.47 735.177 1104.7C728.154 1101.92 721.762 1097.76 716.386 1092.46C705.668 1081.56 699.663 1066.88 699.663 1051.59C699.663 1036.3 705.668 1021.62 716.386 1010.72C721.733 1005.36 728.112 1001.14 735.138 998.319C742.164 995.497 749.69 994.131 757.259 994.304C772.373 994.181 786.974 999.777 798.133 1009.97L785.871 1028.57C781.866 1024.84 777.26 1021.83 772.246 1019.64C767.903 1017.96 763.278 1017.13 758.622 1017.19C754.241 1017.1 749.887 1017.89 745.824 1019.53C741.76 1021.17 738.072 1023.62 734.983 1026.73C728.824 1033.62 725.385 1042.51 725.31 1051.75C725.235 1060.99 728.528 1069.94 734.574 1076.93C737.392 1079.93 740.803 1082.32 744.59 1083.94C748.378 1085.56 752.46 1086.37 756.578 1086.33C763.992 1086.59 771.345 1084.9 777.901 1081.42L777.969 1051.11ZM917.007 1085.51C922.742 1085.63 928.423 1084.39 933.585 1081.89C938.748 1079.4 943.245 1075.71 946.709 1071.14L962.513 1087.42C957.302 1093.61 950.883 1098.67 943.65 1102.29C936.416 1105.92 928.519 1108.03 920.442 1108.5C912.364 1108.98 904.276 1107.8 896.669 1105.04C889.063 1102.28 882.099 1098 876.202 1092.46C870.759 1087.17 866.482 1080.8 863.643 1073.77C860.804 1066.73 859.466 1059.17 859.716 1051.59C859.544 1043.98 860.95 1036.43 863.846 1029.39C866.742 1022.36 871.065 1016 876.542 1010.72C881.913 1005.39 888.297 1001.19 895.317 998.374C902.337 995.554 909.852 994.17 917.416 994.304C926.031 994.133 934.575 995.877 942.433 999.411C950.291 1002.95 957.266 1008.18 962.854 1014.74L947.526 1032.11C944.187 1027.56 939.815 1023.86 934.77 1021.33C929.725 1018.79 924.151 1017.49 918.506 1017.53C909.699 1017.39 901.178 1020.66 894.731 1026.66C891.428 1029.79 888.836 1033.59 887.132 1037.81C885.428 1042.03 884.651 1046.57 884.853 1051.11C884.618 1055.74 885.351 1060.37 887.005 1064.69C888.659 1069.02 891.197 1072.96 894.459 1076.25C897.379 1079.26 900.888 1081.64 904.768 1083.23C908.647 1084.82 912.814 1085.6 917.007 1085.51ZM1059.72 1107.31L1049.51 1083.47H1003.25L992.964 1107.31H966.737L1014.42 996.96H1038.27L1085.95 1107.31H1059.72ZM1026.41 1029.79L1012.79 1061.88H1040.45L1026.41 1029.79ZM1188.27 1033.61C1188.27 1051.23 1181.26 1062.58 1167.22 1067.67L1195.15 1107.1H1164.91L1140.38 1071.89H1123.35V1107.1H1098.76V996.756H1140.59C1157.75 996.756 1169.97 999.662 1177.24 1005.47C1181.16 1008.96 1184.21 1013.33 1186.13 1018.22C1188.05 1023.11 1188.78 1028.38 1188.27 1033.61ZM1158.57 1046.69C1160.22 1044.97 1161.48 1042.92 1162.27 1040.68C1163.05 1038.43 1163.35 1036.04 1163.14 1033.68C1163.41 1031.4 1163.12 1029.1 1162.3 1026.96C1161.48 1024.83 1160.15 1022.92 1158.43 1021.41C1153.31 1018.8 1147.55 1017.67 1141.81 1018.14H1123.35V1050.77H1141.34C1147.38 1051.42 1153.46 1049.97 1158.57 1046.69ZM1293.05 996.96V1018.89H1238.14V1041.64H1287.53V1062.62H1238.14V1085.51H1294.82V1107.31H1213.48V996.96H1293.05ZM130.87 1135.24H120.038V1130.74H146.334V1135.03H135.638V1178.42H130.87V1135.24ZM150.898 1130.95H155.598V1148.25C156.624 1146.42 158.163 1144.92 160.026 1143.96C161.907 1142.93 164.015 1142.39 166.157 1142.39C168.509 1142.32 170.844 1142.81 172.97 1143.82C174.992 1144.66 176.772 1146 178.147 1147.7C179.585 1149.33 180.633 1151.26 181.213 1153.36C181.747 1155.42 181.999 1157.56 181.962 1159.69V1178.42H177.125V1160.03C177.231 1158.31 177.07 1156.59 176.648 1154.92C176.322 1153.75 175.792 1152.64 175.081 1151.65C174.097 1150.26 172.756 1149.15 171.199 1148.45C169.602 1147.69 167.857 1147.3 166.089 1147.29C164.425 1147.32 162.791 1147.74 161.321 1148.52C159.831 1149.21 158.524 1150.23 157.506 1151.52C156.77 1152.6 156.281 1153.83 156.075 1155.13C155.844 1156.75 155.73 1158.39 155.735 1160.03V1178.42H151.034L150.898 1130.95ZM219.634 1147.7C221.347 1149.34 222.712 1151.31 223.648 1153.48C224.585 1155.66 225.073 1158 225.084 1160.37C225.102 1162.78 224.641 1165.18 223.729 1167.41C222.817 1169.64 221.471 1171.67 219.77 1173.38C218.157 1175.17 216.18 1176.6 213.971 1177.56C211.762 1178.52 209.373 1179 206.963 1178.97C204.558 1179 202.171 1178.55 199.947 1177.64C197.722 1176.72 195.706 1175.37 194.02 1173.66C192.299 1172 190.935 1170.01 190.01 1167.81C189.084 1165.6 188.618 1163.24 188.638 1160.85C188.588 1158.42 189.033 1156.01 189.947 1153.76C190.86 1151.51 192.223 1149.47 193.952 1147.77C195.654 1146.05 197.681 1144.69 199.915 1143.77C202.149 1142.85 204.545 1142.38 206.963 1142.39C209.324 1142.37 211.664 1142.84 213.841 1143.75C216.019 1144.66 217.989 1146.01 219.634 1147.7ZM197.562 1151.18C196.295 1152.47 195.299 1154.01 194.632 1155.69C193.966 1157.37 193.642 1159.17 193.679 1160.99C193.679 1164.6 195.114 1168.06 197.67 1170.62C200.225 1173.17 203.69 1174.61 207.304 1174.61C209.091 1174.68 210.872 1174.36 212.52 1173.66C214.168 1172.97 215.643 1171.92 216.841 1170.59C218.112 1169.27 219.105 1167.71 219.761 1166.01C220.416 1164.3 220.72 1162.47 220.656 1160.64C220.699 1158.85 220.357 1157.08 219.651 1155.43C218.946 1153.79 217.895 1152.31 216.568 1151.11C215.356 1149.88 213.914 1148.91 212.324 1148.24C210.734 1147.58 209.028 1147.23 207.304 1147.23C205.493 1147.16 203.69 1147.48 202.011 1148.16C200.333 1148.84 198.816 1149.87 197.562 1151.18ZM205.737 1130.74H209.824L219.157 1138.78H213.435L207.78 1134.15L202.331 1138.78H196.608L205.737 1130.74ZM234.961 1143.07H239.389V1148.18C240.548 1146.36 242.15 1144.87 244.046 1143.85C245.941 1142.82 248.066 1142.3 250.221 1142.32C252.577 1142.29 254.909 1142.8 257.033 1143.82C259.219 1144.83 261.15 1146.32 262.687 1148.18C263.872 1149.64 264.731 1151.33 265.208 1153.15C265.658 1155.28 265.864 1157.45 265.821 1159.62V1178.42H261.121V1160.03C261.191 1158.32 261.03 1156.6 260.644 1154.92C260.351 1153.55 259.745 1152.27 258.873 1151.18C257.842 1149.75 256.478 1148.59 254.899 1147.81C253.321 1147.02 251.574 1146.64 249.812 1146.68C248.157 1146.72 246.53 1147.11 245.044 1147.84C243.553 1148.52 242.264 1149.58 241.297 1150.9C240.543 1152 240.053 1153.26 239.866 1154.58C239.745 1156.19 239.745 1157.81 239.866 1159.42V1178.42H235.166L234.961 1143.07ZM308.807 1173.04C308.917 1175.32 308.757 1177.61 308.33 1179.85C307.719 1182.14 306.494 1184.21 304.787 1185.85C303.09 1187.69 300.992 1189.11 298.656 1190C296.23 1190.98 293.641 1191.49 291.027 1191.5C287.132 1191.56 283.335 1190.29 280.263 1187.89C277.079 1185.75 274.817 1182.49 273.928 1178.76H278.492C279.765 1181.19 281.612 1183.27 283.874 1184.83C286.105 1186.27 288.71 1187.03 291.367 1187.01C293.731 1187.04 296.069 1186.51 298.179 1185.44C300.198 1184.45 301.881 1182.88 303.016 1180.94C303.605 1179.86 304.018 1178.68 304.242 1177.47C304.334 1175.95 304.334 1174.43 304.242 1172.91V1171C303.075 1173.54 301.082 1175.6 298.588 1176.86C296.121 1178.12 293.388 1178.77 290.618 1178.76C288.273 1178.76 285.955 1178.27 283.806 1177.33C281.637 1176.43 279.651 1175.14 277.947 1173.52C276.191 1171.89 274.799 1169.9 273.86 1167.7C272.921 1165.49 272.457 1163.11 272.497 1160.71C272.509 1158.39 272.9 1156.09 273.655 1153.9C274.152 1152.43 274.888 1151.05 275.835 1149.81C277.67 1147.39 279.99 1145.37 282.647 1143.89C284.975 1142.82 287.512 1142.29 290.073 1142.32C292.902 1142.25 295.698 1142.94 298.179 1144.3C300.618 1145.52 302.635 1147.44 303.97 1149.81V1143H308.398L308.807 1173.04ZM280.808 1151.18C279.586 1152.4 278.624 1153.86 277.98 1155.46C277.336 1157.06 277.024 1158.78 277.061 1160.51C276.988 1162.35 277.282 1164.19 277.925 1165.92C278.568 1167.65 279.548 1169.24 280.808 1170.59C282.036 1171.9 283.526 1172.93 285.181 1173.63C286.837 1174.32 288.62 1174.65 290.413 1174.61C292.194 1174.68 293.969 1174.36 295.615 1173.68C297.262 1173 298.741 1171.97 299.951 1170.66C301.165 1169.34 302.134 1167.82 302.812 1166.16C303.528 1164.48 303.898 1162.68 303.902 1160.85C303.939 1159.03 303.587 1157.23 302.87 1155.56C302.153 1153.9 301.088 1152.4 299.746 1151.18C298.449 1149.89 296.906 1148.88 295.209 1148.2C293.512 1147.52 291.696 1147.19 289.868 1147.23C288.168 1147.23 286.486 1147.58 284.928 1148.26C283.369 1148.94 281.967 1149.93 280.808 1151.18ZM339.734 1147.77H332.445V1143.41H339.734V1130.74H344.435V1142.93H352.61V1147.29H344.435V1178.42H339.734V1147.77ZM357.923 1130.74H362.624V1138.71H357.923V1130.74ZM357.923 1142.93H362.624V1178.42H357.923V1142.93ZM371.548 1142.93H376.044V1148.04C377.202 1146.23 378.805 1144.73 380.7 1143.71C382.595 1142.68 384.721 1142.16 386.875 1142.19C389.237 1142.18 391.569 1142.71 393.703 1143.72C395.836 1144.73 397.716 1146.21 399.206 1148.04C400.435 1149.48 401.32 1151.18 401.794 1153.02C402.21 1155.15 402.416 1157.31 402.407 1159.49V1178.42H397.707V1160.03C397.797 1158.31 397.613 1156.59 397.162 1154.92C396.796 1153.53 396.095 1152.24 395.118 1151.18C394.084 1149.75 392.719 1148.6 391.141 1147.81C389.563 1147.03 387.819 1146.64 386.058 1146.68C384.402 1146.71 382.773 1147.1 381.289 1147.84C379.799 1148.52 378.509 1149.58 377.543 1150.9C376.796 1152.01 376.285 1153.27 376.044 1154.58C375.96 1156.19 375.96 1157.81 376.044 1159.42V1178.42H371.275L371.548 1142.93ZM429.18 1142.93H433.608V1148.04C434.771 1146.23 436.374 1144.74 438.268 1143.72C440.163 1142.69 442.286 1142.17 444.439 1142.19C446.795 1142.15 449.127 1142.66 451.251 1143.68C453.437 1144.7 455.368 1146.19 456.906 1148.04C458.115 1149.49 458.977 1151.19 459.426 1153.02C459.876 1155.14 460.082 1157.31 460.039 1159.49V1178.42H455.339V1160.03C455.409 1158.32 455.249 1156.6 454.862 1154.92C454.549 1153.79 454.016 1152.72 453.295 1151.79C452.28 1150.36 450.928 1149.2 449.36 1148.42C447.792 1147.64 446.056 1147.25 444.303 1147.29C442.625 1147.32 440.974 1147.72 439.466 1148.45C437.976 1149.14 436.686 1150.19 435.719 1151.52C434.966 1152.62 434.476 1153.88 434.289 1155.2C434.054 1156.8 433.94 1158.41 433.948 1160.03V1178.42H429.18V1142.93ZM468.01 1130.74H472.71V1148.04C473.736 1146.21 475.275 1144.72 477.138 1143.75C479.019 1142.73 481.127 1142.19 483.269 1142.19C485.621 1142.12 487.956 1142.61 490.082 1143.62C492.104 1144.46 493.884 1145.79 495.259 1147.5C496.697 1149.13 497.745 1151.06 498.324 1153.15C498.858 1155.22 499.111 1157.35 499.074 1159.49V1178.42H494.305V1160.03C494.41 1158.31 494.25 1156.59 493.828 1154.92C493.502 1153.75 492.972 1152.64 492.261 1151.65C491.277 1150.26 489.936 1149.15 488.378 1148.45C486.782 1147.69 485.037 1147.3 483.269 1147.29C481.605 1147.32 479.971 1147.74 478.501 1148.52C477.011 1149.21 475.704 1150.23 474.686 1151.52C473.95 1152.6 473.461 1153.83 473.255 1155.13C473.137 1156.76 473.137 1158.4 473.255 1160.03V1178.42H468.01V1130.74ZM542.536 1178.42H538.176V1171.61C536.899 1174.02 534.93 1175.99 532.522 1177.27C530.079 1178.52 527.369 1179.18 524.62 1179.17C521.835 1179.12 519.094 1178.47 516.581 1177.27C513.77 1175.9 511.266 1173.98 509.224 1171.61C508.268 1170.41 507.53 1169.05 507.044 1167.59C506.284 1165.4 505.87 1163.1 505.818 1160.78C505.812 1158.45 506.251 1156.14 507.112 1153.97C507.67 1152.5 508.476 1151.14 509.497 1149.95C511.618 1147.64 514.132 1145.73 516.922 1144.3C519.303 1143.16 521.912 1142.57 524.552 1142.59C527.303 1142.56 530.019 1143.22 532.454 1144.5C534.858 1145.71 536.849 1147.61 538.176 1149.95V1143.14H542.604L542.536 1178.42ZM514.606 1151.18C513.265 1152.42 512.202 1153.92 511.486 1155.6C510.77 1157.28 510.417 1159.09 510.45 1160.92C510.386 1162.74 510.725 1164.55 511.444 1166.22C512.162 1167.89 513.242 1169.38 514.606 1170.59C517.273 1173.16 520.846 1174.58 524.552 1174.54C528.165 1174.54 531.631 1173.11 534.186 1170.55C536.741 1168 538.176 1164.53 538.176 1160.92C538.223 1159.09 537.903 1157.28 537.236 1155.59C536.569 1153.89 535.568 1152.34 534.293 1151.04C533.04 1149.73 531.525 1148.69 529.848 1148C528.17 1147.31 526.366 1146.97 524.552 1147.02C522.698 1147 520.86 1147.36 519.15 1148.07C517.44 1148.79 515.894 1149.84 514.606 1151.18ZM551.324 1143.34H555.82V1148.45C556.974 1146.63 558.575 1145.14 560.472 1144.11C562.368 1143.08 564.496 1142.56 566.652 1142.59C569.006 1142.58 571.335 1143.09 573.464 1144.09C575.64 1145.09 577.552 1146.58 579.05 1148.45C580.285 1149.88 581.15 1151.59 581.57 1153.42C582.047 1155.55 582.276 1157.72 582.252 1159.9V1178.42H577.551V1160.03C577.641 1158.31 577.457 1156.59 577.006 1154.92C576.689 1153.8 576.182 1152.74 575.508 1151.79C573.976 1149.74 571.779 1148.29 569.294 1147.68C566.809 1147.07 564.189 1147.34 561.883 1148.45C560.506 1149.05 559.303 1149.99 558.386 1151.18C557.469 1152.38 556.867 1153.78 556.638 1155.26C556.516 1156.87 556.516 1158.49 556.638 1160.1V1178.42H551.937L551.324 1143.34ZM590.426 1130.74H595.127V1148.04C596.171 1146.23 597.706 1144.74 599.555 1143.75C601.457 1142.72 603.589 1142.18 605.754 1142.19C608.107 1142.11 610.443 1142.6 612.566 1143.62C614.604 1144.47 616.404 1145.8 617.812 1147.5C619.201 1149.16 620.243 1151.08 620.877 1153.15C621.351 1155.23 621.58 1157.36 621.559 1159.49V1178.42H616.858V1160.03C616.948 1158.31 616.764 1156.59 616.313 1154.92C616.012 1153.75 615.505 1152.65 614.814 1151.65C613.802 1150.26 612.439 1149.15 610.863 1148.45C609.267 1147.69 607.522 1147.3 605.754 1147.29C604.091 1147.33 602.459 1147.75 600.985 1148.52C599.515 1149.21 598.23 1150.23 597.239 1151.52C596.455 1152.58 595.94 1153.82 595.74 1155.13C595.622 1156.76 595.622 1158.4 595.74 1160.03V1178.42H591.04L590.426 1130.74ZM663.182 1156.56V1160.78H646.015V1156.56H663.182ZM713.661 1135.03H702.829V1130.74H728.92V1135.03H718.225V1178.42H713.524L713.661 1135.03ZM733.621 1130.74H738.389V1148.04C739.387 1146.21 740.904 1144.72 742.749 1143.75C744.651 1142.72 746.783 1142.18 748.948 1142.19C751.302 1142.1 753.64 1142.59 755.761 1143.62C757.798 1144.47 759.598 1145.8 761.006 1147.5C762.395 1149.16 763.438 1151.08 764.072 1153.15C764.546 1155.23 764.774 1157.36 764.753 1159.49V1178.42H760.052V1160.03C760.142 1158.31 759.958 1156.59 759.507 1154.92C759.206 1153.75 758.699 1152.65 758.009 1151.65C756.996 1150.26 755.633 1149.15 754.057 1148.45C752.464 1147.69 750.717 1147.29 748.948 1147.29C747.311 1147.36 745.705 1147.76 744.237 1148.49C742.769 1149.22 741.473 1150.25 740.433 1151.52C739.675 1152.6 739.163 1153.83 738.934 1155.13C738.934 1156.56 738.934 1158.12 738.934 1160.03V1178.42H734.166L733.621 1130.74ZM808.556 1177.88H803.855V1171.07C802.597 1173.46 800.652 1175.43 798.269 1176.72C795.823 1177.97 793.115 1178.63 790.367 1178.63C787.56 1178.57 784.797 1177.92 782.26 1176.72C779.469 1175.35 776.988 1173.43 774.971 1171.07C773.965 1169.9 773.222 1168.53 772.791 1167.05C772.009 1164.86 771.572 1162.56 771.497 1160.24C771.516 1157.9 771.978 1155.59 772.859 1153.42C773.396 1151.96 774.179 1150.6 775.176 1149.41C777.321 1147.09 779.858 1145.18 782.669 1143.75C785.086 1142.57 787.743 1141.95 790.435 1141.95C793.127 1141.95 795.784 1142.57 798.201 1143.75C800.594 1144.95 802.566 1146.85 803.855 1149.2V1142.39H808.351L808.556 1177.88ZM780.557 1150.63C779.23 1151.88 778.176 1153.39 777.461 1155.07C776.746 1156.74 776.385 1158.55 776.402 1160.37C776.352 1162.19 776.697 1164 777.415 1165.67C778.132 1167.34 779.205 1168.83 780.557 1170.04C783.254 1172.62 786.846 1174.03 790.571 1174C794.185 1174 797.65 1172.56 800.205 1170.01C802.76 1167.45 804.196 1163.99 804.196 1160.37C804.242 1158.55 803.923 1156.74 803.256 1155.04C802.589 1153.34 801.588 1151.8 800.313 1150.5C799.065 1149.18 797.551 1148.14 795.872 1147.44C794.193 1146.75 792.387 1146.42 790.571 1146.48C788.609 1146.47 786.667 1146.88 784.88 1147.69C783.093 1148.51 781.502 1149.69 780.217 1151.18L780.557 1150.63ZM817.344 1142.8H821.772V1147.91C822.93 1146.09 824.532 1144.6 826.428 1143.57C828.323 1142.55 830.448 1142.02 832.603 1142.05C834.965 1142.05 837.297 1142.57 839.43 1143.58C841.563 1144.6 843.443 1146.07 844.933 1147.91C846.163 1149.35 847.048 1151.05 847.522 1152.88C847.938 1155.01 848.144 1157.18 848.135 1159.35V1178.42H843.435V1160.03C843.525 1158.31 843.341 1156.59 842.89 1154.92C842.602 1153.79 842.093 1152.72 841.391 1151.79C840.357 1150.36 838.992 1149.21 837.414 1148.43C835.836 1147.64 834.092 1147.26 832.331 1147.29C830.676 1147.33 829.048 1147.72 827.562 1148.45C826.072 1149.14 824.782 1150.19 823.815 1151.52C823.068 1152.63 822.558 1153.88 822.317 1155.2C822.233 1156.81 822.233 1158.42 822.317 1160.03V1178.42H817.616L817.344 1142.8ZM856.446 1130.61H861.147V1147.91C862.145 1146.08 863.661 1144.58 865.506 1143.62C867.411 1142.59 869.541 1142.05 871.706 1142.05C874.06 1141.96 876.4 1142.45 878.518 1143.48C880.555 1144.33 882.355 1145.66 883.763 1147.36C885.201 1148.99 886.249 1150.92 886.829 1153.02C887.336 1155.09 887.565 1157.22 887.51 1159.35V1178.42H882.81V1160.03C882.88 1158.32 882.72 1156.6 882.333 1154.92C882.007 1153.75 881.476 1152.64 880.766 1151.65C879.753 1150.26 878.391 1149.15 876.815 1148.45C875.223 1147.68 873.475 1147.28 871.706 1147.29C870.044 1147.34 868.414 1147.76 866.937 1148.52C865.479 1149.22 864.198 1150.25 863.19 1151.52C862.425 1152.59 861.934 1153.83 861.76 1155.13C861.642 1156.76 861.642 1158.4 861.76 1160.03V1178.42H857.059L856.446 1130.61ZM917.757 1147.16H910.467V1142.8H917.757V1130.74H922.457V1142.93H930.632V1147.29H922.457V1178.42H917.757V1147.16ZM965.443 1147.16C967.168 1148.79 968.542 1150.75 969.479 1152.93C970.416 1155.11 970.897 1157.46 970.893 1159.83C970.942 1162.24 970.495 1164.64 969.582 1166.88C968.668 1169.12 967.306 1171.15 965.579 1172.84C963.972 1174.64 961.996 1176.06 959.785 1177.03C957.575 1177.99 955.183 1178.47 952.772 1178.42C950.368 1178.46 947.982 1178 945.758 1177.09C943.534 1176.17 941.517 1174.82 939.828 1173.11C938.123 1171.41 936.77 1169.4 935.846 1167.18C934.923 1164.95 934.447 1162.57 934.447 1160.17C934.447 1157.76 934.923 1155.38 935.846 1153.16C936.77 1150.94 938.123 1148.92 939.828 1147.23C941.513 1145.5 943.528 1144.14 945.752 1143.22C947.976 1142.29 950.363 1141.83 952.772 1141.84C955.173 1141.9 957.537 1142.45 959.716 1143.46C961.896 1144.46 963.845 1145.91 965.443 1147.7V1147.16ZM943.03 1150.5C940.515 1153.14 939.124 1156.66 939.147 1160.3C939.147 1163.92 940.583 1167.38 943.138 1169.94C945.693 1172.49 949.158 1173.93 952.772 1173.93C954.569 1173.99 956.358 1173.67 958.017 1172.98C959.675 1172.28 961.163 1171.23 962.377 1169.91C964.907 1167.22 966.277 1163.65 966.192 1159.96C966.222 1158.18 965.874 1156.4 965.169 1154.76C964.465 1153.11 963.42 1151.64 962.105 1150.43C960.882 1149.2 959.428 1148.22 957.826 1147.55C956.225 1146.89 954.507 1146.54 952.772 1146.54C950.91 1146.57 949.074 1146.99 947.393 1147.79C945.711 1148.59 944.222 1149.75 943.03 1151.18V1150.5ZM1013.33 1177.74H1008.84V1170.93C1007.58 1173.33 1005.63 1175.3 1003.25 1176.58C1000.8 1177.84 998.096 1178.49 995.349 1178.49C992.542 1178.44 989.779 1177.79 987.242 1176.58C984.451 1175.22 981.97 1173.29 979.953 1170.93C978.947 1169.76 978.203 1168.39 977.773 1166.91C976.991 1164.72 976.554 1162.42 976.479 1160.1C976.497 1157.76 976.96 1155.45 977.841 1153.29C978.378 1151.83 979.161 1150.47 980.157 1149.27C982.403 1147.21 984.983 1145.55 987.787 1144.36C990.204 1143.18 992.861 1142.56 995.553 1142.56C998.245 1142.56 1000.9 1143.18 1003.32 1144.36C1005.71 1145.57 1007.68 1147.47 1008.97 1149.81V1143H1013.47L1013.33 1177.74ZM985.335 1150.5C984.008 1151.74 982.953 1153.25 982.238 1154.93C981.523 1156.61 981.162 1158.41 981.179 1160.24C981.129 1162.05 981.474 1163.86 982.192 1165.53C982.909 1167.2 983.982 1168.69 985.335 1169.91C988.031 1172.48 991.623 1173.9 995.349 1173.86C997.118 1173.88 998.873 1173.53 1000.5 1172.84C1002.13 1172.15 1003.6 1171.13 1004.82 1169.84C1006.11 1168.63 1007.14 1167.16 1007.83 1165.53C1008.52 1163.9 1008.87 1162.14 1008.84 1160.37C1008.88 1158.55 1008.56 1156.74 1007.9 1155.04C1007.23 1153.34 1006.23 1151.8 1004.95 1150.5C1003.71 1149.18 1002.19 1148.14 1000.51 1147.44C998.834 1146.75 997.028 1146.42 995.212 1146.48C993.33 1146.53 991.481 1146.98 989.781 1147.79C988.081 1148.6 986.567 1149.75 985.335 1151.18V1150.5ZM1001.96 1128.15L1006.04 1131.56L992.896 1138.37L990.852 1136.46L1001.96 1128.15ZM1024.64 1142.66H1029.14V1147.77C1030.28 1145.95 1031.87 1144.46 1033.75 1143.44C1035.64 1142.41 1037.76 1141.89 1039.9 1141.91C1042.26 1141.9 1044.58 1142.41 1046.71 1143.41C1048.88 1144.43 1050.79 1145.92 1052.3 1147.77C1053.53 1149.2 1054.4 1150.9 1054.82 1152.74C1055.3 1154.87 1055.53 1157.04 1055.5 1159.21V1178.42H1050.73V1160.03C1050.84 1158.31 1050.68 1156.59 1050.26 1154.92C1050.12 1153.61 1049.72 1152.34 1049.1 1151.18C1047.57 1149.13 1045.37 1147.67 1042.88 1147.06C1040.4 1146.46 1037.78 1146.73 1035.47 1147.84C1033.95 1148.5 1032.63 1149.56 1031.66 1150.9C1030.93 1152.02 1030.45 1153.27 1030.23 1154.58C1029.99 1156.18 1029.88 1157.8 1029.89 1159.42V1178.42H1025.19L1024.64 1142.66ZM1117.02 1172.63C1117.09 1174.91 1116.93 1177.2 1116.54 1179.44C1115.88 1181.72 1114.63 1183.79 1112.93 1185.44C1111.26 1187.3 1109.15 1188.73 1106.8 1189.59C1104.37 1190.58 1101.78 1191.09 1099.17 1191.09C1095.28 1191.14 1091.48 1189.87 1088.4 1187.48C1085.24 1185.34 1083 1182.08 1082.14 1178.36H1086.7C1087.95 1180.78 1089.77 1182.86 1092.01 1184.42C1094.27 1185.87 1096.9 1186.63 1099.58 1186.6C1101.94 1186.64 1104.28 1186.1 1106.39 1185.03C1108.42 1184.06 1110.11 1182.49 1111.23 1180.53C1111.81 1179.44 1112.24 1178.27 1112.52 1177.06C1112.61 1175.54 1112.61 1174.02 1112.52 1172.5V1170.59C1111.34 1173.14 1109.32 1175.21 1106.8 1176.45C1104.33 1177.72 1101.6 1178.37 1098.83 1178.36C1096.48 1178.34 1094.17 1177.85 1092.01 1176.92C1089.85 1176.02 1087.86 1174.73 1086.16 1173.11C1084.39 1171.45 1082.98 1169.43 1082.05 1167.19C1081.11 1164.94 1080.65 1162.53 1080.71 1160.1C1080.68 1157.78 1081.08 1155.47 1081.86 1153.29C1082.31 1151.81 1083.03 1150.42 1083.98 1149.2C1085.83 1146.79 1088.14 1144.77 1090.79 1143.27C1093.14 1142.21 1095.7 1141.67 1098.28 1141.71C1101.09 1141.64 1103.86 1142.32 1106.32 1143.68C1108.78 1144.89 1110.83 1146.81 1112.18 1149.2V1142.39H1117.22L1117.02 1172.63ZM1089.29 1151.18C1088.08 1152.41 1087.13 1153.87 1086.48 1155.47C1085.84 1157.07 1085.52 1158.78 1085.54 1160.51C1085.43 1164.23 1086.77 1167.85 1089.29 1170.59C1090.52 1171.89 1092.01 1172.93 1093.67 1173.62C1095.32 1174.31 1097.1 1174.65 1098.9 1174.61C1100.69 1174.68 1102.47 1174.36 1104.13 1173.68C1105.79 1173 1107.28 1171.97 1108.5 1170.66C1109.72 1169.34 1110.68 1167.82 1111.36 1166.16C1112.06 1164.48 1112.43 1162.67 1112.45 1160.85C1112.49 1159.05 1112.15 1157.26 1111.46 1155.59C1110.77 1153.93 1109.74 1152.42 1108.43 1151.18C1107.14 1149.89 1105.59 1148.88 1103.9 1148.2C1102.2 1147.52 1100.38 1147.19 1098.55 1147.23C1096.82 1147.21 1095.1 1147.55 1093.51 1148.23C1091.91 1148.91 1090.48 1149.91 1089.29 1151.18ZM1155.44 1147.98C1157.14 1149.62 1158.5 1151.58 1159.42 1153.76C1160.35 1155.94 1160.82 1158.28 1160.82 1160.64C1160.86 1163.05 1160.42 1165.45 1159.52 1167.68C1158.62 1169.92 1157.28 1171.95 1155.57 1173.66C1153.96 1175.45 1151.98 1176.87 1149.77 1177.83C1147.57 1178.8 1145.18 1179.28 1142.77 1179.24C1137.94 1179.24 1133.3 1177.34 1129.86 1173.95C1126.41 1170.56 1124.44 1165.95 1124.37 1161.12C1124.36 1158.7 1124.83 1156.3 1125.75 1154.06C1126.67 1151.82 1128.03 1149.79 1129.74 1148.07C1131.45 1146.36 1133.48 1145 1135.71 1144.07C1137.95 1143.14 1140.35 1142.66 1142.77 1142.66C1145.11 1142.61 1147.44 1143.03 1149.61 1143.9C1151.79 1144.76 1153.77 1146.06 1155.44 1147.7V1147.98ZM1133.02 1151.31C1131.76 1152.61 1130.76 1154.14 1130.1 1155.83C1129.43 1157.51 1129.1 1159.31 1129.14 1161.12C1129.1 1162.9 1129.43 1164.67 1130.11 1166.31C1130.79 1167.95 1131.81 1169.43 1133.09 1170.66C1134.35 1171.95 1135.85 1172.96 1137.52 1173.64C1139.18 1174.32 1140.97 1174.65 1142.77 1174.61C1144.55 1174.68 1146.33 1174.36 1147.98 1173.66C1149.63 1172.97 1151.11 1171.92 1152.3 1170.59C1154.83 1167.91 1156.2 1164.33 1156.12 1160.64C1156.16 1158.85 1155.82 1157.08 1155.11 1155.43C1154.41 1153.79 1153.36 1152.31 1152.03 1151.11C1150.82 1149.88 1149.38 1148.91 1147.79 1148.24C1146.2 1147.58 1144.49 1147.23 1142.77 1147.23C1140.96 1147.16 1139.15 1147.48 1137.47 1148.16C1135.8 1148.84 1134.28 1149.87 1133.02 1151.18V1151.31ZM1141.74 1182.51H1146.44V1190.55H1141.74V1182.51ZM1170.42 1143.41H1174.85V1148.52C1176.01 1146.7 1177.61 1145.21 1179.51 1144.19C1181.4 1143.16 1183.53 1142.64 1185.68 1142.66C1188.05 1142.66 1190.38 1143.18 1192.51 1144.2C1194.64 1145.21 1196.52 1146.69 1198.01 1148.52C1199.24 1149.96 1200.13 1151.66 1200.6 1153.49C1201.02 1155.62 1201.22 1157.79 1201.22 1159.96V1178.42H1196.52V1160.03C1196.59 1158.32 1196.43 1156.6 1196.04 1154.92C1195.7 1153.8 1195.17 1152.74 1194.47 1151.79C1193.44 1150.36 1192.07 1149.21 1190.49 1148.43C1188.92 1147.64 1187.17 1147.26 1185.41 1147.29C1183.76 1147.33 1182.13 1147.72 1180.64 1148.45C1179.15 1149.14 1177.86 1150.19 1176.9 1151.52C1176.15 1152.63 1175.64 1153.88 1175.4 1155.2C1175.31 1156.81 1175.31 1158.42 1175.4 1160.03V1178.42H1170.7L1170.42 1143.41Z" fill="white"/>
</svg>
