<svg xmlns="http://www.w3.org/2000/svg" width="20.824" height="19.271" viewBox="0 0 20.824 19.271">
  <g id="Group_14311" data-name="Group 14311" transform="translate(-36 -166)">
    <g id="Group_14304" data-name="Group 14304" transform="translate(0 -6)">
      <g id="Group_14302" data-name="Group 14302" transform="translate(136.136 2654.633)">
        <path id="Path_19992" data-name="Path 19992" d="M-96.49-2481.637l.732-.691h15.446l.732.691v16.462l-.65,1.057-1.016.406-4.471.342h-11.95l.65-.708.65-.894-.346-.788v-12.5Z" transform="translate(0.059 0.007)" fill="#ee0e0e"/>
        <path id="Path_3097" data-name="Path 3097" d="M-80.363-2482.633H-95.6a1.051,1.051,0,0,0-1.056,1.05v1.6h-2.43a1.052,1.052,0,0,0-1.052,1.051v13.526a2.048,2.048,0,0,0,2.034,2.048H-87.3a.308.308,0,0,0,.306-.308.307.307,0,0,0-.306-.306h-9.334a2.043,2.043,0,0,0,.591-1.433v-7.134a.308.308,0,0,0-.307-.308.307.307,0,0,0-.307.307h0v7.134a1.441,1.441,0,0,1-1.434,1.433h0a1.44,1.44,0,0,1-1.434-1.433v-13.526a.441.441,0,0,1,.441-.441h2.426v5.694a.307.307,0,0,0,.306.307.308.308,0,0,0,.308-.307h0v-7.9a.441.441,0,0,1,.441-.441h15.236a.441.441,0,0,1,.441.441v16.172a1.441,1.441,0,0,1-1.434,1.433h-4.8a.306.306,0,0,0-.308.306.308.308,0,0,0,.306.308h4.8a2.049,2.049,0,0,0,2.048-2.048v-16.172A1.053,1.053,0,0,0-80.363-2482.633Z" fill="#ee0e0e"/>
        <path id="Path_3098" data-name="Path 3098" d="M-93.592-2470.616h4.184a.724.724,0,0,0,.717-.717v-4.184a.723.723,0,0,0-.717-.717h-4.184a.721.721,0,0,0-.717.717v4.184A.723.723,0,0,0-93.592-2470.616Zm-.112-4.906a.11.11,0,0,1,.112-.111h4.184a.111.111,0,0,1,.112.111v4.189a.112.112,0,0,1-.112.112h-4.184a.111.111,0,0,1-.112-.112Z" transform="translate(0.14 0.153)" fill="#fff"/>
        <path id="Path_3099" data-name="Path 3099" d="M-87.729-2475.634h5.662a.308.308,0,0,0,.307-.307.307.307,0,0,0-.307-.307h-5.662a.307.307,0,0,0-.307.307A.308.308,0,0,0-87.729-2475.634Z" transform="translate(0.29 0.153)" fill="#fff"/>
        <path id="Path_3100" data-name="Path 3100" d="M-87.729-2473.182h5.662a.308.308,0,0,0,.307-.307.307.307,0,0,0-.307-.307h-5.662a.307.307,0,0,0-.307.307A.308.308,0,0,0-87.729-2473.182Z" transform="translate(0.29 0.212)" fill="#fff"/>
        <path id="Path_3101" data-name="Path 3101" d="M-87.729-2470.732h5.662a.308.308,0,0,0,.307-.308.307.307,0,0,0-.307-.306h-5.662a.307.307,0,0,0-.307.306A.308.308,0,0,0-87.729-2470.732Z" transform="translate(0.29 0.271)" fill="#fff"/>
        <path id="Path_3102" data-name="Path 3102" d="M-94.009-2468.283h12.092a.308.308,0,0,0,.307-.308.307.307,0,0,0-.307-.306H-94.009a.307.307,0,0,0-.307.306.307.307,0,0,0,.307.308Z" transform="translate(0.14 0.329)" fill="#fff"/>
        <path id="Path_3103" data-name="Path 3103" d="M-94.009-2465.833h12.092a.308.308,0,0,0,.307-.307.307.307,0,0,0-.307-.307H-94.009a.307.307,0,0,0-.307.307.307.307,0,0,0,.307.307Z" transform="translate(0.14 0.388)" fill="#fff"/>
        <path id="Path_3104" data-name="Path 3104" d="M-94.307-2477.686v-3.224a.159.159,0,0,1,.094-.151.453.453,0,0,1,.228-.052.484.484,0,0,1,.273.064.811.811,0,0,1,.2.279l.958,1.853v-2a.156.156,0,0,1,.094-.149.547.547,0,0,1,.457,0,.16.16,0,0,1,.094.149v3.229a.168.168,0,0,1-.1.149.457.457,0,0,1-.226.054.388.388,0,0,1-.373-.2l-1.068-2v2a.168.168,0,0,1-.1.149.5.5,0,0,1-.455,0A.166.166,0,0,1-94.307-2477.686Z" transform="translate(0.14 0.036)" fill="#fff"/>
        <path id="Path_3105" data-name="Path 3105" d="M-91.372-2477.686v-3.224a.165.165,0,0,1,.085-.149.349.349,0,0,1,.2-.054h1.768a.166.166,0,0,1,.152.085.364.364,0,0,1,.052.194.372.372,0,0,1-.054.2.172.172,0,0,1-.149.084h-1.406v.993h.755a.172.172,0,0,1,.149.077.312.312,0,0,1,.054.181.312.312,0,0,1-.052.171.173.173,0,0,1-.152.077h-.755v1h1.406a.171.171,0,0,1,.149.084.369.369,0,0,1,.054.205.369.369,0,0,1-.052.193.171.171,0,0,1-.152.084h-1.768a.364.364,0,0,1-.2-.054A.167.167,0,0,1-91.372-2477.686Z" transform="translate(0.21 0.036)" fill="#fff"/>
        <path id="Path_3106" data-name="Path 3106" d="M-88.855-2480.855a.214.214,0,0,1,.134-.181.54.54,0,0,1,.277-.077c.119,0,.19.043.213.129l.785,2.692.422-1.729c.029-.12.135-.179.317-.179s.287.059.313.179l.422,1.729.784-2.692c.023-.086.094-.129.214-.129a.546.546,0,0,1,.278.077.218.218,0,0,1,.134.181.24.24,0,0,1-.01.059l-.983,3.124q-.075.218-.422.218a.618.618,0,0,1-.268-.057.242.242,0,0,1-.144-.162l-.317-1.342-.323,1.342a.247.247,0,0,1-.144.162.622.622,0,0,1-.268.057.641.641,0,0,1-.273-.057.259.259,0,0,1-.15-.162l-.983-3.124A.164.164,0,0,1-88.855-2480.855Z" transform="translate(0.271 0.036)" fill="#fff"/>
        <path id="Path_3107" data-name="Path 3107" d="M-84.5-2478.053a.376.376,0,0,1,.087-.231.244.244,0,0,1,.2-.117.246.246,0,0,1,.146.063,1.641,1.641,0,0,1,.159.136.735.735,0,0,0,.221.137.8.8,0,0,0,.317.062.693.693,0,0,0,.4-.11.368.368,0,0,0,.159-.323.434.434,0,0,0-.087-.266.679.679,0,0,0-.228-.193c-.094-.051-.2-.1-.307-.15s-.224-.1-.34-.162a1.989,1.989,0,0,1-.312-.2.8.8,0,0,1-.228-.3.984.984,0,0,1-.087-.425.982.982,0,0,1,.1-.471.8.8,0,0,1,.286-.318,1.319,1.319,0,0,1,.382-.166,1.667,1.667,0,0,1,.432-.053,2.057,2.057,0,0,1,.273.019,2.245,2.245,0,0,1,.307.058.638.638,0,0,1,.263.127.261.261,0,0,1,.1.2.462.462,0,0,1-.07.228.213.213,0,0,1-.188.118.963.963,0,0,1-.244-.094,1.006,1.006,0,0,0-.442-.094.713.713,0,0,0-.41.1.333.333,0,0,0-.091.462.335.335,0,0,0,.063.07.952.952,0,0,0,.3.174c.117.044.245.1.383.169a3.144,3.144,0,0,1,.382.221.928.928,0,0,1,.3.345,1.126,1.126,0,0,1,.119.53.979.979,0,0,1-.326.786,1.283,1.283,0,0,1-.857.276,1.611,1.611,0,0,1-.809-.193C-84.384-2477.761-84.5-2477.9-84.5-2478.053Z" transform="translate(0.375 0.036)" fill="#fff"/>
      </g>
    </g>
  </g>
</svg>
