<svg xmlns="http://www.w3.org/2000/svg" width="17.798" height="18.776" viewBox="0 0 17.798 18.776">
  <g id="Group_12217" data-name="Group 12217" transform="translate(-963.252 -567.68)">
    <path id="Path_19018" data-name="Path 19018" d="M965.866,905.444s-3.028.437-2.565,3.359c.431,2.725,3.028,2.171,3.695,2.035S965.866,905.444,965.866,905.444Z" transform="translate(0 -331.066)" fill="#f7cc7f"/>
    <path id="Path_19019" data-name="Path 19019" d="M971.524,1055.167c.31-.063.087-1.237-.241-2.474l-3.411.671C968.412,1055.824,970.877,1055.3,971.524,1055.167Z" transform="translate(-4.529 -475.395)" fill="#e8ba70"/>
    <path id="Path_19020" data-name="Path 19020" d="M1182.874,1152.763a14.052,14.052,0,0,1,.49,4.22c-.163,1.72.082,2.007.721,1.953s2.191-.437,2.218-1.052a12.7,12.7,0,0,0-1.334-5.462C1183.895,1150.729,1182.874,1152.763,1182.874,1152.763Z" transform="translate(-215.266 -572.486)" fill="#96d9c9"/>
    <path id="Path_19021" data-name="Path 19021" d="M1183.907,1152.975a7.22,7.22,0,0,0-1.033.99,14.05,14.05,0,0,1,.49,4.219c-.163,1.721.082,2.007.721,1.953a5.381,5.381,0,0,0,.952-.188C1185.292,1155.721,1184.2,1153.453,1183.907,1152.975Z" transform="translate(-215.266 -573.688)" fill="#50bfa5"/>
    <path id="Path_19022" data-name="Path 19022" d="M1182.233,615.208s-5.022,3.656-6.645,4.762l-.949,1.413.674,4.117,1.623.8,7.931,1.567-.184-.891-1.439-3.994-.735-4.547-.214-2.8Z" transform="translate(-207.195 -46.586)" fill="#96d9c9"/>
    <path id="Path_19023" data-name="Path 19023" d="M1202.329,948.26l-.193-1.192-8.026,1.955.287,1.757,1.623.8,7.931,1.567-.184-.891Z" transform="translate(-226.28 -371.864)" fill="#50bfa5"/>
    <path id="Path_19024" data-name="Path 19024" d="M1086.279,839.374a9.092,9.092,0,0,0,1.347,6.329.351.351,0,0,1-.133.427l-1.5.382s-.694.246-1.279-.751a7.881,7.881,0,0,1-1.007-5.708,1.119,1.119,0,0,1,.966-.792l1.089-.2S1086.248,838.982,1086.279,839.374Z" transform="translate(-117.885 -265.99)" fill="#3c8f7c"/>
    <path id="Path_19025" data-name="Path 19025" d="M1532.555,568.622a4.959,4.959,0,0,1,2.062-.942c.755.021,1.511,1.024,2,1.844a18.6,18.6,0,0,1,1.9,6.206c.122,2.171.1,5.264-.959,5.633a4.2,4.2,0,0,1-2.368-.082s-1.715-1.475-2.715-6.063S1532.555,568.622,1532.555,568.622Z" transform="translate(-557.516 0)" fill="#256653"/>
    <path id="Path_19026" data-name="Path 19026" d="M1589.543,589.6s1.221-1.587.6-5.873c-.98-6.748-3.45-7.769-3.45-7.769s-1.828,1.393-.082,7.914C1588.049,589.247,1589.543,589.6,1589.543,589.6Z" transform="translate(-610.255 -8.115)" fill="#3c8f7c"/>
    <path id="Path_19027" data-name="Path 19027" d="M1594.48,835.637a24.779,24.779,0,0,0,.585,2.744c.139.521.279.994.418,1.424a1.955,1.955,0,0,0,1.463-2.6A2.13,2.13,0,0,0,1594.48,835.637Z" transform="translate(-618.709 -262.623)" fill="#f7cc7f"/>
    <path id="Path_19028" data-name="Path 19028" d="M1615.955,920.232c.139.521.279.994.418,1.424a1.953,1.953,0,0,0,1.484-2.533l-2.064.477Q1615.868,919.908,1615.955,920.232Z" transform="translate(-639.6 -344.474)" fill="#e8ba70"/>
    <path id="Path_19029" data-name="Path 19029" d="M1099.747,1039.446a7.739,7.739,0,0,1-1.205-2.733l-2.653.5a9.111,9.111,0,0,0,.949,2.288c.585,1,1.279.751,1.279.751l1.5-.383A.352.352,0,0,0,1099.747,1039.446Z" transform="translate(-130.006 -459.732)" fill="#3c8f7c" opacity="0.3" style="mix-blend-mode: multiply;isolation: isolate"/>
  </g>
</svg>
