<svg xmlns="http://www.w3.org/2000/svg" width="38.024" height="29.152" viewBox="0 0 38.024 29.152">
  <g id="Group_14227" data-name="Group 14227" transform="translate(5704 -7251)">
    <g id="Group_14230" data-name="Group 14230" transform="translate(-5704 7251)">
      <g id="Group_14229" data-name="Group 14229" transform="translate(0 0)">
        <path id="Path_19940" data-name="Path 19940" d="M782.479,745.885c-.657-1.377-1.958-1.4-4.767-.036-.34-.981-.672-1.958-1.017-2.927-1.3-3.631-.874-4.407-5.8-4.221-.752.028-1.278-.1-1.519-.977a2.457,2.457,0,0,0-2.555-1.859,45.27,45.27,0,0,0-5.771.063,3.15,3.15,0,0,0-2.279,1.483c-.471,1.25-1.2,1.345-2.231,1.29-.641-.032-1.286.016-1.93,0a2.931,2.931,0,0,0-3.165,2.322c-.506,1.638-1.112,3.248-1.681,4.885-2.662-1.412-3.964-1.44-4.707-.158s-.21,2.662,1.385,3.715a7.73,7.73,0,0,0-.724,2.053,32.13,32.13,0,0,0,.032,5.621,4,4,0,0,0,1.519,2.346,7.366,7.366,0,0,0,2.536.756c.17,1.238.024,2.714.613,3.782.791,1.432,2.528.815,3.833.752,3.252-.158,1.515-2.915,2.259-4.608h14.5c.645,1.756-1,4.628,2.5,4.628,1.108,0,2.749.142,3.2-.471.783-1.068.831-2.678,1.226-4.2.3-.044.827-.095,1.349-.2a2.654,2.654,0,0,0,2.405-2.3c.1-2.757.736-5.6-.684-8.24C782.61,748.508,783.132,747.262,782.479,745.885Zm-16.191-8.56c.554,0,1.483.218,1.483,1.175H760.05C760.814,737.286,760.723,737.325,766.289,737.325Zm-12.967,4.039a1.815,1.815,0,0,1,1.4-.787q8.96-.166,17.927-.178c.51,0,1.337.293,1.483.661.938,2.369,1.725,4.794,2.579,7.255-1.317.336-2.144.368-2.555-1.068a3.27,3.27,0,0,0-6.131.008c-.324,1.127-.937,1.27-1.93,1.262-4.98-.036-9.961-.016-15.313-.016C751.692,745.889,752.436,743.6,753.322,741.364Zm19.257,7.144h-2.931a1.342,1.342,0,0,1,1.384-1.6C771.961,746.874,772.574,747.377,772.578,748.508Zm-19.632,14.585c-1.262.048-1.4-.629-1.246-1.551-.237-1.317.554-1.329,1.5-1.38,1.187-.063,1.345.514,1.392,1.515C754.655,762.99,753.955,763.057,752.946,763.093Zm21.373-.051c-1.305.257-1.373-.538-1.416-1.543-.051-1.2.57-1.286,1.531-1.345,1.293-.079,1.384.578,1.416,1.6C775.885,762.935,775.331,763.2,774.319,763.042Zm5.961-6.843c-.032,1.7-.53,2.2-2.239,2.2-4.747.012-9.494,0-14.237,0v-.024c-4.7,0-9.391.008-14.086,0-2.037,0-2.421-.392-2.441-2.429q-.018-1.922.008-3.853a1.63,1.63,0,0,1,1.859-1.8q14.609-.006,29.213-.028a1.709,1.709,0,0,1,1.919,1.922C780.3,753.528,780.3,754.865,780.28,756.2Z" transform="translate(-744.73 -735.804)"/>
        <path id="Path_19941" data-name="Path 19941" d="M767.687,780.543v-.024c-4.7,0-9.391.008-14.086,0-2.037,0-2.421-.392-2.441-2.429q-.018-1.923.008-3.853a1.63,1.63,0,0,1,1.859-1.8q5.845,0,11.689-.008a28.333,28.333,0,0,0,4.11,8.113Z" transform="translate(-748.612 -757.942)" fill="#4dbaf6"/>
        <path id="Path_19942" data-name="Path 19942" d="M769.69,755.6c-3.137,0-6.325,0-9.66,0,.91-2.611,1.654-4.9,2.54-7.136a1.815,1.815,0,0,1,1.4-.787q4.379-.083,8.766-.123A8.023,8.023,0,0,0,769.69,755.6Z" transform="translate(-753.978 -742.91)" fill="#fff" opacity="0"/>
        <path id="Path_19943" data-name="Path 19943" d="M763.521,800.3c-1.262.047-1.4-.629-1.246-1.551-.237-1.317.554-1.329,1.5-1.381,1.187-.063,1.345.514,1.392,1.515C765.23,800.2,764.529,800.268,763.521,800.3Z" transform="translate(-755.305 -773.015)" fill="#fff"/>
        <path id="Path_19944" data-name="Path 19944" d="M818.892,798.948c.036,1.183-.518,1.452-1.531,1.29-1.305.257-1.373-.538-1.416-1.543-.051-1.2.57-1.286,1.531-1.345C818.77,797.271,818.861,797.928,818.892,798.948Z" transform="translate(-787.773 -773)" fill="#fff"/>
        <path id="Path_19945" data-name="Path 19945" d="M791.182,740.825H783.46c.763-1.214.672-1.175,6.238-1.175C790.252,739.65,791.182,739.867,791.182,740.825Z" transform="translate(-768.139 -738.128)" fill="#fff"/>
        <path id="Path_19946" data-name="Path 19946" d="M810.646,765.47h-2.931a1.342,1.342,0,0,1,1.385-1.6C810.029,763.836,810.642,764.339,810.646,765.47Z" transform="translate(-782.798 -752.766)" fill="#fff"/>
        <path id="Path_19947" data-name="Path 19947" d="M763.184,778.506c.352.555,1.037,1.158.965,1.65a1.877,1.877,0,0,1-1.38,1.24c-.445,0-1.209-.83-1.246-1.337s.665-1.051,1.043-1.579Z" transform="translate(-754.88 -761.598)" fill="#fff"/>
        <path id="Path_19948" data-name="Path 19948" d="M819.03,778.5c.347.551,1.016,1.144.951,1.641s-.879,1.278-1.33,1.256a1.867,1.867,0,0,1-1.3-1.317c-.039-.5.677-1.061,1.062-1.594Z" transform="translate(-788.625 -761.604)" fill="#fff"/>
        <g id="Group_14227-2" data-name="Group 14227" transform="translate(26.577 15.115)">
          <circle id="Ellipse_824" data-name="Ellipse 824" cx="2.676" cy="2.676" r="2.676" transform="translate(0.791 0.791)" fill="#fff"/>
          <path id="Path_19949" data-name="Path 19949" d="M815.383,780.948a3.467,3.467,0,1,1,3.467-3.467A3.471,3.471,0,0,1,815.383,780.948Zm0-5.352a1.885,1.885,0,1,0,1.885,1.885A1.887,1.887,0,0,0,815.383,775.6Z" transform="translate(-811.915 -774.014)" fill="#020202"/>
        </g>
        <g id="Group_14228" data-name="Group 14228" transform="translate(4.927 15.115)">
          <circle id="Ellipse_825" data-name="Ellipse 825" cx="2.676" cy="2.676" r="2.676" transform="translate(0.791 0.791)" fill="#fff"/>
          <path id="Path_19950" data-name="Path 19950" d="M760.652,780.948a3.467,3.467,0,1,1,3.467-3.467A3.471,3.471,0,0,1,760.652,780.948Zm0-5.352a1.885,1.885,0,1,0,1.885,1.885A1.887,1.887,0,0,0,760.652,775.6Z" transform="translate(-757.184 -774.014)" fill="#020202"/>
        </g>
        <path id="Path_19951" data-name="Path 19951" d="M751.183,765.115h-2.548s-.65-1.694.45-1.844S751.183,765.115,751.183,765.115Z" transform="translate(-746.975 -752.401)" fill="#4dbaf6"/>
        <path id="Path_19952" data-name="Path 19952" d="M830.041,765.115h2.548s.65-1.694-.45-1.844S830.041,765.115,830.041,765.115Z" transform="translate(-796.294 -752.401)" fill="#4dbaf6"/>
      </g>
      <path id="Path_19953" data-name="Path 19953" d="M800.533,755.335c-1.317.336-2.144.368-2.555-1.068a3.27,3.27,0,0,0-6.131.008c-.324,1.127-.938,1.27-1.93,1.262-1.875-.012-3.754-.016-5.653-.02a8.023,8.023,0,0,1,3.046-8.042q4.581-.047,9.161-.055c.51,0,1.337.293,1.483.661C798.891,750.45,799.678,752.875,800.533,755.335Z" transform="translate(-768.551 -742.825)" fill="#ffc66c"/>
      <path id="Path_19954" data-name="Path 19954" d="M804.886,778.306c-.032,1.7-.53,2.2-2.239,2.2-4.367.012-8.734,0-13.1,0a28.335,28.335,0,0,1-4.11-8.113q8.758-.006,17.524-.02a1.709,1.709,0,0,1,1.919,1.922C804.9,775.636,804.91,776.973,804.886,778.306Z" transform="translate(-769.336 -757.911)" fill="#4dbaf6"/>
      <g id="Group_14231" data-name="Group 14231" transform="translate(26.381 15.115)">
        <circle id="Ellipse_825-2" data-name="Ellipse 825" cx="2.676" cy="2.676" r="2.676" transform="translate(0.791 0.791)" fill="#fff"/>
        <path id="Path_19950-2" data-name="Path 19950" d="M760.652,780.948a3.467,3.467,0,1,1,3.467-3.467A3.471,3.471,0,0,1,760.652,780.948Zm0-5.352a1.885,1.885,0,1,0,1.885,1.885A1.887,1.887,0,0,0,760.652,775.6Z" transform="translate(-757.184 -774.014)" fill="#020202"/>
      </g>
    </g>
  </g>
</svg>
