<svg id="Group_1867" data-name="Group 1867" xmlns="http://www.w3.org/2000/svg" width="34.548" height="39.484" viewBox="0 0 34.548 39.484">
  <path id="Path_1372" data-name="Path 1372" d="M66.468,0A2.475,2.475,0,0,0,64,2.468V37.016a2.475,2.475,0,0,0,2.468,2.468H91.145a2.475,2.475,0,0,0,2.468-2.468V9.871L83.742,0Z" transform="translate(-59.065)" fill="#e2e5e7"/>
  <path id="Path_1373" data-name="Path 1373" d="M322.468,9.871h7.4L320,0V7.4A2.475,2.475,0,0,0,322.468,9.871Z" transform="translate(-295.323)" fill="#b0b7bd"/>
  <path id="Path_1374" data-name="Path 1374" d="M359.4,135.4,352,128h7.4Z" transform="translate(-324.855 -118.129)" fill="#cad1d8"/>
  <path id="Path_1375" data-name="Path 1375" d="M29.613,253.573a1.237,1.237,0,0,1-1.234,1.234H1.234A1.237,1.237,0,0,1,0,253.573V241.234A1.238,1.238,0,0,1,1.234,240H28.379a1.238,1.238,0,0,1,1.234,1.234Z" transform="translate(0 -221.492)" fill="#f15642"/>
  <g id="Group_1866" data-name="Group 1866" transform="translate(5.378 22.697)">
    <path id="Path_1376" data-name="Path 1376" d="M69.74,295a.679.679,0,0,1,.67-.681h2.279a2.467,2.467,0,0,1,0,4.933H71.042v1.3a.619.619,0,0,1-.632.68.665.665,0,0,1-.67-.68Zm1.3.561v2.458h1.647a1.23,1.23,0,0,0,0-2.458Z" transform="translate(-69.74 -294.32)" fill="#fff"/>
    <path id="Path_1377" data-name="Path 1377" d="M156.511,302.3a.617.617,0,0,1-.681-.611v-5.6a.671.671,0,0,1,.681-.612h2.26c4.508,0,4.41,6.827.089,6.827Zm.622-5.623v4.42h1.637c2.664,0,2.782-4.42,0-4.42Z" transform="translate(-149.191 -295.381)" fill="#fff"/>
    <path id="Path_1378" data-name="Path 1378" d="M256.43,296.735V298.3h2.516a.763.763,0,0,1,.711.7.686.686,0,0,1-.711.592H256.43v2.071a.584.584,0,0,1-.591.611.627.627,0,0,1-.7-.611v-5.6a.624.624,0,0,1,.7-.612H259.3a.615.615,0,0,1,.691.612.681.681,0,0,1-.691.671H256.43Z" transform="translate(-240.843 -295.363)" fill="#fff"/>
  </g>
  <path id="Path_1379" data-name="Path 1379" d="M87.444,417.234H64v1.234H87.444a1.238,1.238,0,0,0,1.234-1.234V416A1.238,1.238,0,0,1,87.444,417.234Z" transform="translate(-59.065 -383.919)" fill="#cad1d8"/>
</svg>
