<svg width="48" height="33" viewBox="0 0 48 33" fill="none" xmlns="http://www.w3.org/2000/svg">
<g filter="url(#filter0_d_488_16)">
<path d="M9.31035 8.16469C9.34867 6.6718 9.08617 5.13362 10.3273 3.92261C11.5301 2.75403 13.0203 2.87866 14.5994 2.87729C14.5994 2.45447 14.5994 2.06853 14.5994 1.68265C14.5792 1.4629 14.606 1.24126 14.6796 1.03321C14.7531 0.825149 14.8705 0.63554 15.0244 0.477306C15.1782 0.319072 15.365 0.196251 15.5709 0.11684C15.7768 0.0374282 15.9974 0.00332047 16.2177 0.0172857C16.2806 0.0172857 16.3431 0.0172857 16.4061 0.0172857C24.6829 0.0172857 32.9608 0.0172857 41.2385 0.0172857C41.4791 -0.0189161 41.725 0.00193026 41.9561 0.0780872C42.1871 0.154244 42.3962 0.283772 42.5681 0.455925C42.74 0.628078 42.8691 0.838122 42.9449 1.06929C43.0207 1.30045 43.0416 1.54603 43.0051 1.78654C43.0051 3.78846 43.016 5.79064 43.0051 7.79119C43.0299 8.27764 42.9513 8.76387 42.7752 9.21802C42.5992 9.67218 42.329 10.084 41.9828 10.4267C41.6367 10.7694 41.2227 11.035 40.7668 11.2064C40.3109 11.3779 39.8231 11.451 39.3369 11.4212C37.0627 11.4212 34.792 11.4379 32.5192 11.4119C31.9923 11.4119 31.8509 11.5719 31.8537 12.0864C31.8728 15.9178 31.8545 19.7587 31.8764 23.5956C31.8764 24.0636 31.7673 24.3524 31.2924 24.4468C31.2106 24.4666 31.1329 24.5004 31.0626 24.5467C30.657 24.8221 30.1764 24.9648 29.6862 24.9553C29.196 24.9457 28.7204 24.7843 28.3259 24.4932C27.8976 24.199 27.5177 24.4262 27.1633 24.6192C26.8587 24.8352 26.4969 24.956 26.1236 24.9659C25.7504 24.9759 25.3823 24.8747 25.0666 24.6753C24.8222 24.4986 24.529 24.4028 24.2274 24.4014C23.9259 24.3999 23.6317 24.493 23.3856 24.6673C23.1089 24.8712 22.7751 24.9828 22.4315 24.987C22.0878 24.9912 21.7509 24.8874 21.4693 24.6903C21.184 24.4983 20.8456 24.4008 20.5018 24.4114C20.1581 24.4219 19.826 24.54 19.5531 24.7491C19.3225 24.9099 19.0497 24.9969 18.7687 24.9983C18.4876 24.9998 18.2125 24.9158 17.9802 24.7575C17.678 24.5359 17.3127 24.4164 16.9379 24.4164C16.5632 24.4164 16.1979 24.5359 15.8956 24.7575C15.2114 25.2309 14.5855 24.9189 13.9807 24.6028C13.7741 24.4634 13.5298 24.3895 13.2805 24.391C13.0312 24.3925 12.7879 24.4693 12.5829 24.6112C11.4499 25.4322 10.5012 24.6479 9.52149 24.2497C9.39423 24.1977 9.32913 23.857 9.32639 23.649C9.31134 21.9605 9.31544 20.272 9.32639 18.5861C9.32639 18.2974 9.32601 18.0922 8.94287 18.0129C7.80194 17.785 6.77759 17.1633 6.04845 16.2566C5.31932 15.35 4.93186 14.2158 4.95403 13.0525C4.9762 11.8893 5.40691 10.7707 6.17006 9.89252C6.93321 9.0143 7.98116 8.43246 9.12995 8.24821C9.19221 8.22505 9.25237 8.1971 9.31035 8.16469V8.16469ZM10.7562 18.1057C10.7562 19.7108 10.7478 21.3339 10.7642 22.9568C10.7642 23.3235 11.2519 23.5656 11.6556 23.4329C11.8934 23.3617 12.1228 23.265 12.3397 23.1442C12.6115 22.9528 12.936 22.8499 13.2685 22.8499C13.6009 22.8499 13.9255 22.9528 14.1972 23.1442C14.4933 23.3375 14.8421 23.4338 15.1954 23.4198C15.5487 23.4059 15.8883 23.2821 16.1682 23.0661C16.3913 22.917 16.6536 22.8381 16.9219 22.8396C17.1902 22.841 17.4528 22.923 17.6742 23.0744C17.9882 23.2957 18.3631 23.4137 18.7473 23.4125C19.1314 23.4113 19.5051 23.2907 19.8177 23.0674C20.0436 22.9236 20.3062 22.8472 20.574 22.8472C20.8418 22.8472 21.1044 22.9236 21.3303 23.0674C21.8708 23.3411 22.4326 23.6847 23.0689 23.2455C23.415 22.9974 23.831 22.8657 24.2568 22.8696C24.6826 22.8736 25.0967 23.0128 25.4381 23.2672C25.6062 23.3908 25.8081 23.4593 26.0167 23.4629C26.2253 23.4666 26.4297 23.4055 26.602 23.2879C26.9803 23.038 27.4235 22.9038 27.8769 22.9024C28.3303 22.9009 28.7745 23.0321 29.1544 23.2795C30.0506 23.7393 30.3958 23.4658 30.3958 22.4587C30.3958 17.4779 30.391 12.4972 30.3838 7.51725C30.2474 6.4018 30.4805 5.27259 31.0466 4.30179H20.3829C17.9198 4.30179 15.4655 4.30179 13.0052 4.30179C12.5004 4.26323 11.9987 4.40951 11.5941 4.7137C11.1894 5.01789 10.9089 5.45918 10.8057 5.95479C10.7443 6.70863 10.7375 7.46592 10.7843 8.22081C13.4772 9.16088 14.8244 10.7578 14.86 13.0101C14.9147 15.4376 13.6832 16.9645 10.7562 18.1057V18.1057ZM16.1174 2.88264H16.9019C22.4866 2.88264 28.0716 2.88264 33.6563 2.88264C34.1631 2.83731 34.6732 2.90346 35.1517 3.0764C35.6301 3.24934 36.0658 3.52501 36.4265 3.88386C36.7872 4.24271 37.0649 4.67607 37.2403 5.15368C37.4157 5.63128 37.4835 6.14134 37.4407 6.64832C37.3973 7.12538 37.4063 7.60589 37.4661 8.08117C37.5567 8.58093 37.7675 9.05081 38.0822 9.44954C38.353 9.74648 38.7134 9.94707 39.1084 10.0211C39.5034 10.0952 39.9123 10.0388 40.2723 9.86011C40.6596 9.72105 40.9921 9.46161 41.2211 9.1198C41.4501 8.778 41.5632 8.37191 41.5445 7.9609C41.5445 6.04519 41.5208 4.1292 41.5645 2.21349C41.581 1.56351 41.3761 1.42003 40.7507 1.4214C32.8744 1.44238 24.9974 1.44696 17.1183 1.4351C15.9771 1.4351 15.9754 1.43503 16.0506 2.56393C16.067 2.67183 16.0892 2.77857 16.1174 2.88398V2.88264ZM6.37317 13.1701C6.37912 13.8698 6.59257 14.552 6.9852 15.1311C7.37783 15.7102 7.933 16.1602 8.58074 16.4247C9.22847 16.6892 9.93951 16.7565 10.6253 16.6178C11.311 16.479 11.9406 16.1404 12.4346 15.6449C12.9286 15.1495 13.2655 14.5191 13.4021 13.8329C13.5387 13.1467 13.4695 12.4353 13.203 11.7884C12.9365 11.1415 12.4844 10.588 11.9041 10.1972C11.3238 9.80634 10.6407 9.59565 9.94109 9.59185C9.47157 9.59112 9.00643 9.68328 8.57272 9.86312C8.139 10.043 7.74539 10.3067 7.41415 10.6395C7.08291 10.9723 6.82095 11.3676 6.64311 11.8021C6.46526 12.2366 6.37429 12.7019 6.37718 13.1715L6.37317 13.1701ZM36.4773 10.0078C36.2906 9.56385 36.1378 9.10642 36.0203 8.63941C35.976 8.18467 35.967 7.72723 35.9922 7.27104C35.9922 6.97958 35.9922 6.68686 35.9922 6.39677C35.998 5.84986 35.7855 5.32302 35.4029 4.93218C35.0203 4.54135 34.4986 4.31862 33.9517 4.31281C33.4048 4.307 32.8779 4.5185 32.4871 4.90112C32.0963 5.28373 31.8728 5.80609 31.867 6.353C31.8438 7.06045 31.867 7.76927 31.867 8.47671C31.867 10.0161 31.8676 10.0161 33.3837 10.0161L36.4773 10.0078Z" fill="#272A34"/>
<path d="M10.7578 18.1055C13.6875 16.9684 14.9159 15.4385 14.8763 13.0165C14.8421 10.7587 13.4921 9.16182 10.8032 8.22723C10.7561 7.47193 10.7621 6.71426 10.8219 5.95987C10.9258 5.46404 11.2066 5.02293 11.6117 4.71878C12.0168 4.41463 12.5177 4.26821 13.0228 4.30687C15.4859 4.29866 17.9416 4.30687 20.4005 4.30687H31.0642C30.4976 5.27695 30.2644 6.40596 30.4014 7.521C30.4077 12.5019 30.4107 17.4825 30.4107 22.4625C30.4107 23.4737 30.0655 23.7458 29.1733 23.2833C28.7933 23.0355 28.3481 22.9043 27.8945 22.9058C27.4408 22.9072 26.9981 23.0414 26.6196 23.2916C26.4475 23.4094 26.2429 23.4708 26.0343 23.4674C25.8257 23.4639 25.6239 23.396 25.4557 23.2726C25.114 23.0183 24.6991 22.879 24.2731 22.875C23.8471 22.8711 23.4315 23.0026 23.0851 23.2505C22.4488 23.6898 21.8844 23.3533 21.3466 23.0728C21.1204 22.9291 20.8583 22.8527 20.5903 22.8527C20.3222 22.8527 20.0601 22.9291 19.8339 23.0728C19.5206 23.2951 19.1464 23.4142 18.7622 23.4142C18.3781 23.4142 18.0025 23.2951 17.6892 23.0728C17.4675 22.9217 17.2064 22.8402 16.9382 22.839C16.67 22.8377 16.4075 22.9167 16.1845 23.0658C15.9045 23.2816 15.5636 23.4049 15.2103 23.4189C14.8571 23.4329 14.5083 23.337 14.2121 23.144C13.9405 22.9523 13.6172 22.8493 13.2847 22.8493C12.9523 22.8493 12.6277 22.9523 12.356 23.144C12.1389 23.2644 11.9096 23.3611 11.6718 23.4326C11.2613 23.5695 10.7819 23.3229 10.7792 22.9562C10.7463 21.3347 10.7578 19.7106 10.7578 18.1055ZM27.8383 18.9116V17.5636H13.7444V18.9116H27.8383ZM27.8383 12.1422V10.8026H15.9025V12.1422H27.8383ZM18.2237 8.72132H27.8437V7.40474H18.2237V8.72132ZM27.8624 14.1838H21.8972V15.4974H27.8624V14.1838ZM20.5047 14.2125H15.9012V15.5261H20.5047V14.2125ZM13.7297 7.40474V8.74438H16.8353V7.40474H13.7297Z" fill="#F5F4F4"/>
<path d="M16.1151 2.88142C16.086 2.77335 16.0634 2.66371 16.0469 2.55302C15.9717 1.42412 15.9734 1.42385 17.116 1.42385C24.9923 1.42385 32.8689 1.41928 40.7471 1.41016C41.3724 1.41016 41.5746 1.54713 41.5595 2.20258C41.5157 4.1183 41.5477 6.03394 41.5395 7.94966C41.5582 8.3605 41.4449 8.76645 41.2161 9.10823C40.9873 9.45001 40.6556 9.70958 40.2687 9.84887C39.9087 10.0278 39.4998 10.0846 39.1047 10.0106C38.7097 9.93649 38.3492 9.73577 38.0785 9.43863C37.7628 9.04055 37.5505 8.5704 37.4611 8.07026C37.4015 7.59498 37.3934 7.11454 37.4357 6.63741C37.4789 6.13045 37.4104 5.62015 37.2353 5.14243C37.0602 4.66472 36.7821 4.23121 36.4215 3.87228C36.0608 3.51335 35.6265 3.23769 35.148 3.06483C34.6694 2.89196 34.1594 2.82613 33.6527 2.87173C28.067 2.86626 22.4812 2.86626 16.8955 2.87173L16.1151 2.88142Z" fill="#5ABEF0"/>
<path d="M6.36915 13.1747C6.36726 12.4725 6.57368 11.7855 6.96247 11.2007C7.35125 10.6159 7.90574 10.1598 8.554 9.88979C9.20225 9.61981 9.91627 9.5484 10.6052 9.68434C11.2942 9.82027 11.9268 10.1575 12.4239 10.6535C12.921 11.1495 13.2592 11.7816 13.3967 12.4702C13.5343 13.1588 13.4648 13.8729 13.1963 14.5217C12.9278 15.1706 12.4733 15.7255 11.8894 16.1156C11.3055 16.5057 10.6193 16.7139 9.91702 16.7136C8.97865 16.7107 8.07844 16.337 7.41414 15.6743C6.74984 15.0115 6.3742 14.1131 6.36915 13.1747ZM10.6119 12.4237V10.3425L10.493 10.3094C9.77184 11.4451 9.04882 12.5797 8.29075 13.7674L9.27694 13.8536V15.9773L9.39453 15.9923C10.0951 14.8497 10.791 13.7073 11.5286 12.4949L10.6119 12.4237Z" fill="#F5F3F3"/>
<path d="M36.4819 10.0114H33.3763C31.8602 10.0114 31.8609 10.0114 31.8609 8.47194C31.8609 7.7645 31.8443 7.05568 31.869 6.34823C31.8748 5.8015 32.097 5.27951 32.4877 4.89701C32.8784 4.51452 33.4055 4.3029 33.9523 4.30871C34.499 4.31452 35.021 4.53738 35.4035 4.92808C35.786 5.31879 35.9972 5.84527 35.9914 6.392C35.9914 6.68346 35.9914 6.97514 35.9914 7.2666C35.9663 7.72279 35.9766 8.18024 36.0208 8.63497C36.1395 9.10484 36.2935 9.56483 36.4819 10.0114V10.0114Z" fill="#A8CCE3"/>
<path d="M27.84 18.9141H13.7461V17.5664H27.84V18.9141Z" fill="#272A34"/>
<path d="M27.8427 12.1404H15.9082V10.8008H27.8427V12.1404Z" fill="#272A34"/>
<path d="M18.2266 8.72674V7.41016H27.8466V8.72674H18.2266Z" fill="#272A34"/>
<path d="M27.8702 14.1875V15.5011H21.9023V14.1875H27.8702Z" fill="#272A34"/>
<path d="M20.5117 14.2188V15.5323H15.9082V14.2188H20.5117Z" fill="#272A34"/>
<path d="M13.7324 7.41016H16.8393V8.74979H13.7324V7.41016Z" fill="#272A34"/>
<path d="M10.6226 12.4187L11.5367 12.4899L9.40395 15.9876L9.28368 15.9726V13.8489L8.29883 13.7627L10.4984 10.3047L10.6213 10.3374L10.6226 12.4187Z" fill="#EE0E0E"/>
</g>
<defs>
<filter id="filter0_d_488_16" x="0.953125" y="0" width="46.0703" height="33" filterUnits="userSpaceOnUse" color-interpolation-filters="sRGB">
<feFlood flood-opacity="0" result="BackgroundImageFix"/>
<feColorMatrix in="SourceAlpha" type="matrix" values="0 0 0 0 0 0 0 0 0 0 0 0 0 0 0 0 0 0 127 0" result="hardAlpha"/>
<feOffset dy="4"/>
<feGaussianBlur stdDeviation="2"/>
<feComposite in2="hardAlpha" operator="out"/>
<feColorMatrix type="matrix" values="0 0 0 0 0 0 0 0 0 0 0 0 0 0 0 0 0 0 0.25 0"/>
<feBlend mode="normal" in2="BackgroundImageFix" result="effect1_dropShadow_488_16"/>
<feBlend mode="normal" in="SourceGraphic" in2="effect1_dropShadow_488_16" result="shape"/>
</filter>
</defs>
</svg>
