<?xml version="1.0" encoding="utf-8"?>
<!-- Generator: Adobe Illustrator 25.3.1, SVG Export Plug-In . SVG Version: 6.00 Build 0)  -->
<svg version="1.1" id="Layer_1" xmlns="http://www.w3.org/2000/svg" xmlns:xlink="http://www.w3.org/1999/xlink" x="0px" y="0px"
	 viewBox="0 0 23.7 23.7" style="enable-background:new 0 0 23.7 23.7;" xml:space="preserve">
<style type="text/css">
	.st0{fill:url(#SVGID_1_);}
	.st1{fill:#FFFFFF;}
	.st2{fill:url(#SVGID_2_);}
	.st3{fill:url(#SVGID_3_);}
	.st4{fill:url(#SVGID_4_);}
	.st5{fill:url(#SVGID_5_);}
	.st6{fill:#26304E;}
	.st7{fill:url(#SVGID_6_);}
	.st8{fill:url(#SVGID_7_);}
	.st9{fill:#3E4762;}
	.st10{fill:#D97700;}
	.st11{fill:url(#SVGID_8_);}
	.st12{fill:url(#SVGID_9_);}
	.st13{fill:url(#SVGID_10_);}
	.st14{fill:url(#SVGID_11_);}
	.st15{fill:url(#SVGID_12_);}
	.st16{fill:#C54D07;}
	.st17{fill:url(#SVGID_13_);}
	.st18{fill:url(#SVGID_14_);}
	.st19{fill:url(#SVGID_15_);}
	.st20{fill:url(#SVGID_16_);}
	.st21{fill:#6D8091;}
	.st22{fill:#CE6704;}
	.st23{fill:url(#SVGID_17_);}
</style>
<g>
	<linearGradient id="SVGID_1_" gradientUnits="userSpaceOnUse" x1="11.8525" y1="-0.1013" x2="11.8525" y2="23.6037">
		<stop  offset="0" style="stop-color:#FDE970"/>
		<stop  offset="0.5" style="stop-color:#FDCB56"/>
		<stop  offset="1" style="stop-color:#F8A337"/>
	</linearGradient>
	<circle class="st0" cx="11.9" cy="11.9" r="11.9"/>
	<g>
		<path class="st6" d="M9.1,11.2c0,1.2-0.8,2.1-1.8,2.1c-1,0-1.8-1-1.8-2.1s0.8-2.1,1.8-2.1C8.3,9.1,9.1,10.1,9.1,11.2z"/>
		<path class="st9" d="M7.9,10.6c0,0.4-0.3,0.7-0.6,0.7c-0.3,0-0.6-0.3-0.6-0.7c0-0.4,0.3-0.7,0.6-0.7C7.6,9.9,7.9,10.2,7.9,10.6z"
			/>
		<g>
			<ellipse class="st6" cx="16.4" cy="11.2" rx="1.8" ry="2.1"/>
			<path class="st9" d="M17,10.5c0,0.4-0.3,0.7-0.6,0.7c-0.3,0-0.6-0.3-0.6-0.7c0-0.4,0.3-0.7,0.6-0.7C16.7,9.8,17,10.1,17,10.5z"/>
		</g>
	</g>
	<linearGradient id="SVGID_2_" gradientUnits="userSpaceOnUse" x1="11.8525" y1="15.9834" x2="11.8525" y2="19.6495">
		<stop  offset="0" style="stop-color:#512512"/>
		<stop  offset="1" style="stop-color:#8D4C1A"/>
	</linearGradient>
	<path class="st2" d="M16.1,19.2c-0.6-1.4-1.8-3.2-4.2-3.2c-2.4,0-3.6,1.8-4.2,3.2c-0.1,0.4,0.3,0.7,0.6,0.4
		c1.6-1.2,3.7-1.2,3.7-1.2s2,0,3.7,1.2C15.8,19.8,16.2,19.5,16.1,19.2z"/>
	<g>
		<g>
			<path class="st10" d="M3.6,9.7c-0.2,0-0.3-0.1-0.4-0.2C3,9.3,3,8.9,3.2,8.7c0.3-0.3,2.7-2.6,4.7-2.6c0.3,0,0.6,0.3,0.6,0.6
				S8.2,7.3,7.9,7.3c-1.3,0-3.2,1.6-3.8,2.3C4,9.7,3.8,9.7,3.6,9.7z"/>
			<path class="st10" d="M20.1,9.7c0.2,0,0.3-0.1,0.4-0.2c0.2-0.2,0.2-0.6,0-0.9c-0.3-0.3-2.7-2.6-4.7-2.6c-0.3,0-0.6,0.3-0.6,0.6
				s0.3,0.6,0.6,0.6c1.3,0,3.2,1.6,3.8,2.3C19.7,9.7,19.9,9.7,20.1,9.7z"/>
		</g>
	</g>
	<linearGradient id="SVGID_3_" gradientUnits="userSpaceOnUse" x1="19.3743" y1="15.2208" x2="19.3743" y2="23.1225">
		<stop  offset="0" style="stop-color:#1081D2"/>
		<stop  offset="0.2266" style="stop-color:#2EB4F8"/>
		<stop  offset="0.6797" style="stop-color:#26B4F2"/>
		<stop  offset="1" style="stop-color:#67D6FC"/>
	</linearGradient>
	<path class="st3" d="M21.8,20.7c0,1.3-1.1,2.4-2.4,2.4c-1.3,0-2.4-1.1-2.4-2.4c0-1.3,2.4-5.5,2.4-5.5S21.8,19.3,21.8,20.7z"/>
</g>
</svg>
