<svg xmlns="http://www.w3.org/2000/svg" width="18.136" height="21.216" viewBox="0 0 18.136 21.216">
  <g id="Group_12780" data-name="Group 12780" transform="translate(-33 -124.592)">
    <path id="Path_19316" data-name="Path 19316" d="M9998.671,3110.835c0,4.88-7.363,11.915-8.835,11.915-1.205,0-8.836-7.035-8.836-11.915a8.835,8.835,0,1,1,17.671,0Z" transform="translate(-9947.534 -2976.943)" fill="#1d84c7"/>
    <g id="Group_12254" data-name="Group 12254" transform="translate(33 124.592)">
      <path id="Path_19294" data-name="Path 19294" d="M9998.671,3110.835c0,4.88-7.363,11.915-8.835,11.915-1.205,0-8.836-7.035-8.836-11.915a8.835,8.835,0,1,1,17.671,0Z" transform="translate(-9981 -3102)" fill="#f3705b"/>
      <circle id="Ellipse_680" data-name="Ellipse 680" cx="6.071" cy="6.071" r="6.071" transform="translate(3.572 3.251)" fill="#ea5647"/>
      <circle id="Ellipse_681" data-name="Ellipse 681" cx="6.786" cy="6.786" r="6.786" transform="translate(2.143 1.822)" fill="#fff"/>
      <g id="Group_12253" data-name="Group 12253" transform="translate(3.615 4.15)">
        <path id="Path_19295" data-name="Path 19295" d="M10005.854,3122.291v3.717a1.3,1.3,0,0,1-1.292,1.292h-5.717a1.3,1.3,0,0,1-1.291-1.292v-3.717l4.149-3.291Z" transform="translate(-9996.735 -3118.598)" fill="#ffb31a"/>
        <rect id="Rectangle_3988" data-name="Rectangle 3988" width="2.964" height="2.964" transform="translate(3.486 5.738)" fill="#27508f"/>
        <path id="Path_19296" data-name="Path 19296" d="M10004.1,3121.784a.4.4,0,0,1-.24-.081l-4.389-3.3-4.323,3.3a.4.4,0,1,1-.487-.639l4.566-3.481a.4.4,0,0,1,.483,0l4.633,3.481a.4.4,0,0,1-.243.723Z" transform="translate(-9994.499 -3117.5)" fill="#27508f"/>
      </g>
    </g>
  </g>
</svg>
