<svg xmlns="http://www.w3.org/2000/svg" width="66" height="66" viewBox="0 0 66 66">
  <g id="Group_14454" data-name="Group 14454" transform="translate(-19 -608)">
    <g id="Group_14450" data-name="Group 14450" transform="translate(0 95)">
      <rect id="Rectangle_4090" data-name="Rectangle 4090" width="66" height="66" rx="22" transform="translate(19 513)" fill="#94d1ff"/>
    </g>
    <g id="Group_14453" data-name="Group 14453" transform="translate(2)">
      <path id="Path_20081" data-name="Path 20081" d="M-7085.906,7443.188l2.875-2.719s.844.281.938.125,1.563-1.375,1.563-1.375a15.212,15.212,0,0,1-.875-1.75c.031-.125,5.5-5.594,5.594-5.625a9.28,9.28,0,0,1,1.188.313s3.688-1.281,3.75-1.375,3.219-.656,3.219-.656l.5.219s-2.562,3.594-2.687,3.719-.812,1.469-.812,1.469v.906c0,.094.188,1.031.188,1.031l-1.906,2.844-3.437,2.875h-1l-1.219-1.031-1.406,1.469.531.906-1.187,1.594-2,1.281-3.156-3.094Z" transform="translate(7117 -6803)" fill="#fff"/>
      <g id="Group_14452" data-name="Group 14452" transform="translate(28 626)">
        <path id="Path_20070" data-name="Path 20070" d="M3491.92,2301.877l4.811-4.648.941,1.131,6.863-6.465.42,1.848s-.577,1.475-.94,1.6-4.048,3.808-4.048,3.808h-.928l-1.005-.25-1.3-.1-.863,1.015.778,1.31-2.679,2.324h-.955Z" transform="translate(-3486.276 -2285.291)" fill="#ffc400"/>
        <g id="Group_14451" data-name="Group 14451" transform="translate(12.764 7.463)">
          <path id="Path_20071" data-name="Path 20071" d="M3555.07,2319.5a1.759,1.759,0,0,0-.8.362q-4.851,4.814-9.657,9.672a1.2,1.2,0,0,0-.236.627l10.816-10.539C3555.143,2319.542,3555.1,2319.489,3555.07,2319.5Z" transform="translate(-3538.19 -2313.352)" fill="#9f9f9f"/>
          <path id="Path_20072" data-name="Path 20072" d="M3537.2,2301.865c-.181.224-.32.432-.494.605q-4.828,4.837-9.676,9.652c-.216.213-.623.232-.94.342a3.559,3.559,0,0,0,.082-.382l-3.228,3.145c.568.177.346.667.467,2.4a2.283,2.283,0,0,1-.831,2.073c-.877.766-1.672,1.626-2.6,2.539a5.892,5.892,0,0,0,7.73-5.632,2.112,2.112,0,0,1,.532-1.388q5.7-5.794,11.5-11.5a2.392,2.392,0,0,1,1.469-.594,5.852,5.852,0,0,0,5.27-3.168,5.691,5.691,0,0,0,.359-4.68c-1.014,1.064-1.911,1.955-2.745,2.9a2,2,0,0,1-1.751.694c-1.257-.052-1.88-.074-2.219-.387l-3.139,3.058C3537.054,2301.636,3537.129,2301.765,3537.2,2301.865Z" transform="translate(-3519.986 -2295.277)" fill="#43a9f6"/>
          <path id="Path_20080" data-name="Path 20080" d="M3537.2,2301.865c-.181.224-.32.432-.494.605q-4.828,4.837-9.676,9.652c-.216.213-.623.232-.94.342a3.559,3.559,0,0,0,.082-.382l-3.228,3.145c.568.177.346.667.467,2.4a2.283,2.283,0,0,1-.831,2.073c-.877.766-1.672,1.626-2.6,2.539a5.892,5.892,0,0,0,7.73-5.632,2.112,2.112,0,0,1,.532-1.388q5.7-5.794,11.5-11.5a2.392,2.392,0,0,1,1.469-.594,5.852,5.852,0,0,0,5.27-3.168,5.691,5.691,0,0,0,.359-4.68c-1.014,1.064-1.911,1.955-2.745,2.9a2,2,0,0,1-1.751.694c-1.257-.052-1.88-.074-2.219-.387l-3.139,3.058C3537.054,2301.636,3537.129,2301.765,3537.2,2301.865Z" transform="translate(-3519.986 -2295.277)" fill="#43a9f6"/>
        </g>
        <path id="Path_20073" data-name="Path 20073" d="M3496.43,2285.783l-4.357-4.362c-1.5,1.014-1.732,1.014-3.311-.076-.464.422-1,.7-.776,1.589.244.98-2.391,3.591-3.418,3.478a2.027,2.027,0,0,1-1.071-.52c-.929-.862-1.815-1.77-2.7-2.681a1.5,1.5,0,0,1,.02-2.4,17.96,17.96,0,0,1,1.625-1.6c.345-.278.89-.611,1.24-.518.854.225,1.22-.252,1.633-.778-.87-1.569-.8-2.029.468-3.3,1.254-1.255,2.521-2.5,3.761-3.77a2.083,2.083,0,0,1,2.241-.611,1.888,1.888,0,0,0,1.033-.164c1.513-.539,3.005-1.138,4.528-1.646a3.564,3.564,0,0,1,1.506-.1,10.308,10.308,0,0,1,1.577.435c-.315.39-.629.783-.947,1.171-.856,1.048-1.759,2.062-2.554,3.154a2.138,2.138,0,0,0-.293,2.271c.234.572-.229,1.429-.392,2.219l4.179,4.19c1.269-1.267,2.644-2.608,3.967-4a1.634,1.634,0,0,0,.2-.972,6.894,6.894,0,0,1,9.21-6.213c.988.365,1.05.619.316,1.366a18.532,18.532,0,0,1-2.1,2.063,2.99,2.99,0,0,0-1.06,3.6,2.876,2.876,0,0,0,3.361-.926,22.76,22.76,0,0,1,2.333-2.368c.623-.6.9-.538,1.229.253a6.862,6.862,0,0,1-6.016,9.316,2.16,2.16,0,0,0-1.647.712c-1.152,1.215-2.359,2.378-3.624,3.642l1.469,1.129c.485-.472.946-.158,1.47.381,1.945,2,3.94,3.95,5.9,5.93,1.394,1.406,1.383,2.815-.01,4.23-.444.452-.881.913-1.351,1.338a2.39,2.39,0,0,1-3.429.021q-3.375-3.281-6.645-6.668c-.229-.237-.11-.809-.153-1.225l.309-.088-1.389-1.212c-1.219,1.216-2.484,2.45-3.706,3.727a1.366,1.366,0,0,0-.211.871c.015,4.672-4.757,7.807-9.305,6.314-.925-.3-.969-.593-.264-1.312a21.976,21.976,0,0,1,2.029-2,3.1,3.1,0,0,0,1.176-3.659c-1.128-.151-2.282-.469-3.243.765a26.022,26.022,0,0,1-2.468,2.5c-.663.646-.923.573-1.256-.311a6.959,6.959,0,0,1,6.209-9.326,2.335,2.335,0,0,0,1.374-.593C3494.275,2287.989,3495.365,2286.843,3496.43,2285.783Zm-6.244,16.313a5.892,5.892,0,0,0,7.729-5.632,2.116,2.116,0,0,1,.532-1.388q5.7-5.794,11.5-11.5a2.39,2.39,0,0,1,1.469-.594,5.853,5.853,0,0,0,5.27-3.168,5.7,5.7,0,0,0,.359-4.68c-1.014,1.064-1.911,1.955-2.746,2.9a2,2,0,0,1-1.75.694c-2.534-.105-2.494-.086-2.734-2.574a2.225,2.225,0,0,1,.8-2.075c.906-.811,1.732-1.71,2.647-2.625a5.86,5.86,0,0,0-7.69,5.558,2.1,2.1,0,0,1-.674,1.659c-3.83,3.792-7.623,7.62-11.459,11.4a1.993,1.993,0,0,1-1.3.539,5.747,5.747,0,0,0-5.8,4.287,5.946,5.946,0,0,0-.028,3.334,1.27,1.27,0,0,0,.276-.123c.789-.781,1.619-1.525,2.345-2.36a2.36,2.36,0,0,1,2.159-.846c3,.207,2.323-.173,2.516,2.576a2.283,2.283,0,0,1-.831,2.073C3491.906,2300.323,3491.111,2301.183,3490.187,2302.1Zm5.743-26.24a4.552,4.552,0,0,0-.478-.733c-1.22-1.241-2.455-2.466-3.686-3.7a.922.922,0,0,0-1.481.04c-1.385,1.389-2.768,2.78-4.163,4.158a.991.991,0,0,0,.043,1.626q1.76,1.73,3.49,3.49a.986.986,0,0,0,1.624.016c1.356-1.373,2.731-2.727,4.086-4.1A6.14,6.14,0,0,0,3495.929,2275.856Zm12.834,14.493-3.778,3.793c2.1,2.13,4.245,4.362,6.458,6.528a1.36,1.36,0,0,0,1.979-.117c.559-.513,1.1-1.049,1.61-1.613a1.6,1.6,0,0,0-.008-2.309C3512.943,2294.506,3510.828,2292.415,3508.763,2290.349Zm-11.667-5.678,2.208-2.113-4.192-4.171-2.174,2.117Zm-9.97-1.637a6.714,6.714,0,0,0-.422-.551c-.371-.391-.747-.776-1.135-1.149-2.4-2.313-1.519-2.31-4.018.088-.023.022-.063.045-.064.068-.009.351-.163.837.009,1.031.816.924,1.726,1.764,2.593,2.644a.687.687,0,0,0,1.135-.024c.505-.524,1.035-1.025,1.539-1.552A3.649,3.649,0,0,0,3487.126,2283.034Zm11.331-13.771a11.054,11.054,0,0,0-5.325,1.752l2.345,2.441Zm7.626,19.777-2.316,2.308,1.057,1.159,2.44-2.3Zm-20.857-9.653,1.99,2.065.774-.717-1.851-2.135Z" transform="translate(-3477.534 -2267.672)"/>
        <path id="Path_20074" data-name="Path 20074" d="M3628.552,2265.86a2.429,2.429,0,0,1,2.475,2.451,2.475,2.475,0,0,1-2.451,2.5,2.523,2.523,0,0,1-2.5-2.472A2.476,2.476,0,0,1,3628.552,2265.86Zm1.519,2.432a1.483,1.483,0,0,0-1.516-1.476,1.525,1.525,0,0,0-1.519,1.491,1.567,1.567,0,0,0,1.581,1.542A1.533,1.533,0,0,0,3630.071,2268.292Z" transform="translate(-3586.402 -2265.86)"/>
        <path id="Path_20075" data-name="Path 20075" d="M3471.822,2382.53a2.139,2.139,0,1,1,2.122-2.106A2.114,2.114,0,0,1,3471.822,2382.53Zm.117-.962a1.113,1.113,0,0,0,1.042-1.216,1.131,1.131,0,0,0-1.236-1.131,1.1,1.1,0,0,0-1.108,1.165A1.174,1.174,0,0,0,3471.939,2381.568Z" transform="translate(-3469.671 -2349.74)"/>
        <path id="Path_20078" data-name="Path 20078" d="M3554.725,2319.939a7.778,7.778,0,0,1-.494.605q-4.828,4.837-9.677,9.652c-.215.213-.622.232-.939.341.1-.342.1-.785.317-1.009q4.8-4.866,9.658-9.672a1.757,1.757,0,0,1,.8-.362C3554.453,2319.479,3554.592,2319.758,3554.725,2319.939Z" transform="translate(-3524.857 -2305.889)"/>
        <path id="Path_20079" data-name="Path 20079" d="M3584.9,2371l-5.636-6.3-1.39,1.4c2.1,2.13,4.246,4.362,6.458,6.528a1.36,1.36,0,0,0,1.979-.117c.559-.513,1.1-1.049,1.61-1.613a1.848,1.848,0,0,0,.466-.919C3585.695,2372.4,3584.9,2371,3584.9,2371Z" transform="translate(-3550.428 -2339.628)" fill="#fff"/>
      </g>
    </g>
  </g>
</svg>
