<svg xmlns="http://www.w3.org/2000/svg" width="66" height="66" viewBox="0 0 66 66">
  <g id="Group_14440" data-name="Group 14440" transform="translate(-19 -513)">
    <rect id="Rectangle_4090" data-name="Rectangle 4090" width="66" height="66" rx="22" transform="translate(19 513)" fill="#b9de95"/>
    <g id="Group_14424" data-name="Group 14424" transform="translate(-255.571 -1351.555)">
      <path id="Path_20041" data-name="Path 20041" d="M289.089,1877.615s32.314,1.121,33.229,3.769,0,35.31,0,35.31,4.725.439,4.725-1.192-.178-36.7-.178-36.7l-2.509-1.838Z" fill="#7dba27"/>
      <g id="Group_14419" data-name="Group 14419">
        <path id="Path_20042" data-name="Path 20042" d="M324.356,1917.443h-7.18v-29.625H297.967v29.625h-7.179a3.511,3.511,0,0,1-3.437-3.573v-34.085a3.51,3.51,0,0,1,3.437-3.573h33.568a3.51,3.51,0,0,1,3.436,3.573v34.085A3.51,3.51,0,0,1,324.356,1917.443Zm-5.68-1.5h5.68a2.009,2.009,0,0,0,1.936-2.073v-34.085a2.01,2.01,0,0,0-1.936-2.073H290.788a2.011,2.011,0,0,0-1.937,2.073v34.085a2.01,2.01,0,0,0,1.937,2.073h5.679v-29.625h22.209Z" fill="#0f0f0f"/>
        <rect id="Rectangle_4268" data-name="Rectangle 4268" width="5.177" height="27.249" transform="translate(297.217 1887.068)" fill="#0f0f0f"/>
        <rect id="Rectangle_4269" data-name="Rectangle 4269" width="5.177" height="27.249" transform="translate(312.749 1887.068)" fill="#0f0f0f"/>
        <g id="Group_14417" data-name="Group 14417">
          <circle id="Ellipse_838" data-name="Ellipse 838" cx="1.334" cy="1.334" r="1.334" transform="translate(320.983 1898.722)" fill="#0f0f0f"/>
          <circle id="Ellipse_839" data-name="Ellipse 839" cx="1.334" cy="1.334" r="1.334" transform="translate(320.983 1902.893)" fill="#0f0f0f"/>
        </g>
        <g id="Group_14418" data-name="Group 14418">
          <path id="Path_20043" data-name="Path 20043" d="M306.715,1884.247h-3.468l1.3-2.081a.511.511,0,0,1,.867,0Z" fill="#0f0f0f"/>
          <path id="Path_20044" data-name="Path 20044" d="M312.017,1881.926h-3.469l1.3,2.081a.511.511,0,0,0,.867,0Z" fill="#0f0f0f"/>
        </g>
      </g>
      <g id="Group_14423" data-name="Group 14423">
        <g id="Group_14420" data-name="Group 14420">
          <rect id="Rectangle_4270" data-name="Rectangle 4270" width="6.931" height="5.715" transform="translate(297.25 1896.134)" fill="#2b6eb2"/>
          <rect id="Rectangle_4271" data-name="Rectangle 4271" width="6.931" height="5.715" transform="translate(293.784 1896.134)" fill="#43a1f6"/>
          <path id="Path_20045" data-name="Path 20045" d="M304.177,1900.4h-1.1l.1-.309-.1-.221h1.1Z" fill="#de6b4d"/>
          <path id="Path_20046" data-name="Path 20046" d="M300.715,1897.9h-1.1l.1-.309-.1-.221h1.1Z" fill="#ee805f"/>
          <path id="Path_20047" data-name="Path 20047" d="M300.715,1897.373h1.1l-.1.309.1.221h-1.1Z" fill="#de6b4d"/>
          <path id="Path_20048" data-name="Path 20048" d="M293.784,1900.461h1.1l-.1.309.1.221h-1.1Z" fill="#ee805f"/>
          <rect id="Rectangle_4272" data-name="Rectangle 4272" width="1.994" height="0.776" transform="translate(296.233 1897.297) rotate(180)" fill="#d4d5d9"/>
        </g>
        <path id="Path_20049" data-name="Path 20049" d="M297.054,1901.606c-.168-.11-.549-.35-.567-.292a.253.253,0,0,0,.058.18,1.606,1.606,0,0,0-.994,0,.4.4,0,0,0-.258.185.178.178,0,0,0,.073.276c.282.16.2.061.59.3a1.125,1.125,0,0,0,1.136.094l.373-.077.023-.619S297.273,1901.634,297.054,1901.606Z" fill="#de6b4d"/>
        <path id="Path_20050" data-name="Path 20050" d="M304.676,1895.457a1.921,1.921,0,0,0,2.093-.23,4.824,4.824,0,0,1-.153-2.421c.01-.056-1.793.688-1.848.7h0v.013l0,.026c-.028.243-.047.484-.06.709C304.662,1894.925,304.676,1895.457,304.676,1895.457Z" fill="#ee805f"/>
        <path id="Path_20051" data-name="Path 20051" d="M304.7,1894.253a2.611,2.611,0,0,0,1.657-.792,10.819,10.819,0,0,0-1.591.044h0v.013l0,.026C304.734,1893.787,304.715,1894.028,304.7,1894.253Z" fill="#de6b4d"/>
        <path id="Path_20052" data-name="Path 20052" d="M304.432,1893.391s1.768.782,2.238-.327,1.015-1.754-.094-2.3-1.509-.217-1.756.115S303.984,1893.159,304.432,1893.391Z" fill="#ee805f"/>
        <path id="Path_20053" data-name="Path 20053" d="M306.548,1893.367c.022.021.4.218,1.433-1.142a1.334,1.334,0,0,0,.147-1.211,3.6,3.6,0,0,0-1.887-1.346,1.583,1.583,0,0,0-.986-.046.614.614,0,0,0-.431.761,1.006,1.006,0,0,0,.981.824c.312-.01.292.627.286.778s.005.281.4.218c.337-.054.147.39.034.59a.584.584,0,0,0-.08.323A.363.363,0,0,0,306.548,1893.367Z" fill="#384152"/>
        <path id="Path_20054" data-name="Path 20054" d="M309.254,1922.9h1.14c.239,0,.5-.239.57-.677s.558-.678.664-1.036-.438-.863-.438-.863l-.091-.117-.1-.122-.9.212s-.023.215-.037.489a6.231,6.231,0,0,0,0,.627c.026.478-.134.992-.559,1.085S309.254,1922.9,309.254,1922.9Z" fill="#151f2c"/>
        <path id="Path_20055" data-name="Path 20055" d="M301.321,1922.9h3.02a.292.292,0,0,0,.065-.019c.2-.1.138-.873.114-1.112l-.008-.07s-1.062-.849-1.208-.2c0,.021-.01.041-.016.06h0c-.184.609-1.009.886-1.485.963A.517.517,0,0,0,301.321,1922.9Z" fill="#151f2c"/>
        <path id="Path_20056" data-name="Path 20056" d="M301.93,1905.478s.161,2.013.35,4.432c.258,3.287.568,7.323.6,8.088.053,1.328.265,3.452.265,3.452a1.67,1.67,0,0,0,1.514.292,34.765,34.765,0,0,0,1.156-6.24l.012-.159c.239-3.266.611-10.144.611-10.144Z" fill="#43a1f6"/>
        <path id="Path_20057" data-name="Path 20057" d="M302.378,1905.2c.425.026,4.918-.144,4.919-.4a39,39,0,0,1,.415-4q.061-.48.1-.951a14.529,14.529,0,0,0,0-2.313,3.8,3.8,0,0,0-1.028-2.664s-.538.044-1.034.119a2.231,2.231,0,0,1-1.154-.059l-.686.591a2.654,2.654,0,0,0-.871,1.334S302.34,1905.2,302.378,1905.2Z" fill="#384152"/>
        <path id="Path_20058" data-name="Path 20058" d="M307.071,1899.163a4.017,4.017,0,0,1-2.051,2.224c-1.579.725-.635-1.379-.635-1.379Z" fill="#151f2c"/>
        <path id="Path_20059" data-name="Path 20059" d="M303.042,1896.86l1.227.285,1.689,4.574a1.557,1.557,0,0,0,1.5,1.062l0,.109-.084,2.18-5.442.494s-.025-2.728.072-3.6C302.152,1900.669,303.042,1896.86,303.042,1896.86Z" fill="#43a1f6"/>
        <path id="Path_20060" data-name="Path 20060" d="M297.157,1901.952c-.039-.357.144-.424.144-.424s3.617-.8,3.923-.91a38.884,38.884,0,0,0,2.847-2.967s.971-1.183,1.812-.963a1.562,1.562,0,0,1,1.151,1.277c.14.635.577.837.037,1.2-1.214.811-4.352,2.862-4.931,3.057a19.838,19.838,0,0,1-4.809.216A1.125,1.125,0,0,1,297.157,1901.952Z" fill="#384152"/>
        <path id="Path_20061" data-name="Path 20061" d="M305.541,1895.82c.285-.265,1.246-.945,1.246-.945a.7.7,0,0,0-.1-.121.736.736,0,0,0-.122-.1,6.64,6.64,0,0,0-1.385.967c-.379.338-1.433,1.4-1.433,1.4l.517.12S305.2,1896.133,305.541,1895.82Z" fill="#43a1f6"/>
        <g id="Group_14422" data-name="Group 14422">
          <path id="Path_20062" data-name="Path 20062" d="M304.357,1890.773a7.072,7.072,0,0,0,.965.464l1.229.309,1.65.607a2.307,2.307,0,0,0-.131-2.15h0c-.017-.024-.035-.048-.054-.071a2.259,2.259,0,0,0-.847-.623C305.223,1888.431,304.379,1890.7,304.357,1890.773Z" fill="#43a1f6"/>
          <g id="Group_14421" data-name="Group 14421">
            <path id="Path_20063" data-name="Path 20063" d="M305.306,1891.2l.314.1a4.437,4.437,0,0,1,2.463-1.27l-.013-.025h0c-.013-.024-.025-.037-.044-.072h-.01A4.8,4.8,0,0,0,305.306,1891.2Z" fill="#2b6eb2"/>
          </g>
          <path id="Path_20064" data-name="Path 20064" d="M306.551,1891.546a1.42,1.42,0,0,1,.19.536c.014.249,1.1.591,1.193.48a3.32,3.32,0,0,0,.267-.409Z" fill="#43a1f6"/>
          <path id="Path_20065" data-name="Path 20065" d="M306.551,1891.546a8.389,8.389,0,0,1-2.888-.986.088.088,0,0,1,.048-.158,3.937,3.937,0,0,1,.787.051A4.059,4.059,0,0,0,306.551,1891.546Z" fill="#2b6eb2"/>
        </g>
        <path id="Path_20066" data-name="Path 20066" d="M302.531,1905.344a12.514,12.514,0,0,0,.476,3.612,56.394,56.394,0,0,0,2.807,6.546l.012-.159c.239-3.266.611-10.144.611-10.144Z" fill="#2b6eb2"/>
        <path id="Path_20067" data-name="Path 20067" d="M302.531,1905.344s3.043,7.662,4.955,11.088,2.509,4.381,2.509,4.381,1.1-.438,1.2-.737c0,0-.731-6.613-2.011-8.225a12.115,12.115,0,0,1-1.614-4.6c-.039-.955-.146-3.246-.146-3.246Z" fill="#43a1f6"/>
      </g>
    </g>
  </g>
</svg>
