<svg width="188" height="188" viewBox="0 0 188 188" fill="none" xmlns="http://www.w3.org/2000/svg">
<path d="M125.333 0H62.6667C28.0568 0 0 28.0568 0 62.6667V125.333C0 159.943 28.0568 188 62.6667 188H125.333C159.943 188 188 159.943 188 125.333V62.6667C188 28.0568 159.943 0 125.333 0Z" fill="#FFFDBE"/>
<path d="M56.6221 143.28C56.6221 137.691 56.8152 132.095 56.5836 126.519C56.5006 123.783 56.9707 121.06 57.966 118.512C58.9612 115.963 60.4606 113.643 62.3743 111.691C67.0685 106.548 72.9435 102.629 79.4901 100.274L81.1757 99.629C77.8913 97.4981 75.2119 94.5537 73.3969 91.0806C71.582 87.6076 70.6932 83.7235 70.8163 79.8051C70.8401 76.85 71.461 73.9306 72.6421 71.2226C73.8232 68.5146 75.5399 66.0744 77.6883 64.0495C82.0054 59.8359 87.8157 57.5116 93.8422 57.5878C99.8687 57.6639 105.618 60.1342 109.828 64.4555C112.138 66.8646 113.9 69.7466 114.991 72.9031C116.083 76.0597 116.479 79.4159 116.151 82.7405C115.824 86.065 114.782 89.279 113.096 92.1611C111.41 95.0433 109.121 97.5251 106.386 99.4358C107.814 99.9837 109.178 100.454 110.504 101.028C117.595 103.796 123.616 108.766 127.684 115.211C129.563 118.266 130.531 121.795 130.476 125.384C130.392 131.353 130.431 137.317 130.412 143.287L56.6221 143.28ZM60.8042 138.896H126.319V137.31C126.319 133.571 126.255 129.826 126.319 126.086C126.403 122.272 125.171 118.544 122.832 115.533C119.394 110.924 114.755 107.355 109.423 105.218C105.71 103.69 101.798 102.64 97.9824 101.389C97.5384 101.241 97.1008 101.086 96.4252 100.854C99.0826 99.0681 101.489 97.4759 103.876 95.8449C107.012 93.7601 109.429 90.7566 110.799 87.2446C112.168 83.7326 112.422 79.8831 111.527 76.2209C110.827 72.746 109.105 69.5606 106.582 67.0753C104.059 64.59 100.851 62.9185 97.3713 62.2764C94.0212 61.4218 90.4927 61.5881 87.2374 62.7537C83.9821 63.9194 81.1479 66.0315 79.0974 68.82C77.4574 70.8601 76.2669 73.2248 75.6037 75.7586C74.9405 78.2924 74.8198 80.938 75.2494 83.5219C75.679 86.1058 76.6491 88.5693 78.0963 90.7509C79.5435 92.9325 81.4352 94.7828 83.6467 96.1801C85.9952 97.6951 88.3374 99.2164 90.9176 100.886C88.4661 101.692 86.2976 102.446 84.1034 103.123C77.1214 105.103 70.7961 108.921 65.7847 114.179C64.0871 115.816 62.7586 117.798 61.8885 119.992C61.0184 122.186 60.6269 124.541 60.7402 126.899C60.9654 130.419 60.785 133.99 60.785 137.491L60.8042 138.896Z" fill="#FF0000" stroke="#EE0E0E" stroke-width="0.3"/>
<path d="M52.2369 83.6284C49.2758 80.8526 47.071 77.365 45.8324 73.4963C44.5937 69.6276 44.3619 65.506 45.1588 61.5223C45.7174 58.2551 46.9728 55.1471 48.8395 52.4102C50.7061 49.6733 53.1401 47.3722 55.9753 45.6636C61.3292 42.306 67.7928 41.2111 73.9507 42.6189C80.1087 44.0266 85.4586 47.822 88.8291 53.1739L85.4835 55.3337C83.5442 52.2827 80.8097 49.8202 77.5756 48.2125C74.3415 46.6049 70.7306 45.9129 67.1326 46.2113C64.4829 46.3588 61.8944 47.0674 59.5377 48.2897C57.181 49.512 55.1095 51.2205 53.4595 53.303C51.4109 55.6875 49.9738 58.5369 49.273 61.6038C48.5723 64.6707 48.6289 67.8624 49.438 70.9025C50.2964 73.9759 51.8102 76.8258 53.8754 79.2556C55.9406 81.6854 58.5076 83.637 61.3992 84.9756C60.2861 85.3173 59.5657 85.5559 58.8257 85.7622C53.1451 87.2093 47.8653 89.9272 43.3829 93.7113C39.2429 96.9458 36.3724 101.538 35.2755 106.682C35.1834 107.221 35.1382 107.767 35.1404 108.313C35.1404 113.316 35.1404 118.316 35.1404 123.315C35.1404 123.643 35.1727 123.959 35.2048 124.488H36.7168C41.7099 124.488 46.7032 124.488 51.6899 124.488C52.7709 124.488 53.2342 124.752 53.1119 125.893C53.0676 126.752 53.0676 127.613 53.1119 128.472H31.0031V126.983C31.0031 121.349 31.0996 115.714 31.0031 110.086C30.9106 104.442 32.9228 98.966 36.6461 94.7296C40.5187 90.1615 45.3979 86.5576 50.8985 84.2021L52.2369 83.6284Z" fill="#0438F2" stroke="#EE0E0E" stroke-width="0.3"/>
<path d="M103.514 55.3319L100.227 53.2236C103.361 48.1462 108.293 44.4426 114.037 42.8539C119.781 41.2652 125.912 41.9088 131.202 44.656C134.679 46.3437 137.675 48.8822 139.913 52.0373C142.151 55.1924 143.559 58.8621 144.006 62.7068C144.582 66.5014 144.233 70.3792 142.989 74.0095C141.746 77.6398 139.644 80.915 136.864 83.5557C138.949 84.6516 140.963 85.5927 142.861 86.7338C148.383 89.8471 152.89 94.4924 155.839 100.111C157.222 102.812 157.955 105.799 157.982 108.834C158.027 115.1 157.982 121.359 157.982 127.626C157.963 127.931 157.926 128.234 157.872 128.535H135.892C135.85 127.408 135.868 126.281 135.944 125.157C135.944 124.905 136.639 124.55 137.019 124.544C139.702 124.492 142.391 124.544 145.074 124.544H152.377C152.828 124.544 153.278 124.505 153.838 124.479V120.966C153.838 117.601 153.684 114.229 153.87 110.877C153.991 108.053 153.499 105.237 152.428 102.623C151.358 100.008 149.733 97.6578 147.667 95.7335C142.86 90.921 136.844 87.4996 130.256 85.8312C129.567 85.6378 128.892 85.4252 128.21 85.1867C128.145 85.1867 128.101 85.0769 127.953 84.9093C129.162 84.0841 130.385 83.2978 131.556 82.4469C134.361 80.5619 136.627 77.9757 138.129 74.9444C139.631 71.9131 140.317 68.5415 140.12 65.1629C139.95 61.0261 138.494 57.0462 135.955 53.7796C133.416 50.5129 129.921 48.123 125.96 46.9445C121.999 45.7659 117.768 45.8576 113.862 47.2065C109.955 48.5555 106.566 51.0943 104.171 54.4678C103.997 54.7514 103.778 54.9966 103.514 55.3319Z" fill="#0AB038" stroke="#EE0E0E" stroke-width="0.3"/>
</svg>
