<svg xmlns="http://www.w3.org/2000/svg" width="22.722" height="25.486" viewBox="0 0 22.722 25.486">
  <g id="Group_14225" data-name="Group 14225" transform="translate(-456.475 -620.563)">
    <g id="Group_14223" data-name="Group 14223" transform="translate(457.93 620.563)">
      <path id="Path_19934" data-name="Path 19934" d="M466.612,630.811l11.874-6.054s1.756-1.045,1.756,1.716v6.567h-13.63Z" transform="translate(-465.663 -623.614)" fill="#478352"/>
      <path id="Path_19935" data-name="Path 19935" d="M476.131,621.512c.49,0,1.059.338,1.059,1.91v6.567h-13.63V627.76l11.874-6.055a1.539,1.539,0,0,1,.7-.194m0-.949h0a2.478,2.478,0,0,0-1.147.307l-11.854,6.045a.949.949,0,0,0-.518.845v2.229a.949.949,0,0,0,.949.949h13.63a.949.949,0,0,0,.949-.949v-6.567c0-2.653-1.537-2.859-2.008-2.859Z" transform="translate(-462.612 -620.563)" fill="#020202"/>
    </g>
    <g id="Group_14224" data-name="Group 14224" transform="translate(456.475 626.887)">
      <path id="Path_19936" data-name="Path 19936" d="M467.836,666.384c-2.757,0-5.514.006-8.27,0a2.8,2.8,0,0,1-3.087-3.085q-.008-6.492,0-12.984a2.8,2.8,0,0,1,3.086-3.084q8.27-.01,16.541,0a2.8,2.8,0,0,1,3.087,3.083q.008,6.492,0,12.984a2.8,2.8,0,0,1-3.086,3.086C473.35,666.39,470.593,666.384,467.836,666.384Zm10.214-14.557c.027-.36.052-.564.056-.768.046-2.317-.383-2.751-2.715-2.751q-7.781,0-15.562,0c-1.7,0-2.261.546-2.263,2.223q-.008,6.27,0,12.539c0,1.68.558,2.226,2.258,2.228q6.18.007,12.361,0c1.363,0,2.728.017,4.09-.01a1.606,1.606,0,0,0,1.772-1.407,17.339,17.339,0,0,0,.017-2.1c-1.5,0-2.919.01-4.336,0a2.817,2.817,0,0,1-3.038-3.063c-.011-1.245-.007-2.49,0-3.735a2.839,2.839,0,0,1,3.125-3.154C475.2,651.821,476.589,651.827,478.05,651.827Zm.025,5.021c0-1.035-.015-2.07.007-3.1.011-.531-.2-.741-.73-.731-1.271.023-2.543-.018-3.813.022a1.516,1.516,0,0,0-1.637,1.686q-.044,2.083,0,4.168a1.517,1.517,0,0,0,1.639,1.684c1.27.038,2.543,0,3.814.022.535.01.74-.2.728-.731C478.059,658.859,478.075,657.854,478.075,656.848Z" transform="translate(-456.475 -647.225)"/>
      <path id="Path_19937" data-name="Path 19937" d="M481.546,655.308c-1.461,0-2.849-.006-4.236,0a2.839,2.839,0,0,0-3.125,3.155c-.006,1.245-.009,2.49,0,3.735a2.817,2.817,0,0,0,3.038,3.063c1.417.012,2.834,0,4.336,0a17.341,17.341,0,0,1-.017,2.1,1.606,1.606,0,0,1-1.772,1.407c-1.363.027-2.727.01-4.09.01q-6.181,0-12.361,0c-1.7,0-2.256-.548-2.258-2.228q-.008-6.269,0-12.539c0-1.677.559-2.222,2.263-2.223q7.781-.005,15.562,0c2.332,0,2.761.434,2.715,2.751C481.6,654.744,481.573,654.948,481.546,655.308Z" transform="translate(-459.971 -650.706)" fill="#69ab51"/>
      <path id="Path_19938" data-name="Path 19938" d="M527.611,675.461c0,1.005-.016,2.011.006,3.016.012.53-.193.741-.728.731-1.271-.024-2.543.016-3.814-.021a1.518,1.518,0,0,1-1.639-1.684q-.044-2.084,0-4.169a1.516,1.516,0,0,1,1.637-1.685c1.27-.04,2.542,0,3.813-.023.534-.01.742.2.73.731C527.6,673.392,527.611,674.427,527.611,675.461Zm-3.108-.029a9.277,9.277,0,0,0-.028-1.586c-.041-.235-.384-.418-.59-.624-.19.193-.533.377-.544.579a28.675,28.675,0,0,0,0,3.177c.013.217.386.414.593.62.191-.221.5-.421.547-.668A8.429,8.429,0,0,0,524.5,675.432Z" transform="translate(-506.011 -665.838)" fill="#ff9600"/>
      <path id="Path_19939" data-name="Path 19939" d="M530.554,680.567a8.487,8.487,0,0,1-.025,1.5c-.045.248-.356.447-.547.668-.207-.206-.58-.4-.593-.62a28.672,28.672,0,0,1,0-3.177c.011-.2.354-.387.544-.579.206.206.549.389.59.624A9.34,9.34,0,0,1,530.554,680.567Z" transform="translate(-512.061 -670.972)"/>
    </g>
  </g>
</svg>
