<?xml version="1.0" encoding="utf-8"?>
<!-- Generator: Adobe Illustrator 25.3.1, SVG Export Plug-In . SVG Version: 6.00 Build 0)  -->
<svg version="1.1" id="Layer_1" xmlns="http://www.w3.org/2000/svg" xmlns:xlink="http://www.w3.org/1999/xlink" x="0px" y="0px"
	 viewBox="0 0 23.7 23.7" style="enable-background:new 0 0 23.7 23.7;" xml:space="preserve">
<style type="text/css">
	.st0{fill:url(#SVGID_1_);}
	.st1{fill:#FFFFFF;}
	.st2{fill:url(#SVGID_2_);}
	.st3{fill:url(#SVGID_3_);}
	.st4{fill:url(#SVGID_4_);}
	.st5{fill:url(#SVGID_5_);}
	.st6{fill:#26304E;}
	.st7{fill:url(#SVGID_6_);}
	.st8{fill:url(#SVGID_7_);}
	.st9{fill:#3E4762;}
	.st10{fill:#D97700;}
	.st11{fill:url(#SVGID_8_);}
	.st12{fill:url(#SVGID_9_);}
	.st13{fill:url(#SVGID_10_);}
	.st14{fill:url(#SVGID_11_);}
	.st15{fill:url(#SVGID_12_);}
	.st16{fill:#C54D07;}
	.st17{fill:url(#SVGID_13_);}
	.st18{fill:url(#SVGID_14_);}
	.st19{fill:url(#SVGID_15_);}
	.st20{fill:url(#SVGID_16_);}
	.st21{fill:#6D8091;}
	.st22{fill:#CE6704;}
	.st23{fill:url(#SVGID_17_);}
</style>
<g>
	<linearGradient id="SVGID_1_" gradientUnits="userSpaceOnUse" x1="11.8525" y1="-0.1013" x2="11.8525" y2="23.6037">
		<stop  offset="0" style="stop-color:#FDE970"/>
		<stop  offset="0.5" style="stop-color:#FDCB56"/>
		<stop  offset="1" style="stop-color:#F8A337"/>
	</linearGradient>
	<circle class="st0" cx="11.9" cy="11.9" r="11.9"/>
	<linearGradient id="SVGID_2_" gradientUnits="userSpaceOnUse" x1="11.8525" y1="12.1174" x2="11.8525" y2="21.2347">
		<stop  offset="0" style="stop-color:#512512"/>
		<stop  offset="1" style="stop-color:#8D4C1A"/>
	</linearGradient>
	<path class="st2" d="M15.2,16.7c0,2.5-1.5,4.6-3.3,4.6s-3.3-2-3.3-4.6s1.5-4.6,3.3-4.6S15.2,14.2,15.2,16.7z"/>
	<g>
		<path class="st6" d="M9.1,7.3c0,1-0.8,1.8-1.8,1.8c-1,0-1.8-0.8-1.8-1.8c0-1,0.8-1.8,1.8-1.8C8.3,5.5,9.1,6.3,9.1,7.3z"/>
		<path class="st9" d="M7.9,7.3c0,0.3-0.3,0.6-0.6,0.6S6.7,7.6,6.7,7.3S7,6.7,7.3,6.7S7.9,7,7.9,7.3z"/>
		<g>
			<path class="st6" d="M18.2,7.3c0,1-0.8,1.8-1.8,1.8c-1,0-1.8-0.8-1.8-1.8c0-1,0.8-1.8,1.8-1.8C17.4,5.5,18.2,6.3,18.2,7.3z"/>
			<circle class="st9" cx="16.4" cy="6.7" r="0.6"/>
		</g>
	</g>
	<g>
		<path class="st10" d="M8.7,4C8.4,4,8.2,3.7,8.2,3.5C8.2,3.3,7.9,3,7.3,3C6.7,3,6.4,3.3,6.4,3.5C6.4,3.7,6.2,4,5.9,4
			C5.7,4,5.5,3.7,5.5,3.5c0-0.8,0.8-1.4,1.8-1.4c1,0,1.8,0.6,1.8,1.4C9.1,3.7,8.9,4,8.7,4z"/>
		<path class="st10" d="M17.8,4c-0.3,0-0.5-0.2-0.5-0.5C17.3,3.3,17,3,16.4,3s-0.9,0.3-0.9,0.5C15.5,3.7,15.3,4,15,4
			c-0.3,0-0.5-0.2-0.5-0.5c0-0.8,0.8-1.4,1.8-1.4s1.8,0.6,1.8,1.4C18.2,3.7,18,4,17.8,4z"/>
	</g>
</g>
</svg>
