<svg xmlns="http://www.w3.org/2000/svg" width="30.509" height="43.833" viewBox="0 0 30.509 43.833">
  <g id="Group_14236" data-name="Group 14236" transform="translate(0 0)">
    <path id="Path_19545" data-name="Path 19545" d="M1279.663,883.858s-9.717-4.742-7.773,27.285h14.925l2.111-2.332V895.124l-2.111-6.711Z" transform="translate(-1261.332 -873.208)" fill="#ffc66c"/>
    <path id="Path_19546" data-name="Path 19546" d="M1275.049,967.812c-1.31,0-2.619.013-3.929,0-1.079-.014-1.546-.554-1.459-1.632a5.411,5.411,0,0,1,10.794.017c.082,1.069-.392,1.6-1.477,1.615C1277.668,967.823,1276.359,967.812,1275.049,967.812Z" transform="translate(-1259.803 -933.044)" fill="#fff"/>
    <path id="Path_19547" data-name="Path 19547" d="M1287.757,966.4s-4.755-3.731,1.881-7.851l1.194.6s2.329,1.348,2.331,1.892a9.193,9.193,0,0,0,.934,2.235v2.118l-.934,1.01Z" transform="translate(-1272.501 -931.032)" fill="#4dbaf6"/>
    <path id="Path_19548" data-name="Path 19548" d="M1238.106,877.313c-1.648,0-3.245,0-4.842,0a4.331,4.331,0,0,1-4.669-4.636q-.01-5.7,0-11.4a13.163,13.163,0,0,1,9.164-12.974c.128-.046.246-.117.375-.179a13.214,13.214,0,0,0-1.114-1.329,1.408,1.408,0,0,0-.879-.319c-2.6-.024-5.2-.01-7.8-.016-1.335,0-1.8-.47-1.807-1.8,0-.686-.011-1.371,0-2.056a1.433,1.433,0,0,1,1.645-1.62c2.627-.012,5.254-.019,7.881.008a1.281,1.281,0,0,0,1.189-.6,5.585,5.585,0,0,1,9.089.033,1.208,1.208,0,0,0,1.119.57c2.6-.023,5.2-.015,7.8-.008,1.287,0,1.764.478,1.776,1.75.007.685.009,1.371,0,2.056-.017,1.171-.506,1.67-1.677,1.675-2.484.01-4.969.033-7.452-.014a1.653,1.653,0,0,0-1.76.844,4.622,4.622,0,0,1-.735.815c.227.1.414.189.61.257a13.217,13.217,0,0,1,8.952,12.273c.016.657,0,1.314.009,1.971.008.6-.127,1.144-.836,1.155-.767.011-.855-.566-.89-1.192a25.865,25.865,0,0,0-.345-4.336,11.438,11.438,0,0,0-22.579,2.384c-.082,4.083-.033,8.169-.017,12.253a2.55,2.55,0,0,0,2.67,2.718c1.707.027,3.414.006,5.168.006l.047-.966c-.247-.032-.461-.067-.677-.087a2.985,2.985,0,0,1-2.85-3.381,7.116,7.116,0,0,1,5.693-6.55c.164-.036.325-.087.562-.151v-6.586c0-.6,0-1.2,0-1.8s.22-1.044.871-1.033.843.482.842,1.063q0,3.771,0,7.541c0,.256,0,.511,0,.809.245.064.459.128.676.177a7.146,7.146,0,0,1,5.588,6.646c.1,1.946-1.057,3.075-3.444,3.325-.023.15-.059.312-.067.474a4.053,4.053,0,0,0,.033.473c1.926,0,3.834.087,5.73-.031a2.4,2.4,0,0,0,2.091-2.454c.034-.827.019-1.656.01-2.485-.006-.585.186-1.07.82-1.091.688-.023.905.47.9,1.1-.009.857.019,1.715-.011,2.57a4.283,4.283,0,0,1-4.2,4.148c-1.762.037-3.526.008-5.369.008.05,1.486-.076,2.9-1.337,3.752a4.767,4.767,0,0,1-2.348.832C1239.608,881.972,1238.548,880.567,1238.106,877.313Zm3.672-4.482c1.31,0,2.62.012,3.929,0,1.085-.013,1.559-.547,1.477-1.615a5.411,5.411,0,0,0-10.794-.017c-.088,1.078.38,1.618,1.458,1.632C1239.159,872.844,1240.469,872.831,1241.778,872.831Zm.04-25.178a3.932,3.932,0,1,0-3.963-3.9A3.965,3.965,0,0,0,1241.818,847.653Zm-1.9,26.934c0,1.35-.037,2.6.012,3.846a1.837,1.837,0,0,0,1.744,1.779,1.791,1.791,0,0,0,1.946-1.54c.089-1.348.023-2.706.023-4.085Zm-8.371-29.9h4.573v-1.947h-4.573Zm15.891-.005h4.573v-1.939h-4.573Zm-19.131-1.969v1.968h1.41v-1.968Zm25.516.017V844.7h1.436v-1.964Z" transform="translate(-1226.532 -838.063)"/>
    <path id="Path_19549" data-name="Path 19549" d="M1290.9,896.986c.2.344.588.706.557,1.028-.027.28-.586.763-.8.71a1.238,1.238,0,0,1-.768-.856c-.034-.264.419-.591.655-.89Z" transform="translate(-1275.416 -883.523)"/>
    <path id="Path_19550" data-name="Path 19550" d="M1344.505,962.132c-.226-.324-.635-.656-.623-.971.01-.281.525-.792.748-.757a1.233,1.233,0,0,1,.83.787c.056.251-.373.609-.587.92Z" transform="translate(-1317.08 -932.461)"/>
    <path id="Path_19551" data-name="Path 19551" d="M1280.072,853.483a3.932,3.932,0,1,1,3.9-3.964A3.965,3.965,0,0,1,1280.072,853.483Zm2.7-3.758a2.73,2.73,0,0,0-2.543-2.878c-.348.011-.682.432-1.022.665.246.328.433.848.75.944a1.535,1.535,0,0,1,1.174,1.177,1.259,1.259,0,0,0,.948.69C1282.351,850.335,1282.641,849.852,1282.777,849.725Z" transform="translate(-1264.786 -843.893)" fill="#fff"/>
    <path id="Path_19552" data-name="Path 19552" d="M1287.7,1003.472a1.961,1.961,0,0,1-.836.132,1.838,1.838,0,0,1-1.745-1.779c-.048-1.247-.011-2.5-.011-3.846h1.418c0,1.35-.037,2.6.014,3.846A1.815,1.815,0,0,0,1287.7,1003.472Z" transform="translate(-1271.717 -961.455)" fill="#fff"/>
    <path id="Path_19553" data-name="Path 19553" d="M1293.6,1002.065a1.671,1.671,0,0,1-1.11,1.407,1.815,1.815,0,0,1-1.16-1.647c-.05-1.247-.014-2.5-.014-3.846h2.307C1293.623,999.358,1293.69,1000.717,1293.6,1002.065Z" transform="translate(-1276.51 -961.455)" fill="#898998"/>
    <path id="Path_19554" data-name="Path 19554" d="M1248.5,860.494v-1.947h4.573v1.947Z" transform="translate(-1243.484 -853.869)" fill="#fff"/>
    <path id="Path_19555" data-name="Path 19555" d="M1256.421,860.494v-1.947h2.765v1.947Z" transform="translate(-1249.594 -853.869)" fill="#4dbaf6"/>
    <path id="Path_19556" data-name="Path 19556" d="M1318.081,860.5v-1.939h4.573V860.5Z" transform="translate(-1297.172 -853.876)" fill="#4dbaf6"/>
    <path id="Path_19557" data-name="Path 19557" d="M1234.316,858.426h1.41v1.968h-1.41Z" transform="translate(-1232.538 -853.776)" fill="#fff"/>
    <path id="Path_19558" data-name="Path 19558" d="M1346.035,858.5h1.436v1.964h-1.436Z" transform="translate(-1318.741 -853.834)" fill="#4dbaf6"/>
    <path id="Path_19559" data-name="Path 19559" d="M1293.257,853.872c-.135.128-.426.611-.693.6a1.26,1.26,0,0,1-.948-.69,1.535,1.535,0,0,0-1.174-1.176c-.317-.1-.5-.616-.75-.944.34-.233.674-.654,1.022-.665A2.729,2.729,0,0,1,1293.257,853.872Z" transform="translate(-1275.267 -848.04)"/>
  </g>
</svg>
