<svg xmlns="http://www.w3.org/2000/svg" width="24.287" height="45.764" viewBox="0 0 24.287 45.764">
  <g id="Group_14384" data-name="Group 14384" transform="translate(-614.28 -1404.81)">
    <rect id="Rectangle_4236" data-name="Rectangle 4236" width="16.729" height="1.977" transform="translate(619.209 1406.141)" fill="#ffb857"/>
    <path id="Path_20022" data-name="Path 20022" d="M635.938,1408.368H619.209a.25.25,0,0,1-.25-.25v-1.977a.25.25,0,0,1,.25-.25h16.729a.251.251,0,0,1,.25.25v1.977A.251.251,0,0,1,635.938,1408.368Zm-16.479-.5h16.229v-1.477H619.459Z" fill="#030504"/>
    <g id="Group_14380" data-name="Group 14380">
      <path id="Path_20023" data-name="Path 20023" d="M625.609,1409v5.711h-.846v-5.816A3.463,3.463,0,0,0,625.609,1409Z" fill="#030504"/>
      <path id="Path_20024" data-name="Path 20024" d="M625.612,1408.416a2.507,2.507,0,0,1-.43-.036,2.44,2.44,0,0,1-.31-.058.345.345,0,0,0-.11-.012.38.38,0,0,0-.22.07.421.421,0,0,0-.09.059.621.621,0,0,0-.19.458v5.811a.543.543,0,0,0,.5.587h.85a.382.382,0,0,0,.25-.082.586.586,0,0,0,.25-.505v-5.752A.541.541,0,0,0,625.612,1408.416Zm0,6.292h-.85V1408.9c.12.023.23.047.35.059a2.362,2.362,0,0,0,.5.047Z" fill="#030504"/>
    </g>
    <g id="Group_14381" data-name="Group 14381">
      <path id="Path_20025" data-name="Path 20025" d="M625.607,1413.76v1.27a.254.254,0,0,1-.25.25h-4.625v19.74a.885.885,0,0,1-1.77,0V1414.4a.883.883,0,0,1,.88-.89h5.515A.254.254,0,0,1,625.607,1413.76Z" fill="#030504"/>
    </g>
    <g id="Group_14382" data-name="Group 14382">
      <path id="Path_20026" data-name="Path 20026" d="M625.7,1413.76v1.27a.254.254,0,0,0,.25.25h4.211v19.74a.885.885,0,0,0,1.77,0V1414.4a.884.884,0,0,0-.881-.89h-5.1A.254.254,0,0,0,625.7,1413.76Z" fill="#030504"/>
    </g>
    <path id="Path_20027" data-name="Path 20027" d="M622.964,1406.552a.582.582,0,0,1,.174.025,1.154,1.154,0,0,0,0,1.219.582.582,0,0,1-.174.025h-7.05a.635.635,0,0,1,0-1.269Zm0-1h-7.05a1.635,1.635,0,0,0,0,3.269h7.05a1.59,1.59,0,0,0,.467-.069,1,1,0,0,0,.566-1.468.193.193,0,0,1-.033-.1.188.188,0,0,1,.036-.1,1,1,0,0,0-.567-1.463,1.6,1.6,0,0,0-.469-.07Z" fill="#030504"/>
    <g id="Group_14383" data-name="Group 14383">
      <path id="Path_20028" data-name="Path 20028" d="M621.748,1438.351a.633.633,0,0,1-.634.634h-3.491a.635.635,0,0,1,0-1.269h3.491A.634.634,0,0,1,621.748,1438.351Z" fill="#030504"/>
      <path id="Path_20029" data-name="Path 20029" d="M621.114,1437.716a.635.635,0,0,1,0,1.269h-3.491a.635.635,0,0,1,0-1.269Zm0-.5h-3.491a1.135,1.135,0,0,0,0,2.269h3.491a1.135,1.135,0,0,0,0-2.269Z" fill="#030504"/>
    </g>
    <path id="Path_20030" data-name="Path 20030" d="M638.067,1429.467a.633.633,0,0,1-.634.634h-3.491a.634.634,0,0,1,0-1.269h3.491A.634.634,0,0,1,638.067,1429.467Z" fill="#030504"/>
    <path id="Path_20031" data-name="Path 20031" d="M637.433,1428.832a.634.634,0,0,1,0,1.269h-3.491a.634.634,0,0,1,0-1.269Zm0-.5h-3.491a1.134,1.134,0,0,0,0,2.269h3.491a1.134,1.134,0,0,0,0-2.269Z" fill="#030504"/>
    <path id="Path_20032" data-name="Path 20032" d="M626.455,1408.893v5.816h-.846V1409A3.469,3.469,0,0,0,626.455,1408.893Z" fill="#030504"/>
    <path id="Path_20033" data-name="Path 20033" d="M626.772,1408.439a.421.421,0,0,0-.09-.059.411.411,0,0,0-.23-.07.287.287,0,0,0-.1.012,2.44,2.44,0,0,1-.31.058,2.507,2.507,0,0,1-.43.036.534.534,0,0,0-.5.54v5.752a.624.624,0,0,0,.25.517.453.453,0,0,0,.25.07h.84a.543.543,0,0,0,.5-.587V1408.9A.654.654,0,0,0,626.772,1408.439Zm-.32,6.269h-.84V1409a2.362,2.362,0,0,0,.5-.047,3.171,3.171,0,0,0,.34-.059Z" fill="#030504"/>
    <path id="Path_20034" data-name="Path 20034" d="M635.3,1406.552a.635.635,0,1,1,0,1.269h-7.05a.587.587,0,0,1-.174-.025,1.154,1.154,0,0,0,0-1.219.587.587,0,0,1,.174-.025Zm0-1h-7.05a1.566,1.566,0,0,0-.468.07,1,1,0,0,0-.567,1.464.187.187,0,0,1,.035.1.2.2,0,0,1-.032.1,1,1,0,0,0,.566,1.469,1.588,1.588,0,0,0,.466.069h7.05a1.635,1.635,0,1,0,0-3.269Z" fill="#030504"/>
    <path id="Path_20035" data-name="Path 20035" d="M629.282,1407.19a1.7,1.7,0,0,1-.24.84,3.444,3.444,0,0,1-2.26,1.41,5.52,5.52,0,0,1-1.17.12,5.615,5.615,0,0,1-1.18-.12,3.4,3.4,0,0,1-2.25-1.41,1.611,1.611,0,0,1-.25-.84,1.646,1.646,0,0,1,.25-.85,4.61,4.61,0,0,1,6.86,0A1.733,1.733,0,0,1,629.282,1407.19Z" fill="#fff"/>
    <path id="Path_20036" data-name="Path 20036" d="M625.612,1405.81a3.058,3.058,0,0,1,2.556,1.015.733.733,0,0,1,.114.365.7.7,0,0,1-.1.331,2.531,2.531,0,0,1-1.611.942,4.584,4.584,0,0,1-.958.1,4.633,4.633,0,0,1-.964-.1,2.426,2.426,0,0,1-1.614-.958.624.624,0,0,1-.1-.316.656.656,0,0,1,.114-.346,3.07,3.07,0,0,1,2.566-1.034m0-1a3.975,3.975,0,0,0-3.43,1.53,1.646,1.646,0,0,0-.25.85,1.611,1.611,0,0,0,.25.84,3.4,3.4,0,0,0,2.25,1.41,5.615,5.615,0,0,0,1.18.12,5.52,5.52,0,0,0,1.17-.12,3.444,3.444,0,0,0,2.26-1.41,1.7,1.7,0,0,0,.24-.84,1.733,1.733,0,0,0-.24-.85,3.988,3.988,0,0,0-3.43-1.53Z" fill="#030504"/>
    <path id="Path_20037" data-name="Path 20037" d="M625.612,1450.574a2.634,2.634,0,0,1-2.631-2.632v-28.259a2.631,2.631,0,1,1,5.262,0v28.259A2.634,2.634,0,0,1,625.612,1450.574Zm0-31.523a.632.632,0,0,0-.631.632v28.259a.631.631,0,1,0,1.262,0v-28.259A.632.632,0,0,0,625.612,1419.051Z" fill="#030504"/>
  </g>
</svg>
