<svg width="40" height="37" viewBox="0 0 40 37" fill="none" xmlns="http://www.w3.org/2000/svg">
<g clip-path="url(#clip0_492_30)">
<path d="M0.181964 14.7095L0.200946 14.6634L0.214923 14.6304C0.214923 14.6184 0.223937 14.6074 0.229937 14.5964C0.38143 14.2001 0.656264 13.8628 1.01393 13.6344L1.11391 13.5794L12.69 6.89344L24.2659 0.207454L24.3659 0.152446C24.5074 0.0609947 24.6707 0.00873299 24.839 0.00100278C25.0073 -0.00672744 25.1746 0.0303444 25.3239 0.10844L25.3469 0.120449L25.37 0.133449L26.8989 1.01445L26.018 1.38845L29.075 17.5964C29.1457 18.0348 29.088 18.4842 28.909 18.8905L28.8949 18.9254L28.8809 18.9584C28.7295 19.3551 28.4547 19.6927 28.0969 19.9214L4.99391 33.2505L5.20693 34.2675L3.75893 33.4295L3.73592 33.4165C3.58087 33.3248 3.44869 33.1991 3.34926 33.049C3.24983 32.8988 3.18577 32.728 3.16194 32.5494L0.0319395 15.9494C-0.0344061 15.5302 0.0175661 15.1008 0.181964 14.7095V14.7095Z" fill="#EAE9E9"/>
<path d="M6.23954 34.2723L29.5815 20.7903C29.9571 20.5165 30.2467 20.1411 30.4162 19.7083C30.5857 19.2756 30.6282 18.8034 30.5386 18.3473L27.4526 1.98734C27.2746 1.04534 26.5585 0.613328 25.8525 1.02033L2.51054 14.5033C2.13508 14.7773 1.84559 15.1526 1.67607 15.5854C1.50655 16.0181 1.46401 16.4903 1.55351 16.9463L4.63951 33.3063C4.81551 34.2473 5.53354 34.6833 6.23954 34.2723Z" fill="url(#paint0_linear_492_30)"/>
<path d="M2.60647 14.4516L14.1825 7.76562L17.8095 26.9976L6.33443 34.2206C6.18052 34.3292 6.00054 34.3949 5.81289 34.4111C5.62523 34.4272 5.43664 34.3932 5.26644 34.3125C5.09624 34.2318 4.95056 34.1074 4.84426 33.9519C4.73796 33.7964 4.67487 33.6155 4.66146 33.4276L1.53146 16.8276C1.46432 16.3702 1.52991 15.9032 1.72048 15.482C1.91105 15.0608 2.21858 14.7032 2.60647 14.4516V14.4516Z" fill="url(#paint1_linear_492_30)"/>
<path d="M25.7576 1.07617L14.1836 7.76218L17.7836 26.8732L29.4836 20.8452C29.872 20.5932 30.1798 20.2349 30.3702 19.8129C30.5606 19.3909 30.6257 18.9231 30.5576 18.4652L27.4276 1.86518C27.4135 1.67799 27.3501 1.49789 27.2437 1.3432C27.1374 1.18852 26.992 1.06478 26.8223 0.98459C26.6525 0.904404 26.4646 0.870632 26.2776 0.88672C26.0906 0.902809 25.9111 0.96818 25.7576 1.07617V1.07617Z" fill="url(#paint2_linear_492_30)"/>
<path d="M30.4141 19.7151C30.2376 20.1839 29.9119 20.5817 29.4871 20.8471L6.33508 34.2191C6.16947 34.3299 5.97686 34.3936 5.77783 34.4035C5.57881 34.4134 5.38084 34.369 5.20508 34.2751L15.5781 15.1641L30.4141 19.7151Z" fill="url(#paint3_linear_492_30)"/>
<path d="M1.67773 15.5804C1.85418 15.1116 2.17992 14.7138 2.60474 14.4484L25.7567 1.07638C25.9223 0.965566 26.1149 0.901837 26.314 0.891974C26.513 0.882111 26.711 0.926484 26.8867 1.02038L16.5137 20.1274L1.67773 15.5804Z" fill="url(#paint4_linear_492_30)"/>
<path d="M38.3763 4.88672H28.1603C27.702 4.92674 27.278 5.1456 26.9798 5.49594C26.6817 5.84628 26.5335 6.29993 26.5673 6.75871V12.3307C26.5332 12.7896 26.6814 13.2433 26.9795 13.5937C27.2777 13.9441 27.7019 14.1629 28.1603 14.2027H30.4603C30.5727 14.2045 30.6836 14.2286 30.7866 14.2735C30.8896 14.3185 30.9826 14.3835 31.0603 14.4647L32.8843 16.2987C32.9332 16.3509 32.9924 16.3924 33.058 16.4209C33.1236 16.4493 33.1943 16.464 33.2658 16.464C33.3373 16.464 33.4081 16.4493 33.4737 16.4209C33.5393 16.3924 33.5984 16.3509 33.6473 16.2987L35.4713 14.4647C35.549 14.3835 35.642 14.3185 35.745 14.2735C35.848 14.2286 35.959 14.2045 36.0713 14.2027H38.3713C38.8296 14.1627 39.2537 13.9438 39.5518 13.5935C39.8499 13.2431 39.9982 12.7895 39.9643 12.3307V6.75871C39.9982 6.30073 39.8507 5.84778 39.5536 5.49757C39.2565 5.14737 38.8337 4.92798 38.3763 4.88672V4.88672Z" fill="#B2B2B2" fill-opacity="0.4"/>
<path d="M38.1968 4.55469H27.5878C27.1853 4.58862 26.8125 4.78004 26.5503 5.08731C26.2882 5.39459 26.1579 5.7929 26.1878 6.19569V12.2317C26.1582 12.6343 26.2886 13.0324 26.5507 13.3394C26.8128 13.6465 27.1855 13.8378 27.5878 13.8717H30.1878C30.2682 13.8727 30.3476 13.8896 30.4214 13.9215C30.4953 13.9535 30.562 13.9997 30.6178 14.0577L32.4758 15.9257C32.5298 15.9835 32.5952 16.0295 32.6678 16.061C32.7404 16.0925 32.8186 16.1087 32.8978 16.1087C32.9769 16.1087 33.0552 16.0925 33.1277 16.061C33.2003 16.0295 33.2657 15.9835 33.3198 15.9257L35.1778 14.0577C35.2335 13.9997 35.3003 13.9534 35.3741 13.9215C35.4479 13.8895 35.5274 13.8726 35.6078 13.8717H38.2078C38.61 13.8378 38.9827 13.6465 39.2449 13.3394C39.507 13.0324 39.6374 12.6343 39.6078 12.2317V6.19569C39.6376 5.79114 39.5058 5.39126 39.2413 5.08368C38.9769 4.7761 38.6012 4.58588 38.1968 4.55469Z" fill="#F44E66"/>
<path d="M33.0414 11.9591L30.5414 10.0791C30.2628 9.87531 30.0514 9.59289 29.9344 9.26811C29.8251 8.94237 29.8123 8.59199 29.8974 8.25912C29.9826 7.92625 30.162 7.62508 30.4143 7.39183C30.6666 7.15857 30.9809 7.00317 31.3194 6.94432C31.6579 6.88547 32.0062 6.92569 32.3224 7.06011C32.3564 7.07511 32.3914 7.0921 32.4224 7.1101L33.0344 7.42611L33.6464 7.1101C33.6804 7.0921 33.7137 7.07545 33.7464 7.06011C34.0626 6.92569 34.4109 6.88547 34.7494 6.94432C35.0879 7.00317 35.4022 7.15857 35.6545 7.39183C35.9068 7.62508 36.0863 7.92625 36.1714 8.25912C36.2565 8.59199 36.2437 8.94237 36.1344 9.26811C36.0174 9.59286 35.806 9.87527 35.5274 10.0791L33.0414 11.9591Z" fill="#EFEFEF"/>
</g>
<defs>
<linearGradient id="paint0_linear_492_30" x1="-1152.6" y1="-30.5114" x2="-1119.42" y2="-30.5114" gradientUnits="userSpaceOnUse">
<stop stop-color="#7BDAFF"/>
<stop offset="1" stop-color="#59BDEF"/>
</linearGradient>
<linearGradient id="paint1_linear_492_30" x1="-1110.79" y1="-12.8877" x2="-1133.1" y2="-21.9573" gradientUnits="userSpaceOnUse">
<stop offset="0.768" stop-color="#59BDEF"/>
<stop offset="0.845" stop-color="#54B8EB"/>
<stop offset="0.932" stop-color="#48AAE1"/>
<stop offset="1" stop-color="#3A9BD5"/>
</linearGradient>
<linearGradient id="paint2_linear_492_30" x1="-1348.74" y1="-12.8922" x2="-1371.07" y2="-22.5368" gradientUnits="userSpaceOnUse">
<stop offset="0.768" stop-color="#59BDEF"/>
<stop offset="0.845" stop-color="#54B8EB"/>
<stop offset="0.932" stop-color="#48AAE1"/>
<stop offset="1" stop-color="#3A9BD5"/>
</linearGradient>
<linearGradient id="paint3_linear_492_30" x1="-1135.53" y1="-2.17187" x2="-1135.53" y2="-30.1287" gradientUnits="userSpaceOnUse">
<stop offset="0.768" stop-color="#3A9BD5"/>
<stop offset="0.839" stop-color="#3796D1"/>
<stop offset="0.918" stop-color="#3088C8"/>
<stop offset="1" stop-color="#2573BA"/>
</linearGradient>
<linearGradient id="paint4_linear_492_30" x1="-1146.62" y1="-43.9695" x2="-1123.5" y2="-22.9209" gradientUnits="userSpaceOnUse">
<stop stop-color="#7BDAFF"/>
<stop offset="1" stop-color="#59BDEF"/>
</linearGradient>
<clipPath id="clip0_492_30">
<rect width="39.969" height="36.249" fill="white"/>
</clipPath>
</defs>
</svg>
